<svg xmlns="http://www.w3.org/2000/svg" width="1920" height="1080"><path d="M771,1313L594,1318L1145,1345Z" fill="#535353" stroke="#535353" stroke-width="1.51"/><path d="M594,1318L323,1341L1145,1345Z" fill="#5b5b5b" stroke="#5b5b5b" stroke-width="1.51"/><path d="M1322,-230L1490,-172L1683,-167Z" fill="#a5a5a5" stroke="#a5a5a5" stroke-width="1.51"/><path d="M1322,-230L1683,-167L1806,-196Z" fill="#9d9d9d" stroke="#9d9d9d" stroke-width="1.51"/><path d="M1322,-230L1806,-196L1896,-199Z" fill="#979797" stroke="#979797" stroke-width="1.51"/><path d="M1943,1241L1743,1259L2052,1275Z" fill="#1b1b1b" stroke="#1b1b1b" stroke-width="1.51"/><path d="M1743,1259L1530,1329L2052,1275Z" fill="#212121" stroke="#212121" stroke-width="1.51"/><path d="M1976,116L2054,277L2067,77Z" fill="#6c6c6c" stroke="#6c6c6c" stroke-width="1.51"/><path d="M2029,839L1990,934L2090,996Z" fill="#333333" stroke="#333333" stroke-width="1.51"/><path d="M2062,1111L2052,1275L2090,996Z" fill="#1e1e1e" stroke="#1e1e1e" stroke-width="1.51"/><path d="M2067,77L2054,277L2103,360Z" fill="#656565" stroke="#656565" stroke-width="1.51"/><path d="M2067,77L2103,360L2109,-97Z" fill="#6b6b6b" stroke="#6b6b6b" stroke-width="1.51"/><path d="M1985,830L2029,839L2139,736Z" fill="#3c3c3c" stroke="#3c3c3c" stroke-width="1.51"/><path d="M1915,738L1985,830L2139,736Z" fill="#404040" stroke="#404040" stroke-width="1.51"/><path d="M2062,524L1915,738L2139,736Z" fill="#464646" stroke="#464646" stroke-width="1.51"/><path d="M2090,996L2052,1275L2139,736Z" fill="#292929" stroke="#292929" stroke-width="1.51"/><path d="M2029,839L2090,996L2139,736Z" fill="#363636" stroke="#363636" stroke-width="1.51"/><path d="M2103,360L2062,524L2139,736Z" fill="#4c4c4c" stroke="#4c4c4c" stroke-width="1.51"/><path d="M2109,-97L2103,360L2139,736Z" fill="#5d5d5d" stroke="#5d5d5d" stroke-width="1.51"/><path d="M1641,1275L1530,1329L1743,1259Z" fill="#2b2b2b" stroke="#2b2b2b" stroke-width="1.51"/><path d="M1943,1241L2052,1275L2062,1111Z" fill="#1a1a1a" stroke="#1a1a1a" stroke-width="1.51"/><path d="M1921,367L2062,524L2103,360Z" fill="#5b5b5b" stroke="#5b5b5b" stroke-width="1.51"/><path d="M2101,-170L1893,-112L2109,-97Z" fill="#7a7a7a" stroke="#7a7a7a" stroke-width="1.51"/><path d="M1893,-112L2067,77L2109,-97Z" fill="#777777" stroke="#777777" stroke-width="1.51"/><path d="M1921,367L1907,491L2062,524Z" fill="#5b5b5b" stroke="#5b5b5b" stroke-width="1.51"/><path d="M1893,-112L1976,116L2067,77Z" fill="#767676" stroke="#767676" stroke-width="1.51"/><path d="M2054,277L1921,367L2103,360Z" fill="#626262" stroke="#626262" stroke-width="1.51"/><path d="M1896,-199L1893,-112L2101,-170Z" fill="#7f7f7f" stroke="#7f7f7f" stroke-width="1.51"/><path d="M1976,116L1926,228L2054,277Z" fill="#6c6c6c" stroke="#6c6c6c" stroke-width="1.51"/><path d="M1835,651L1915,738L2062,524Z" fill="#4e4e4e" stroke="#4e4e4e" stroke-width="1.51"/><path d="M1907,491L1835,651L2062,524Z" fill="#555555" stroke="#555555" stroke-width="1.51"/><path d="M1990,934L2062,1111L2090,996Z" fill="#2a2a2a" stroke="#2a2a2a" stroke-width="1.51"/><path d="M1990,934L1883,1118L2062,1111Z" fill="#292929" stroke="#292929" stroke-width="1.51"/><path d="M1883,1118L1943,1241L2062,1111Z" fill="#202020" stroke="#202020" stroke-width="1.51"/><path d="M1926,228L1921,367L2054,277Z" fill="#686868" stroke="#686868" stroke-width="1.51"/><path d="M1820,594L1835,651L1907,491Z" fill="#585858" stroke="#585858" stroke-width="1.51"/><path d="M1985,830L1990,934L2029,839Z" fill="#393939" stroke="#393939" stroke-width="1.51"/><path d="M1893,-112L1751,124L1976,116Z" fill="#7c7c7c" stroke="#7c7c7c" stroke-width="1.51"/><path d="M1802,1005L1883,1118L1990,934Z" fill="#323232" stroke="#323232" stroke-width="1.51"/><path d="M1985,830L1818,817L1990,934Z" fill="#3e3e3e" stroke="#3e3e3e" stroke-width="1.51"/><path d="M1818,817L1802,1005L1990,934Z" fill="#3d3d3d" stroke="#3d3d3d" stroke-width="1.51"/><path d="M1915,738L1818,817L1985,830Z" fill="#444444" stroke="#444444" stroke-width="1.51"/><path d="M1743,-78L1751,124L1893,-112Z" fill="#868686" stroke="#868686" stroke-width="1.51"/><path d="M1751,124L1926,228L1976,116Z" fill="#767676" stroke="#767676" stroke-width="1.51"/><path d="M1802,390L1907,491L1921,367Z" fill="#646464" stroke="#646464" stroke-width="1.51"/><path d="M1828,277L1921,367L1926,228Z" fill="#6d6d6d" stroke="#6d6d6d" stroke-width="1.51"/><path d="M1883,1118L1829,1111L1943,1241Z" fill="#232323" stroke="#232323" stroke-width="1.51"/><path d="M1829,1111L1743,1259L1943,1241Z" fill="#232323" stroke="#232323" stroke-width="1.51"/><path d="M1802,1005L1829,1111L1883,1118Z" fill="#2f2f2f" stroke="#2f2f2f" stroke-width="1.51"/><path d="M1751,124L1828,277L1926,228Z" fill="#767676" stroke="#767676" stroke-width="1.51"/><path d="M1828,277L1802,390L1921,367Z" fill="#6c6c6c" stroke="#6c6c6c" stroke-width="1.51"/><path d="M1835,651L1818,817L1915,738Z" fill="#4c4c4c" stroke="#4c4c4c" stroke-width="1.51"/><path d="M1806,-196L1893,-112L1896,-199Z" fill="#858585" stroke="#858585" stroke-width="1.51"/><path d="M1802,390L1820,594L1907,491Z" fill="#606060" stroke="#606060" stroke-width="1.51"/><path d="M1806,-196L1743,-78L1893,-112Z" fill="#898989" stroke="#898989" stroke-width="1.51"/><path d="M12,1303L-186,1305L323,1341Z" fill="#757575" stroke="#757575" stroke-width="1.51"/><path d="M104,-252L242,-237L615,-259Z" fill="#ececec" stroke="#ececec" stroke-width="1.51"/><path d="M1642,836L1802,1005L1818,817Z" fill="#484848" stroke="#484848" stroke-width="1.51"/><path d="M1802,390L1609,577L1820,594Z" fill="#666666" stroke="#666666" stroke-width="1.51"/><path d="M1624,1174L1743,1259L1829,1111Z" fill="#2d2d2d" stroke="#2d2d2d" stroke-width="1.51"/><path d="M1820,594L1648,691L1835,651Z" fill="#595959" stroke="#595959" stroke-width="1.51"/><path d="M1648,691L1818,817L1835,651Z" fill="#535353" stroke="#535353" stroke-width="1.51"/><path d="M1582,409L1609,577L1802,390Z" fill="#727272" stroke="#727272" stroke-width="1.51"/><path d="M1642,836L1601,937L1802,1005Z" fill="#4a4a4a" stroke="#4a4a4a" stroke-width="1.51"/><path d="M1648,691L1642,836L1818,817Z" fill="#545454" stroke="#545454" stroke-width="1.51"/><path d="M1596,245L1802,390L1828,277Z" fill="#787878" stroke="#787878" stroke-width="1.51"/><path d="M1751,124L1596,245L1828,277Z" fill="#7f7f7f" stroke="#7f7f7f" stroke-width="1.51"/><path d="M1802,1005L1624,1174L1829,1111Z" fill="#333333" stroke="#333333" stroke-width="1.51"/><path d="M1683,-167L1743,-78L1806,-196Z" fill="#8f8f8f" stroke="#8f8f8f" stroke-width="1.51"/><path d="M1609,577L1648,691L1820,594Z" fill="#616161" stroke="#616161" stroke-width="1.51"/><path d="M1596,245L1582,409L1802,390Z" fill="#7b7b7b" stroke="#7b7b7b" stroke-width="1.51"/><path d="M1601,937L1624,1174L1802,1005Z" fill="#3f3f3f" stroke="#3f3f3f" stroke-width="1.51"/><path d="M1601,937L1535,1109L1624,1174Z" fill="#424242" stroke="#424242" stroke-width="1.51"/><path d="M1624,1174L1641,1275L1743,1259Z" fill="#2d2d2d" stroke="#2d2d2d" stroke-width="1.51"/><path d="M1585,-78L1621,133L1743,-78Z" fill="#929292" stroke="#929292" stroke-width="1.51"/><path d="M1743,-78L1621,133L1751,124Z" fill="#8a8a8a" stroke="#8a8a8a" stroke-width="1.51"/><path d="M1621,133L1596,245L1751,124Z" fill="#888888" stroke="#888888" stroke-width="1.51"/><path d="M1683,-167L1585,-78L1743,-78Z" fill="#959595" stroke="#959595" stroke-width="1.51"/><path d="M1346,1286L1145,1345L1530,1329Z" fill="#393939" stroke="#393939" stroke-width="1.51"/><path d="M1534,359L1582,409L1596,245Z" fill="#848484" stroke="#848484" stroke-width="1.51"/><path d="M1582,409L1540,512L1609,577Z" fill="#757575" stroke="#757575" stroke-width="1.51"/><path d="M1490,-172L1585,-78L1683,-167Z" fill="#9d9d9d" stroke="#9d9d9d" stroke-width="1.51"/><path d="M1585,-78L1480,134L1621,133Z" fill="#969696" stroke="#969696" stroke-width="1.51"/><path d="M1624,1174L1530,1329L1641,1275Z" fill="#303030" stroke="#303030" stroke-width="1.51"/><path d="M1504,879L1601,937L1642,836Z" fill="#555555" stroke="#555555" stroke-width="1.51"/><path d="M1473,679L1504,879L1642,836Z" fill="#5f5f5f" stroke="#5f5f5f" stroke-width="1.51"/><path d="M1473,679L1642,836L1648,691Z" fill="#616161" stroke="#616161" stroke-width="1.51"/><path d="M1609,577L1473,679L1648,691Z" fill="#686868" stroke="#686868" stroke-width="1.51"/><path d="M1454,-101L1480,134L1585,-78Z" fill="#9d9d9d" stroke="#9d9d9d" stroke-width="1.51"/><path d="M1442,954L1535,1109L1601,937Z" fill="#4e4e4e" stroke="#4e4e4e" stroke-width="1.51"/><path d="M1480,134L1596,245L1621,133Z" fill="#8f8f8f" stroke="#8f8f8f" stroke-width="1.51"/><path d="M1535,1109L1530,1329L1624,1174Z" fill="#373737" stroke="#373737" stroke-width="1.51"/><path d="M1540,512L1473,679L1609,577Z" fill="#707070" stroke="#707070" stroke-width="1.51"/><path d="M1454,257L1534,359L1596,245Z" fill="#8a8a8a" stroke="#8a8a8a" stroke-width="1.51"/><path d="M1480,134L1454,257L1596,245Z" fill="#909090" stroke="#909090" stroke-width="1.51"/><path d="M1504,879L1442,954L1601,937Z" fill="#575757" stroke="#575757" stroke-width="1.51"/><path d="M1380,1114L1346,1286L1530,1329Z" fill="#3b3b3b" stroke="#3b3b3b" stroke-width="1.51"/><path d="M1380,1114L1530,1329L1535,1109Z" fill="#3c3c3c" stroke="#3c3c3c" stroke-width="1.51"/><path d="M1534,359L1540,512L1582,409Z" fill="#7e7e7e" stroke="#7e7e7e" stroke-width="1.51"/><path d="M1490,-172L1454,-101L1585,-78Z" fill="#a1a1a1" stroke="#a1a1a1" stroke-width="1.51"/><path d="M1454,-101L1325,-28L1480,134Z" fill="#a1a1a1" stroke="#a1a1a1" stroke-width="1.51"/><path d="M1442,954L1380,1114L1535,1109Z" fill="#4c4c4c" stroke="#4c4c4c" stroke-width="1.51"/><path d="M1357,635L1473,679L1540,512Z" fill="#737373" stroke="#737373" stroke-width="1.51"/><path d="M1312,570L1357,635L1540,512Z" fill="#797979" stroke="#797979" stroke-width="1.51"/><path d="M1534,359L1352,338L1540,512Z" fill="#848484" stroke="#848484" stroke-width="1.51"/><path d="M1352,338L1312,570L1540,512Z" fill="#828282" stroke="#828282" stroke-width="1.51"/><path d="M1454,257L1374,292L1534,359Z" fill="#8d8d8d" stroke="#8d8d8d" stroke-width="1.51"/><path d="M1374,292L1352,338L1534,359Z" fill="#8e8e8e" stroke="#8e8e8e" stroke-width="1.51"/><path d="M1473,679L1287,882L1504,879Z" fill="#646464" stroke="#646464" stroke-width="1.51"/><path d="M1007,-244L1217,-200L1322,-230Z" fill="#b9b9b9" stroke="#b9b9b9" stroke-width="1.51"/><path d="M1357,635L1287,882L1473,679Z" fill="#6d6d6d" stroke="#6d6d6d" stroke-width="1.51"/><path d="M1325,-28L1347,142L1480,134Z" fill="#9f9f9f" stroke="#9f9f9f" stroke-width="1.51"/><path d="M1287,882L1442,954L1504,879Z" fill="#5d5d5d" stroke="#5d5d5d" stroke-width="1.51"/><path d="M1347,142L1454,257L1480,134Z" fill="#979797" stroke="#979797" stroke-width="1.51"/><path d="M1322,-230L1454,-101L1490,-172Z" fill="#a8a8a8" stroke="#a8a8a8" stroke-width="1.51"/><path d="M1287,882L1340,963L1442,954Z" fill="#5e5e5e" stroke="#5e5e5e" stroke-width="1.51"/><path d="M1340,963L1380,1114L1442,954Z" fill="#555555" stroke="#555555" stroke-width="1.51"/><path d="M1322,-230L1325,-28L1454,-101Z" fill="#aaaaaa" stroke="#aaaaaa" stroke-width="1.51"/><path d="M1347,142L1374,292L1454,257Z" fill="#969696" stroke="#969696" stroke-width="1.51"/><path d="M1322,-230L1217,-200L1325,-28Z" fill="#b0b0b0" stroke="#b0b0b0" stroke-width="1.51"/><path d="M1325,-28L1216,36L1347,142Z" fill="#a7a7a7" stroke="#a7a7a7" stroke-width="1.51"/><path d="M1136,337L1239,563L1352,338Z" fill="#919191" stroke="#919191" stroke-width="1.51"/><path d="M1239,563L1312,570L1352,338Z" fill="#868686" stroke="#868686" stroke-width="1.51"/><path d="M1188,675L1287,882L1357,635Z" fill="#737373" stroke="#737373" stroke-width="1.51"/><path d="M1347,142L1231,282L1374,292Z" fill="#9a9a9a" stroke="#9a9a9a" stroke-width="1.51"/><path d="M1340,963L1147,1030L1380,1114Z" fill="#575757" stroke="#575757" stroke-width="1.51"/><path d="M1147,1030L1206,1177L1380,1114Z" fill="#515151" stroke="#515151" stroke-width="1.51"/><path d="M1206,1177L1346,1286L1380,1114Z" fill="#454545" stroke="#454545" stroke-width="1.51"/><path d="M1231,282L1136,337L1352,338Z" fill="#999999" stroke="#999999" stroke-width="1.51"/><path d="M1231,282L1352,338L1374,292Z" fill="#959595" stroke="#959595" stroke-width="1.51"/><path d="M1312,570L1188,675L1357,635Z" fill="#7b7b7b" stroke="#7b7b7b" stroke-width="1.51"/><path d="M1239,563L1188,675L1312,570Z" fill="#808080" stroke="#808080" stroke-width="1.51"/><path d="M1217,-200L1144,-50L1325,-28Z" fill="#b2b2b2" stroke="#b2b2b2" stroke-width="1.51"/><path d="M1216,36L1231,282L1347,142Z" fill="#a2a2a2" stroke="#a2a2a2" stroke-width="1.51"/><path d="M1206,1177L1145,1345L1346,1286Z" fill="#434343" stroke="#434343" stroke-width="1.51"/><path d="M1188,675L1129,840L1287,882Z" fill="#727272" stroke="#727272" stroke-width="1.51"/><path d="M1287,882L1147,1030L1340,963Z" fill="#626262" stroke="#626262" stroke-width="1.51"/><path d="M1144,-50L1216,36L1325,-28Z" fill="#aeaeae" stroke="#aeaeae" stroke-width="1.51"/><path d="M1216,36L1057,80L1231,282Z" fill="#aaaaaa" stroke="#aaaaaa" stroke-width="1.51"/><path d="M1057,80L1074,273L1231,282Z" fill="#a7a7a7" stroke="#a7a7a7" stroke-width="1.51"/><path d="M1136,337L1049,524L1239,563Z" fill="#919191" stroke="#919191" stroke-width="1.51"/><path d="M1129,840L1147,1030L1287,882Z" fill="#696969" stroke="#696969" stroke-width="1.51"/><path d="M1062,1288L1145,1345L1206,1177Z" fill="#474747" stroke="#474747" stroke-width="1.51"/><path d="M1147,1030L1081,1109L1206,1177Z" fill="#565656" stroke="#565656" stroke-width="1.51"/><path d="M1055,638L1188,675L1239,563Z" fill="#828282" stroke="#828282" stroke-width="1.51"/><path d="M1049,524L1055,638L1239,563Z" fill="#8a8a8a" stroke="#8a8a8a" stroke-width="1.51"/><path d="M1062,1288L771,1313L1145,1345Z" fill="#4b4b4b" stroke="#4b4b4b" stroke-width="1.51"/><path d="M1074,273L1136,337L1231,282Z" fill="#a0a0a0" stroke="#a0a0a0" stroke-width="1.51"/><path d="M1129,840L1029,942L1147,1030Z" fill="#6c6c6c" stroke="#6c6c6c" stroke-width="1.51"/><path d="M1007,-244L1144,-50L1217,-200Z" fill="#bbbbbb" stroke="#bbbbbb" stroke-width="1.51"/><path d="M1144,-50L1057,80L1216,36Z" fill="#b2b2b2" stroke="#b2b2b2" stroke-width="1.51"/><path d="M1055,638L1129,840L1188,675Z" fill="#7d7d7d" stroke="#7d7d7d" stroke-width="1.51"/><path d="M1081,1109L1062,1288L1206,1177Z" fill="#4f4f4f" stroke="#4f4f4f" stroke-width="1.51"/><path d="M615,-259L770,-199L1007,-244Z" fill="#d2d2d2" stroke="#d2d2d2" stroke-width="1.51"/><path d="M1055,638L1026,822L1129,840Z" fill="#7c7c7c" stroke="#7c7c7c" stroke-width="1.51"/><path d="M984,443L1049,524L1136,337Z" fill="#9a9a9a" stroke="#9a9a9a" stroke-width="1.51"/><path d="M1007,-244L1052,-26L1144,-50Z" fill="#bcbcbc" stroke="#bcbcbc" stroke-width="1.51"/><path d="M1052,-26L1057,80L1144,-50Z" fill="#b6b6b6" stroke="#b6b6b6" stroke-width="1.51"/><path d="M1029,942L1081,1109L1147,1030Z" fill="#636363" stroke="#636363" stroke-width="1.51"/><path d="M1026,822L1029,942L1129,840Z" fill="#747474" stroke="#747474" stroke-width="1.51"/><path d="M1074,273L984,443L1136,337Z" fill="#a2a2a2" stroke="#a2a2a2" stroke-width="1.51"/><path d="M1007,-244L907,-91L1052,-26Z" fill="#c2c2c2" stroke="#c2c2c2" stroke-width="1.51"/><path d="M895,783L1026,822L1055,638Z" fill="#828282" stroke="#828282" stroke-width="1.51"/><path d="M848,1238L771,1313L1062,1288Z" fill="#535353" stroke="#535353" stroke-width="1.51"/><path d="M850,1143L848,1238L1062,1288Z" fill="#575757" stroke="#575757" stroke-width="1.51"/><path d="M916,289L984,443L1074,273Z" fill="#a7a7a7" stroke="#a7a7a7" stroke-width="1.51"/><path d="M1057,80L910,87L1074,273Z" fill="#b2b2b2" stroke="#b2b2b2" stroke-width="1.51"/><path d="M910,87L916,289L1074,273Z" fill="#b1b1b1" stroke="#b1b1b1" stroke-width="1.51"/><path d="M1029,942L879,975L1081,1109Z" fill="#6a6a6a" stroke="#6a6a6a" stroke-width="1.51"/><path d="M879,975L850,1143L1081,1109Z" fill="#656565" stroke="#656565" stroke-width="1.51"/><path d="M850,1143L1062,1288L1081,1109Z" fill="#575757" stroke="#575757" stroke-width="1.51"/><path d="M871,647L895,783L1055,638Z" fill="#8a8a8a" stroke="#8a8a8a" stroke-width="1.51"/><path d="M1049,524L905,528L1055,638Z" fill="#919191" stroke="#919191" stroke-width="1.51"/><path d="M1052,-26L910,87L1057,80Z" fill="#b8b8b8" stroke="#b8b8b8" stroke-width="1.51"/><path d="M916,289L885,364L984,443Z" fill="#a8a8a8" stroke="#a8a8a8" stroke-width="1.51"/><path d="M770,-199L830,-181L1007,-244Z" fill="#cdcdcd" stroke="#cdcdcd" stroke-width="1.51"/><path d="M905,528L871,647L1055,638Z" fill="#919191" stroke="#919191" stroke-width="1.51"/><path d="M907,-91L910,87L1052,-26Z" fill="#bebebe" stroke="#bebebe" stroke-width="1.51"/><path d="M984,443L905,528L1049,524Z" fill="#999999" stroke="#999999" stroke-width="1.51"/><path d="M895,783L879,975L1026,822Z" fill="#7c7c7c" stroke="#7c7c7c" stroke-width="1.51"/><path d="M1026,822L879,975L1029,942Z" fill="#757575" stroke="#757575" stroke-width="1.51"/><path d="M830,-181L907,-91L1007,-244Z" fill="#c9c9c9" stroke="#c9c9c9" stroke-width="1.51"/><path d="M885,364L905,528L984,443Z" fill="#a1a1a1" stroke="#a1a1a1" stroke-width="1.51"/><path d="M767,855L879,975L895,783Z" fill="#818181" stroke="#818181" stroke-width="1.51"/><path d="M885,364L783,514L905,528Z" fill="#a3a3a3" stroke="#a3a3a3" stroke-width="1.51"/><path d="M783,514L871,647L905,528Z" fill="#9b9b9b" stroke="#9b9b9b" stroke-width="1.51"/><path d="M701,-22L738,84L907,-91Z" fill="#cacaca" stroke="#cacaca" stroke-width="1.51"/><path d="M738,84L769,273L910,87Z" fill="#c0c0c0" stroke="#c0c0c0" stroke-width="1.51"/><path d="M907,-91L738,84L910,87Z" fill="#c4c4c4" stroke="#c4c4c4" stroke-width="1.51"/><path d="M910,87L769,273L916,289Z" fill="#b7b7b7" stroke="#b7b7b7" stroke-width="1.51"/><path d="M769,273L885,364L916,289Z" fill="#b1b1b1" stroke="#b1b1b1" stroke-width="1.51"/><path d="M711,1014L850,1143L879,975Z" fill="#717171" stroke="#717171" stroke-width="1.51"/><path d="M871,647L704,695L895,783Z" fill="#909090" stroke="#909090" stroke-width="1.51"/><path d="M830,-181L701,-22L907,-91Z" fill="#cccccc" stroke="#cccccc" stroke-width="1.51"/><path d="M697,385L783,514L885,364Z" fill="#acacac" stroke="#acacac" stroke-width="1.51"/><path d="M704,695L767,855L895,783Z" fill="#8c8c8c" stroke="#8c8c8c" stroke-width="1.51"/><path d="M711,1014L749,1147L850,1143Z" fill="#6d6d6d" stroke="#6d6d6d" stroke-width="1.51"/><path d="M769,273L697,385L885,364Z" fill="#b4b4b4" stroke="#b4b4b4" stroke-width="1.51"/><path d="M767,855L711,1014L879,975Z" fill="#7e7e7e" stroke="#7e7e7e" stroke-width="1.51"/><path d="M770,-199L701,-22L830,-181Z" fill="#d1d1d1" stroke="#d1d1d1" stroke-width="1.51"/><path d="M783,514L704,695L871,647Z" fill="#9a9a9a" stroke="#9a9a9a" stroke-width="1.51"/><path d="M749,1147L848,1238L850,1143Z" fill="#616161" stroke="#616161" stroke-width="1.51"/><path d="M749,1147L771,1313L848,1238Z" fill="#5e5e5e" stroke="#5e5e5e" stroke-width="1.51"/><path d="M704,695L608,816L767,855Z" fill="#929292" stroke="#929292" stroke-width="1.51"/><path d="M625,938L711,1014L767,855Z" fill="#858585" stroke="#858585" stroke-width="1.51"/><path d="M738,84L613,101L769,273Z" fill="#c6c6c6" stroke="#c6c6c6" stroke-width="1.51"/><path d="M613,101L541,238L769,273Z" fill="#c7c7c7" stroke="#c7c7c7" stroke-width="1.51"/><path d="M615,-259L701,-22L770,-199Z" fill="#d7d7d7" stroke="#d7d7d7" stroke-width="1.51"/><path d="M749,1147L594,1318L771,1313Z" fill="#616161" stroke="#616161" stroke-width="1.51"/><path d="M576,565L704,695L783,514Z" fill="#a3a3a3" stroke="#a3a3a3" stroke-width="1.51"/><path d="M697,385L576,565L783,514Z" fill="#adadad" stroke="#adadad" stroke-width="1.51"/><path d="M604,1116L594,1318L749,1147Z" fill="#696969" stroke="#696969" stroke-width="1.51"/><path d="M600,366L697,385L769,273Z" fill="#bababa" stroke="#bababa" stroke-width="1.51"/><path d="M541,238L600,366L769,273Z" fill="#c1c1c1" stroke="#c1c1c1" stroke-width="1.51"/><path d="M711,1014L604,1116L749,1147Z" fill="#727272" stroke="#727272" stroke-width="1.51"/><path d="M608,816L625,938L767,855Z" fill="#8c8c8c" stroke="#8c8c8c" stroke-width="1.51"/><path d="M615,-259L546,-18L701,-22Z" fill="#d9d9d9" stroke="#d9d9d9" stroke-width="1.51"/><path d="M242,-237L416,-190L615,-259Z" fill="#e7e7e7" stroke="#e7e7e7" stroke-width="1.51"/><path d="M600,366L576,565L697,385Z" fill="#b4b4b4" stroke="#b4b4b4" stroke-width="1.51"/><path d="M701,-22L613,101L738,84Z" fill="#cdcdcd" stroke="#cdcdcd" stroke-width="1.51"/><path d="M539,706L608,816L704,695Z" fill="#9a9a9a" stroke="#9a9a9a" stroke-width="1.51"/><path d="M576,565L539,706L704,695Z" fill="#a1a1a1" stroke="#a1a1a1" stroke-width="1.51"/><path d="M625,938L604,1116L711,1014Z" fill="#7d7d7d" stroke="#7d7d7d" stroke-width="1.51"/><path d="M546,-18L613,101L701,-22Z" fill="#d3d3d3" stroke="#d3d3d3" stroke-width="1.51"/><path d="M396,540L576,565L600,366Z" fill="#b4b4b4" stroke="#b4b4b4" stroke-width="1.51"/><path d="M382,384L396,540L600,366Z" fill="#bdbdbd" stroke="#bdbdbd" stroke-width="1.51"/><path d="M418,1253L594,1318L604,1116Z" fill="#6b6b6b" stroke="#6b6b6b" stroke-width="1.51"/><path d="M546,-18L485,43L613,101Z" fill="#d4d4d4" stroke="#d4d4d4" stroke-width="1.51"/><path d="M416,-190L546,-18L615,-259Z" fill="#dfdfdf" stroke="#dfdfdf" stroke-width="1.51"/><path d="M421,1036L604,1116L625,938Z" fill="#808080" stroke="#808080" stroke-width="1.51"/><path d="M608,816L480,813L625,938Z" fill="#919191" stroke="#919191" stroke-width="1.51"/><path d="M480,813L421,1036L625,938Z" fill="#8e8e8e" stroke="#8e8e8e" stroke-width="1.51"/><path d="M418,1253L323,1341L594,1318Z" fill="#686868" stroke="#686868" stroke-width="1.51"/><path d="M539,706L480,813L608,816Z" fill="#9a9a9a" stroke="#9a9a9a" stroke-width="1.51"/><path d="M485,43L541,238L613,101Z" fill="#d0d0d0" stroke="#d0d0d0" stroke-width="1.51"/><path d="M382,1092L418,1253L604,1116Z" fill="#757575" stroke="#757575" stroke-width="1.51"/><path d="M416,-190L450,-18L546,-18Z" fill="#dfdfdf" stroke="#dfdfdf" stroke-width="1.51"/><path d="M421,1036L382,1092L604,1116Z" fill="#7e7e7e" stroke="#7e7e7e" stroke-width="1.51"/><path d="M541,238L382,384L600,366Z" fill="#c4c4c4" stroke="#c4c4c4" stroke-width="1.51"/><path d="M388,274L382,384L541,238Z" fill="#cacaca" stroke="#cacaca" stroke-width="1.51"/><path d="M396,540L539,706L576,565Z" fill="#ababab" stroke="#ababab" stroke-width="1.51"/><path d="M441,738L480,813L539,706Z" fill="#9e9e9e" stroke="#9e9e9e" stroke-width="1.51"/><path d="M396,540L441,738L539,706Z" fill="#a8a8a8" stroke="#a8a8a8" stroke-width="1.51"/><path d="M485,43L388,274L541,238Z" fill="#d0d0d0" stroke="#d0d0d0" stroke-width="1.51"/><path d="M450,-18L485,43L546,-18Z" fill="#d9d9d9" stroke="#d9d9d9" stroke-width="1.51"/><path d="M312,55L320,245L388,274Z" fill="#d5d5d5" stroke="#d5d5d5" stroke-width="1.51"/><path d="M319,595L333,682L396,540Z" fill="#b2b2b2" stroke="#b2b2b2" stroke-width="1.51"/><path d="M396,540L333,682L441,738Z" fill="#acacac" stroke="#acacac" stroke-width="1.51"/><path d="M234,831L276,944L480,813Z" fill="#9b9b9b" stroke="#9b9b9b" stroke-width="1.51"/><path d="M276,944L421,1036L480,813Z" fill="#939393" stroke="#939393" stroke-width="1.51"/><path d="M450,-18L312,55L485,43Z" fill="#dcdcdc" stroke="#dcdcdc" stroke-width="1.51"/><path d="M312,55L388,274L485,43Z" fill="#d7d7d7" stroke="#d7d7d7" stroke-width="1.51"/><path d="M382,1092L333,1127L418,1253Z" fill="#787878" stroke="#787878" stroke-width="1.51"/><path d="M441,738L234,831L480,813Z" fill="#9f9f9f" stroke="#9f9f9f" stroke-width="1.51"/><path d="M333,682L234,831L441,738Z" fill="#a5a5a5" stroke="#a5a5a5" stroke-width="1.51"/><path d="M416,-190L259,-63L450,-18Z" fill="#e4e4e4" stroke="#e4e4e4" stroke-width="1.51"/><path d="M259,-63L312,55L450,-18Z" fill="#e1e1e1" stroke="#e1e1e1" stroke-width="1.51"/><path d="M382,384L264,407L396,540Z" fill="#c1c1c1" stroke="#c1c1c1" stroke-width="1.51"/><path d="M242,-237L259,-63L416,-190Z" fill="#e9e9e9" stroke="#e9e9e9" stroke-width="1.51"/><path d="M276,944L382,1092L421,1036Z" fill="#8a8a8a" stroke="#8a8a8a" stroke-width="1.51"/><path d="M333,1127L323,1341L418,1253Z" fill="#717171" stroke="#717171" stroke-width="1.51"/><path d="M168,1239L323,1341L333,1127Z" fill="#757575" stroke="#757575" stroke-width="1.51"/><path d="M320,245L264,407L382,384Z" fill="#cbcbcb" stroke="#cbcbcb" stroke-width="1.51"/><path d="M276,944L333,1127L382,1092Z" fill="#878787" stroke="#878787" stroke-width="1.51"/><path d="M320,245L382,384L388,274Z" fill="#cdcdcd" stroke="#cdcdcd" stroke-width="1.51"/><path d="M264,407L319,595L396,540Z" fill="#bbbbbb" stroke="#bbbbbb" stroke-width="1.51"/><path d="M121,962L126,1140L276,944Z" fill="#919191" stroke="#919191" stroke-width="1.51"/><path d="M264,407L118,588L319,595Z" fill="#bdbdbd" stroke="#bdbdbd" stroke-width="1.51"/><path d="M312,55L160,141L320,245Z" fill="#dbdbdb" stroke="#dbdbdb" stroke-width="1.51"/><path d="M160,141L165,230L320,245Z" fill="#d9d9d9" stroke="#d9d9d9" stroke-width="1.51"/><path d="M165,230L264,407L320,245Z" fill="#d1d1d1" stroke="#d1d1d1" stroke-width="1.51"/><path d="M168,1239L12,1303L323,1341Z" fill="#737373" stroke="#737373" stroke-width="1.51"/><path d="M319,595L161,726L333,682Z" fill="#afafaf" stroke="#afafaf" stroke-width="1.51"/><path d="M161,726L234,831L333,682Z" fill="#a9a9a9" stroke="#a9a9a9" stroke-width="1.51"/><path d="M276,944L126,1140L333,1127Z" fill="#888888" stroke="#888888" stroke-width="1.51"/><path d="M126,1140L168,1239L333,1127Z" fill="#7d7d7d" stroke="#7d7d7d" stroke-width="1.51"/><path d="M118,588L161,726L319,595Z" fill="#b4b4b4" stroke="#b4b4b4" stroke-width="1.51"/><path d="M259,-63L160,141L312,55Z" fill="#e2e2e2" stroke="#e2e2e2" stroke-width="1.51"/><path d="M90,-20L160,141L259,-63Z" fill="#e6e6e6" stroke="#e6e6e6" stroke-width="1.51"/><path d="M242,-237L104,-252L259,-63Z" fill="#eeeeee" stroke="#eeeeee" stroke-width="1.51"/><path d="M104,-252L90,-20L259,-63Z" fill="#ededed" stroke="#ededed" stroke-width="1.51"/><path d="M165,230L95,403L264,407Z" fill="#d1d1d1" stroke="#d1d1d1" stroke-width="1.51"/><path d="M95,403L118,588L264,407Z" fill="#c5c5c5" stroke="#c5c5c5" stroke-width="1.51"/><path d="M234,831L121,962L276,944Z" fill="#9b9b9b" stroke="#9b9b9b" stroke-width="1.51"/><path d="M83,811L121,962L234,831Z" fill="#a1a1a1" stroke="#a1a1a1" stroke-width="1.51"/><path d="M161,726L83,811L234,831Z" fill="#a8a8a8" stroke="#a8a8a8" stroke-width="1.51"/><path d="M-162,-171L-22,-177L104,-252Z" fill="#f6f6f6" stroke="#f6f6f6" stroke-width="1.51"/><path d="M-19,-104L90,-20L104,-252Z" fill="#f1f1f1" stroke="#f1f1f1" stroke-width="1.51"/><path d="M-22,-177L-19,-104L104,-252Z" fill="#f4f4f4" stroke="#f4f4f4" stroke-width="1.51"/><path d="M95,403L4,501L118,588Z" fill="#c6c6c6" stroke="#c6c6c6" stroke-width="1.51"/><path d="M121,962L-17,1016L126,1140Z" fill="#919191" stroke="#919191" stroke-width="1.51"/><path d="M90,-20L-21,49L160,141Z" fill="#e8e8e8" stroke="#e8e8e8" stroke-width="1.51"/><path d="M118,588L21,793L161,726Z" fill="#b2b2b2" stroke="#b2b2b2" stroke-width="1.51"/><path d="M160,141L-68,287L165,230Z" fill="#dddddd" stroke="#dddddd" stroke-width="1.51"/><path d="M-68,287L95,403L165,230Z" fill="#d8d8d8" stroke="#d8d8d8" stroke-width="1.51"/><path d="M126,1140L12,1303L168,1239Z" fill="#7b7b7b" stroke="#7b7b7b" stroke-width="1.51"/><path d="M-21,49L-68,287L160,141Z" fill="#e3e3e3" stroke="#e3e3e3" stroke-width="1.51"/><path d="M-60,634L21,793L118,588Z" fill="#b7b7b7" stroke="#b7b7b7" stroke-width="1.51"/><path d="M21,793L83,811L161,726Z" fill="#acacac" stroke="#acacac" stroke-width="1.51"/><path d="M-68,287L-30,412L95,403Z" fill="#d5d5d5" stroke="#d5d5d5" stroke-width="1.51"/><path d="M83,811L21,793L121,962Z" fill="#a5a5a5" stroke="#a5a5a5" stroke-width="1.51"/><path d="M21,793L-17,1016L121,962Z" fill="#a0a0a0" stroke="#a0a0a0" stroke-width="1.51"/><path d="M-58,1110L12,1303L126,1140Z" fill="#818181" stroke="#818181" stroke-width="1.51"/><path d="M-17,1016L-58,1110L126,1140Z" fill="#8d8d8d" stroke="#8d8d8d" stroke-width="1.51"/><path d="M4,501L-60,634L118,588Z" fill="#c0c0c0" stroke="#c0c0c0" stroke-width="1.51"/><path d="M-30,412L4,501L95,403Z" fill="#cdcdcd" stroke="#cdcdcd" stroke-width="1.51"/><path d="M-126,855L-17,1016L21,793Z" fill="#a5a5a5" stroke="#a5a5a5" stroke-width="1.51"/><path d="M-19,-104L-21,49L90,-20Z" fill="#eeeeee" stroke="#eeeeee" stroke-width="1.51"/><path d="M-172,664L-126,855L-60,634Z" fill="#b6b6b6" stroke="#b6b6b6" stroke-width="1.51"/><path d="M-130,72L-68,287L-21,49Z" fill="#e7e7e7" stroke="#e7e7e7" stroke-width="1.51"/><path d="M-126,-36L-21,49L-19,-104Z" fill="#f0f0f0" stroke="#f0f0f0" stroke-width="1.51"/><path d="M-126,855L-110,1002L-17,1016Z" fill="#a0a0a0" stroke="#a0a0a0" stroke-width="1.51"/><path d="M-58,1110L-179,1192L12,1303Z" fill="#828282" stroke="#828282" stroke-width="1.51"/><path d="M-179,1192L-186,1305L12,1303Z" fill="#7d7d7d" stroke="#7d7d7d" stroke-width="1.51"/><path d="M-60,634L-126,855L21,793Z" fill="#b1b1b1" stroke="#b1b1b1" stroke-width="1.51"/><path d="M-202,595L-60,634L4,501Z" fill="#c2c2c2" stroke="#c2c2c2" stroke-width="1.51"/><path d="M-30,412L-204,412L4,501Z" fill="#cfcfcf" stroke="#cfcfcf" stroke-width="1.51"/><path d="M-204,412L-202,595L4,501Z" fill="#cacaca" stroke="#cacaca" stroke-width="1.51"/><path d="M-130,72L-206,267L-68,287Z" fill="#e4e4e4" stroke="#e4e4e4" stroke-width="1.51"/><path d="M-126,-36L-130,72L-21,49Z" fill="#eeeeee" stroke="#eeeeee" stroke-width="1.51"/><path d="M-22,-177L-162,-171L-19,-104Z" fill="#f5f5f5" stroke="#f5f5f5" stroke-width="1.51"/><path d="M-110,1002L-58,1110L-17,1016Z" fill="#959595" stroke="#959595" stroke-width="1.51"/><path d="M-162,-171L-126,-36L-19,-104Z" fill="#f5f5f5" stroke="#f5f5f5" stroke-width="1.51"/><path d="M-68,287L-204,412L-30,412Z" fill="#d7d7d7" stroke="#d7d7d7" stroke-width="1.51"/><path d="M-206,267L-204,412L-68,287Z" fill="#dddddd" stroke="#dddddd" stroke-width="1.51"/><path d="M-202,595L-172,664L-60,634Z" fill="#bebebe" stroke="#bebebe" stroke-width="1.51"/><path d="M-110,1002L-179,1192L-58,1110Z" fill="#8e8e8e" stroke="#8e8e8e" stroke-width="1.51"/><path d="M-126,855L-179,1192L-110,1002Z" fill="#999999" stroke="#999999" stroke-width="1.51"/><path d="M-202,595L-179,1192L-172,664Z" fill="#afafaf" stroke="#afafaf" stroke-width="1.51"/><path d="M-162,-171L-206,267L-130,72Z" fill="#eeeeee" stroke="#eeeeee" stroke-width="1.51"/><path d="M-172,664L-179,1192L-126,855Z" fill="#a7a7a7" stroke="#a7a7a7" stroke-width="1.51"/><path d="M-162,-171L-130,72L-126,-36Z" fill="#f3f3f3" stroke="#f3f3f3" stroke-width="1.51"/><path d="M-202,595L-186,1305L-179,1192Z" fill="#989898" stroke="#989898" stroke-width="1.51"/></svg>