<svg xmlns="http://www.w3.org/2000/svg" width="1920" height="1080"><path d="M771,1313L594,1318L1145,1345Z" fill="#a695a5" stroke="#a695a5" stroke-width="1.51"/><path d="M594,1318L323,1341L1145,1345Z" fill="#a68997" stroke="#a68997" stroke-width="1.51"/><path d="M1322,-230L1490,-172L1683,-167Z" fill="#c58280" stroke="#c58280" stroke-width="1.51"/><path d="M1322,-230L1683,-167L1806,-196Z" fill="#b9797c" stroke="#b9797c" stroke-width="1.51"/><path d="M1322,-230L1806,-196L1896,-199Z" fill="#b07178" stroke="#b07178" stroke-width="1.51"/><path d="M1943,1241L1743,1259L2052,1275Z" fill="#446baf" stroke="#446baf" stroke-width="1.51"/><path d="M1743,1259L1530,1329L2052,1275Z" fill="#5174b5" stroke="#5174b5" stroke-width="1.51"/><path d="M1976,116L2054,277L2067,77Z" fill="#ad7683" stroke="#ad7683" stroke-width="1.51"/><path d="M2029,839L1990,934L2090,996Z" fill="#6f8ec3" stroke="#6f8ec3" stroke-width="1.51"/><path d="M2062,1111L2052,1275L2090,996Z" fill="#4c6db1" stroke="#4c6db1" stroke-width="1.51"/><path d="M2067,77L2054,277L2103,360Z" fill="#ab7e89" stroke="#ab7e89" stroke-width="1.51"/><path d="M2067,77L2103,360L2109,-97Z" fill="#aa667b" stroke="#aa667b" stroke-width="1.51"/><path d="M1985,830L2029,839L2139,736Z" fill="#8298c9" stroke="#8298c9" stroke-width="1.51"/><path d="M1915,738L1985,830L2139,736Z" fill="#899fcd" stroke="#899fcd" stroke-width="1.51"/><path d="M2062,524L1915,738L2139,736Z" fill="#98a2c9" stroke="#98a2c9" stroke-width="1.51"/><path d="M2090,996L2052,1275L2139,736Z" fill="#5f7dba" stroke="#5f7dba" stroke-width="1.51"/><path d="M2029,839L2090,996L2139,736Z" fill="#788fc5" stroke="#788fc5" stroke-width="1.51"/><path d="M2103,360L2062,524L2139,736Z" fill="#a59db1" stroke="#a59db1" stroke-width="1.51"/><path d="M2109,-97L2103,360L2139,736Z" fill="#a78594" stroke="#a78594" stroke-width="1.51"/><path d="M1641,1275L1530,1329L1743,1259Z" fill="#6083bd" stroke="#6083bd" stroke-width="1.51"/><path d="M1943,1241L2052,1275L2062,1111Z" fill="#4266ad" stroke="#4266ad" stroke-width="1.51"/><path d="M1921,367L2062,524L2103,360Z" fill="#aa9ca4" stroke="#aa9ca4" stroke-width="1.51"/><path d="M2101,-170L1893,-112L2109,-97Z" fill="#a04967" stroke="#a04967" stroke-width="1.51"/><path d="M1893,-112L2067,77L2109,-97Z" fill="#a7576f" stroke="#a7576f" stroke-width="1.51"/><path d="M1921,367L1907,491L2062,524Z" fill="#abaaae" stroke="#abaaae" stroke-width="1.51"/><path d="M1893,-112L1976,116L2067,77Z" fill="#ae6878" stroke="#ae6878" stroke-width="1.51"/><path d="M2054,277L1921,367L2103,360Z" fill="#ab9399" stroke="#ab9399" stroke-width="1.51"/><path d="M1896,-199L1893,-112L2101,-170Z" fill="#9f526a" stroke="#9f526a" stroke-width="1.51"/><path d="M1976,116L1926,228L2054,277Z" fill="#b0868a" stroke="#b0868a" stroke-width="1.51"/><path d="M1835,651L1915,738L2062,524Z" fill="#9fb1ca" stroke="#9fb1ca" stroke-width="1.51"/><path d="M1907,491L1835,651L2062,524Z" fill="#a9b4bd" stroke="#a9b4bd" stroke-width="1.51"/><path d="M1990,934L2062,1111L2090,996Z" fill="#5e82bc" stroke="#5e82bc" stroke-width="1.51"/><path d="M1990,934L1883,1118L2062,1111Z" fill="#5a85bd" stroke="#5a85bd" stroke-width="1.51"/><path d="M1883,1118L1943,1241L2062,1111Z" fill="#4b76b6" stroke="#4b76b6" stroke-width="1.51"/><path d="M1926,228L1921,367L2054,277Z" fill="#ae9697" stroke="#ae9697" stroke-width="1.51"/><path d="M1820,594L1835,651L1907,491Z" fill="#adbec6" stroke="#adbec6" stroke-width="1.51"/><path d="M1985,830L1990,934L2029,839Z" fill="#799aca" stroke="#799aca" stroke-width="1.51"/><path d="M1893,-112L1751,124L1976,116Z" fill="#b77980" stroke="#b77980" stroke-width="1.51"/><path d="M1802,1005L1883,1118L1990,934Z" fill="#6396c5" stroke="#6396c5" stroke-width="1.51"/><path d="M1985,830L1818,817L1990,934Z" fill="#7ca5cf" stroke="#7ca5cf" stroke-width="1.51"/><path d="M1818,817L1802,1005L1990,934Z" fill="#77a5ce" stroke="#77a5ce" stroke-width="1.51"/><path d="M1915,738L1818,817L1985,830Z" fill="#89add3" stroke="#89add3" stroke-width="1.51"/><path d="M1743,-78L1751,124L1893,-112Z" fill="#b9797d" stroke="#b9797d" stroke-width="1.51"/><path d="M1751,124L1926,228L1976,116Z" fill="#b68b8a" stroke="#b68b8a" stroke-width="1.51"/><path d="M1802,390L1907,491L1921,367Z" fill="#b1b1ad" stroke="#b1b1ad" stroke-width="1.51"/><path d="M1828,277L1921,367L1926,228Z" fill="#b39f9b" stroke="#b39f9b" stroke-width="1.51"/><path d="M1883,1118L1829,1111L1943,1241Z" fill="#5080ba" stroke="#5080ba" stroke-width="1.51"/><path d="M1829,1111L1743,1259L1943,1241Z" fill="#4e7eb9" stroke="#4e7eb9" stroke-width="1.51"/><path d="M1802,1005L1829,1111L1883,1118Z" fill="#6093c4" stroke="#6093c4" stroke-width="1.51"/><path d="M1751,124L1828,277L1926,228Z" fill="#ba9b92" stroke="#ba9b92" stroke-width="1.51"/><path d="M1828,277L1802,390L1921,367Z" fill="#b5aca4" stroke="#b5aca4" stroke-width="1.51"/><path d="M1835,651L1818,817L1915,738Z" fill="#97b7d9" stroke="#97b7d9" stroke-width="1.51"/><path d="M1806,-196L1893,-112L1896,-199Z" fill="#a55e6f" stroke="#a55e6f" stroke-width="1.51"/><path d="M1802,390L1820,594L1907,491Z" fill="#b3bcb9" stroke="#b3bcb9" stroke-width="1.51"/><path d="M1806,-196L1743,-78L1893,-112Z" fill="#b06873" stroke="#b06873" stroke-width="1.51"/><path d="M12,1303L-186,1305L323,1341Z" fill="#a04667" stroke="#a04667" stroke-width="1.51"/><path d="M104,-252L242,-237L615,-259Z" fill="#d45239" stroke="#d45239" stroke-width="1.51"/><path d="M1642,836L1802,1005L1818,817Z" fill="#87b8d8" stroke="#87b8d8" stroke-width="1.51"/><path d="M1802,390L1609,577L1820,594Z" fill="#bacbc3" stroke="#bacbc3" stroke-width="1.51"/><path d="M1624,1174L1743,1259L1829,1111Z" fill="#5b8ec1" stroke="#5b8ec1" stroke-width="1.51"/><path d="M1820,594L1648,691L1835,651Z" fill="#acc6d5" stroke="#acc6d5" stroke-width="1.51"/><path d="M1648,691L1818,817L1835,651Z" fill="#a1c3df" stroke="#a1c3df" stroke-width="1.51"/><path d="M1582,409L1609,577L1802,390Z" fill="#c3cfbf" stroke="#c3cfbf" stroke-width="1.51"/><path d="M1642,836L1601,937L1802,1005Z" fill="#87bbd9" stroke="#87bbd9" stroke-width="1.51"/><path d="M1648,691L1642,836L1818,817Z" fill="#9dc7df" stroke="#9dc7df" stroke-width="1.51"/><path d="M1596,245L1802,390L1828,277Z" fill="#c0b4a5" stroke="#c0b4a5" stroke-width="1.51"/><path d="M1751,124L1596,245L1828,277Z" fill="#c3a999" stroke="#c3a999" stroke-width="1.51"/><path d="M1802,1005L1624,1174L1829,1111Z" fill="#659ac7" stroke="#659ac7" stroke-width="1.51"/><path d="M1683,-167L1743,-78L1806,-196Z" fill="#b46f76" stroke="#b46f76" stroke-width="1.51"/><path d="M1609,577L1648,691L1820,594Z" fill="#b5d1d6" stroke="#b5d1d6" stroke-width="1.51"/><path d="M1596,245L1582,409L1802,390Z" fill="#c6c4af" stroke="#c6c4af" stroke-width="1.51"/><path d="M1601,937L1624,1174L1802,1005Z" fill="#74add1" stroke="#74add1" stroke-width="1.51"/><path d="M1601,937L1535,1109L1624,1174Z" fill="#7aafd2" stroke="#7aafd2" stroke-width="1.51"/><path d="M1624,1174L1641,1275L1743,1259Z" fill="#5e8ac0" stroke="#5e8ac0" stroke-width="1.51"/><path d="M1585,-78L1621,133L1743,-78Z" fill="#c88c86" stroke="#c88c86" stroke-width="1.51"/><path d="M1743,-78L1621,133L1751,124Z" fill="#c6908a" stroke="#c6908a" stroke-width="1.51"/><path d="M1621,133L1596,245L1751,124Z" fill="#caa897" stroke="#caa897" stroke-width="1.51"/><path d="M1683,-167L1585,-78L1743,-78Z" fill="#bf7c7b" stroke="#bf7c7b" stroke-width="1.51"/><path d="M1346,1286L1145,1345L1530,1329Z" fill="#8192c6" stroke="#8192c6" stroke-width="1.51"/><path d="M1534,359L1582,409L1596,245Z" fill="#cfcbb2" stroke="#cfcbb2" stroke-width="1.51"/><path d="M1582,409L1540,512L1609,577Z" fill="#cbdbc8" stroke="#cbdbc8" stroke-width="1.51"/><path d="M1490,-172L1585,-78L1683,-167Z" fill="#c4807d" stroke="#c4807d" stroke-width="1.51"/><path d="M1585,-78L1480,134L1621,133Z" fill="#d49e91" stroke="#d49e91" stroke-width="1.51"/><path d="M1624,1174L1530,1329L1641,1275Z" fill="#668cc1" stroke="#668cc1" stroke-width="1.51"/><path d="M1504,879L1601,937L1642,836Z" fill="#99cae1" stroke="#99cae1" stroke-width="1.51"/><path d="M1473,679L1504,879L1642,836Z" fill="#acd5e7" stroke="#acd5e7" stroke-width="1.51"/><path d="M1473,679L1642,836L1648,691Z" fill="#b1d6e7" stroke="#b1d6e7" stroke-width="1.51"/><path d="M1609,577L1473,679L1648,691Z" fill="#bedbe0" stroke="#bedbe0" stroke-width="1.51"/><path d="M1454,-101L1480,134L1585,-78Z" fill="#d6988b" stroke="#d6988b" stroke-width="1.51"/><path d="M1442,954L1535,1109L1601,937Z" fill="#8cbfdb" stroke="#8cbfdb" stroke-width="1.51"/><path d="M1480,134L1596,245L1621,133Z" fill="#d3b19c" stroke="#d3b19c" stroke-width="1.51"/><path d="M1535,1109L1530,1329L1624,1174Z" fill="#6c9ac8" stroke="#6c9ac8" stroke-width="1.51"/><path d="M1540,512L1473,679L1609,577Z" fill="#c9e0d8" stroke="#c9e0d8" stroke-width="1.51"/><path d="M1454,257L1534,359L1596,245Z" fill="#d4c7ad" stroke="#d4c7ad" stroke-width="1.51"/><path d="M1480,134L1454,257L1596,245Z" fill="#d8bea3" stroke="#d8bea3" stroke-width="1.51"/><path d="M1504,879L1442,954L1601,937Z" fill="#9acbe1" stroke="#9acbe1" stroke-width="1.51"/><path d="M1380,1114L1346,1286L1530,1329Z" fill="#7c9dcb" stroke="#7c9dcb" stroke-width="1.51"/><path d="M1380,1114L1530,1329L1535,1109Z" fill="#78a4ce" stroke="#78a4ce" stroke-width="1.51"/><path d="M1534,359L1540,512L1582,409Z" fill="#cfd7c0" stroke="#cfd7c0" stroke-width="1.51"/><path d="M1490,-172L1454,-101L1585,-78Z" fill="#cf8881" stroke="#cf8881" stroke-width="1.51"/><path d="M1454,-101L1325,-28L1480,134Z" fill="#e0a190" stroke="#e0a190" stroke-width="1.51"/><path d="M1442,954L1380,1114L1535,1109Z" fill="#8cbeda" stroke="#8cbeda" stroke-width="1.51"/><path d="M1357,635L1473,679L1540,512Z" fill="#cfe8df" stroke="#cfe8df" stroke-width="1.51"/><path d="M1312,570L1357,635L1540,512Z" fill="#d9eddb" stroke="#d9eddb" stroke-width="1.51"/><path d="M1534,359L1352,338L1540,512Z" fill="#d7dbbf" stroke="#d7dbbf" stroke-width="1.51"/><path d="M1352,338L1312,570L1540,512Z" fill="#dde7cc" stroke="#dde7cc" stroke-width="1.51"/><path d="M1454,257L1374,292L1534,359Z" fill="#dcd0b2" stroke="#dcd0b2" stroke-width="1.51"/><path d="M1374,292L1352,338L1534,359Z" fill="#dfd6b7" stroke="#dfd6b7" stroke-width="1.51"/><path d="M1473,679L1287,882L1504,879Z" fill="#b7deec" stroke="#b7deec" stroke-width="1.51"/><path d="M1007,-244L1217,-200L1322,-230Z" fill="#db9087" stroke="#db9087" stroke-width="1.51"/><path d="M1357,635L1287,882L1473,679Z" fill="#c9e7f1" stroke="#c9e7f1" stroke-width="1.51"/><path d="M1325,-28L1347,142L1480,134Z" fill="#e6b09a" stroke="#e6b09a" stroke-width="1.51"/><path d="M1287,882L1442,954L1504,879Z" fill="#a9d5e8" stroke="#a9d5e8" stroke-width="1.51"/><path d="M1347,142L1454,257L1480,134Z" fill="#e1bfa3" stroke="#e1bfa3" stroke-width="1.51"/><path d="M1322,-230L1454,-101L1490,-172Z" fill="#cf8a83" stroke="#cf8a83" stroke-width="1.51"/><path d="M1287,882L1340,963L1442,954Z" fill="#aad5e7" stroke="#aad5e7" stroke-width="1.51"/><path d="M1340,963L1380,1114L1442,954Z" fill="#9bc9e1" stroke="#9bc9e1" stroke-width="1.51"/><path d="M1322,-230L1325,-28L1454,-101Z" fill="#dc9286" stroke="#dc9286" stroke-width="1.51"/><path d="M1347,142L1374,292L1454,257Z" fill="#e4c9aa" stroke="#e4c9aa" stroke-width="1.51"/><path d="M1322,-230L1217,-200L1325,-28Z" fill="#de9287" stroke="#de9287" stroke-width="1.51"/><path d="M1325,-28L1216,36L1347,142Z" fill="#edae99" stroke="#edae99" stroke-width="1.51"/><path d="M1136,337L1239,563L1352,338Z" fill="#eeeac8" stroke="#eeeac8" stroke-width="1.51"/><path d="M1239,563L1312,570L1352,338Z" fill="#e7efd2" stroke="#e7efd2" stroke-width="1.51"/><path d="M1188,675L1287,882L1357,635Z" fill="#d4edf4" stroke="#d4edf4" stroke-width="1.51"/><path d="M1347,142L1231,282L1374,292Z" fill="#eacfad" stroke="#eacfad" stroke-width="1.51"/><path d="M1340,963L1147,1030L1380,1114Z" fill="#a2cbe1" stroke="#a2cbe1" stroke-width="1.51"/><path d="M1147,1030L1206,1177L1380,1114Z" fill="#9dc0dd" stroke="#9dc0dd" stroke-width="1.51"/><path d="M1206,1177L1346,1286L1380,1114Z" fill="#8baed3" stroke="#8baed3" stroke-width="1.51"/><path d="M1231,282L1136,337L1352,338Z" fill="#f0dfbb" stroke="#f0dfbb" stroke-width="1.51"/><path d="M1231,282L1352,338L1374,292Z" fill="#e9d8b7" stroke="#e9d8b7" stroke-width="1.51"/><path d="M1312,570L1188,675L1357,635Z" fill="#dff1e8" stroke="#dff1e8" stroke-width="1.51"/><path d="M1239,563L1188,675L1312,570Z" fill="#e6f4e5" stroke="#e6f4e5" stroke-width="1.51"/><path d="M1217,-200L1144,-50L1325,-28Z" fill="#eb9c8c" stroke="#eb9c8c" stroke-width="1.51"/><path d="M1216,36L1231,282L1347,142Z" fill="#f1c3a4" stroke="#f1c3a4" stroke-width="1.51"/><path d="M1206,1177L1145,1345L1346,1286Z" fill="#90a1cf" stroke="#90a1cf" stroke-width="1.51"/><path d="M1188,675L1129,840L1287,882Z" fill="#d1ebf3" stroke="#d1ebf3" stroke-width="1.51"/><path d="M1287,882L1147,1030L1340,963Z" fill="#b1d7e8" stroke="#b1d7e8" stroke-width="1.51"/><path d="M1144,-50L1216,36L1325,-28Z" fill="#f0a894" stroke="#f0a894" stroke-width="1.51"/><path d="M1216,36L1057,80L1231,282Z" fill="#f8c3a1" stroke="#f8c3a1" stroke-width="1.51"/><path d="M1057,80L1074,273L1231,282Z" fill="#fad3a3" stroke="#fad3a3" stroke-width="1.51"/><path d="M1136,337L1049,524L1239,563Z" fill="#f5f4cb" stroke="#f5f4cb" stroke-width="1.51"/><path d="M1129,840L1147,1030L1287,882Z" fill="#c0e0ec" stroke="#c0e0ec" stroke-width="1.51"/><path d="M1062,1288L1145,1345L1206,1177Z" fill="#99a4c9" stroke="#99a4c9" stroke-width="1.51"/><path d="M1147,1030L1081,1109L1206,1177Z" fill="#a8c4d8" stroke="#a8c4d8" stroke-width="1.51"/><path d="M1055,638L1188,675L1239,563Z" fill="#ecf7e6" stroke="#ecf7e6" stroke-width="1.51"/><path d="M1049,524L1055,638L1239,563Z" fill="#f3f9d8" stroke="#f3f9d8" stroke-width="1.51"/><path d="M1062,1288L771,1313L1145,1345Z" fill="#a29eb5" stroke="#a29eb5" stroke-width="1.51"/><path d="M1074,273L1136,337L1231,282Z" fill="#f7dfb3" stroke="#f7dfb3" stroke-width="1.51"/><path d="M1129,840L1029,942L1147,1030Z" fill="#c3dfe0" stroke="#c3dfe0" stroke-width="1.51"/><path d="M1007,-244L1144,-50L1217,-200Z" fill="#e79781" stroke="#e79781" stroke-width="1.51"/><path d="M1144,-50L1057,80L1216,36Z" fill="#f8b092" stroke="#f8b092" stroke-width="1.51"/><path d="M1055,638L1129,840L1188,675Z" fill="#e4f4ef" stroke="#e4f4ef" stroke-width="1.51"/><path d="M1081,1109L1062,1288L1206,1177Z" fill="#a0b5ce" stroke="#a0b5ce" stroke-width="1.51"/><path d="M615,-259L770,-199L1007,-244Z" fill="#e08a5f" stroke="#e08a5f" stroke-width="1.51"/><path d="M1055,638L1026,822L1129,840Z" fill="#e0f1e6" stroke="#e0f1e6" stroke-width="1.51"/><path d="M984,443L1049,524L1136,337Z" fill="#faf2bc" stroke="#faf2bc" stroke-width="1.51"/><path d="M1007,-244L1052,-26L1144,-50Z" fill="#f29f7d" stroke="#f29f7d" stroke-width="1.51"/><path d="M1052,-26L1057,80L1144,-50Z" fill="#f9af89" stroke="#f9af89" stroke-width="1.51"/><path d="M1029,942L1081,1109L1147,1030Z" fill="#b7d3d8" stroke="#b7d3d8" stroke-width="1.51"/><path d="M1026,822L1029,942L1129,840Z" fill="#d1e9e0" stroke="#d1e9e0" stroke-width="1.51"/><path d="M1074,273L984,443L1136,337Z" fill="#fae9b0" stroke="#fae9b0" stroke-width="1.51"/><path d="M1007,-244L907,-91L1052,-26Z" fill="#f49f72" stroke="#f49f72" stroke-width="1.51"/><path d="M895,783L1026,822L1055,638Z" fill="#e9f4de" stroke="#e9f4de" stroke-width="1.51"/><path d="M848,1238L771,1313L1062,1288Z" fill="#a8a2ae" stroke="#a8a2ae" stroke-width="1.51"/><path d="M850,1143L848,1238L1062,1288Z" fill="#abb0b6" stroke="#abb0b6" stroke-width="1.51"/><path d="M916,289L984,443L1074,273Z" fill="#fee8a5" stroke="#fee8a5" stroke-width="1.51"/><path d="M1057,80L910,87L1074,273Z" fill="#ffc98f" stroke="#ffc98f" stroke-width="1.51"/><path d="M910,87L916,289L1074,273Z" fill="#ffd891" stroke="#ffd891" stroke-width="1.51"/><path d="M1029,942L879,975L1081,1109Z" fill="#c1d8cf" stroke="#c1d8cf" stroke-width="1.51"/><path d="M879,975L850,1143L1081,1109Z" fill="#bbccc4" stroke="#bbccc4" stroke-width="1.51"/><path d="M850,1143L1062,1288L1081,1109Z" fill="#abbac2" stroke="#abbac2" stroke-width="1.51"/><path d="M871,647L895,783L1055,638Z" fill="#f3f8d7" stroke="#f3f8d7" stroke-width="1.51"/><path d="M1049,524L905,528L1055,638Z" fill="#fbfdc8" stroke="#fbfdc8" stroke-width="1.51"/><path d="M1052,-26L910,87L1057,80Z" fill="#feb884" stroke="#feb884" stroke-width="1.51"/><path d="M916,289L885,364L984,443Z" fill="#ffeca3" stroke="#ffeca3" stroke-width="1.51"/><path d="M770,-199L830,-181L1007,-244Z" fill="#e59166" stroke="#e59166" stroke-width="1.51"/><path d="M905,528L871,647L1055,638Z" fill="#fafbc9" stroke="#fafbc9" stroke-width="1.51"/><path d="M907,-91L910,87L1052,-26Z" fill="#fdb079" stroke="#fdb079" stroke-width="1.51"/><path d="M984,443L905,528L1049,524Z" fill="#fefabb" stroke="#fefabb" stroke-width="1.51"/><path d="M895,783L879,975L1026,822Z" fill="#daebd3" stroke="#daebd3" stroke-width="1.51"/><path d="M1026,822L879,975L1029,942Z" fill="#d1e5d4" stroke="#d1e5d4" stroke-width="1.51"/><path d="M830,-181L907,-91L1007,-244Z" fill="#eb986a" stroke="#eb986a" stroke-width="1.51"/><path d="M885,364L905,528L984,443Z" fill="#fff3ae" stroke="#fff3ae" stroke-width="1.51"/><path d="M767,855L879,975L895,783Z" fill="#dae4ca" stroke="#dae4ca" stroke-width="1.51"/><path d="M885,364L783,514L905,528Z" fill="#fff2ab" stroke="#fff2ab" stroke-width="1.51"/><path d="M783,514L871,647L905,528Z" fill="#fdf7b8" stroke="#fdf7b8" stroke-width="1.51"/><path d="M701,-22L738,84L907,-91Z" fill="#faa569" stroke="#faa569" stroke-width="1.51"/><path d="M738,84L769,273L910,87Z" fill="#ffc17a" stroke="#ffc17a" stroke-width="1.51"/><path d="M907,-91L738,84L910,87Z" fill="#fdae73" stroke="#fdae73" stroke-width="1.51"/><path d="M910,87L769,273L916,289Z" fill="#ffd287" stroke="#ffd287" stroke-width="1.51"/><path d="M769,273L885,364L916,289Z" fill="#ffdf94" stroke="#ffdf94" stroke-width="1.51"/><path d="M711,1014L850,1143L879,975Z" fill="#c1caba" stroke="#c1caba" stroke-width="1.51"/><path d="M871,647L704,695L895,783Z" fill="#f2efce" stroke="#f2efce" stroke-width="1.51"/><path d="M830,-181L701,-22L907,-91Z" fill="#f49a64" stroke="#f49a64" stroke-width="1.51"/><path d="M697,385L783,514L885,364Z" fill="#ffe99d" stroke="#ffe99d" stroke-width="1.51"/><path d="M704,695L767,855L895,783Z" fill="#e8e8c8" stroke="#e8e8c8" stroke-width="1.51"/><path d="M711,1014L749,1147L850,1143Z" fill="#babdb2" stroke="#babdb2" stroke-width="1.51"/><path d="M769,273L697,385L885,364Z" fill="#ffdf91" stroke="#ffdf91" stroke-width="1.51"/><path d="M767,855L711,1014L879,975Z" fill="#cfd6bf" stroke="#cfd6bf" stroke-width="1.51"/><path d="M770,-199L701,-22L830,-181Z" fill="#ef925d" stroke="#ef925d" stroke-width="1.51"/><path d="M783,514L704,695L871,647Z" fill="#faf0bc" stroke="#faf0bc" stroke-width="1.51"/><path d="M749,1147L848,1238L850,1143Z" fill="#b0b2b0" stroke="#b0b2b0" stroke-width="1.51"/><path d="M749,1147L771,1313L848,1238Z" fill="#aca5a9" stroke="#aca5a9" stroke-width="1.51"/><path d="M704,695L608,816L767,855Z" fill="#e7e0be" stroke="#e7e0be" stroke-width="1.51"/><path d="M625,938L711,1014L767,855Z" fill="#d2d1b7" stroke="#d2d1b7" stroke-width="1.51"/><path d="M738,84L613,101L769,273Z" fill="#febb71" stroke="#febb71" stroke-width="1.51"/><path d="M613,101L541,238L769,273Z" fill="#febe70" stroke="#febe70" stroke-width="1.51"/><path d="M615,-259L701,-22L770,-199Z" fill="#ea8a56" stroke="#ea8a56" stroke-width="1.51"/><path d="M749,1147L594,1318L771,1313Z" fill="#ab9a9f" stroke="#ab9a9f" stroke-width="1.51"/><path d="M576,565L704,695L783,514Z" fill="#fceaad" stroke="#fceaad" stroke-width="1.51"/><path d="M697,385L576,565L783,514Z" fill="#ffe79c" stroke="#ffe79c" stroke-width="1.51"/><path d="M604,1116L594,1318L749,1147Z" fill="#b1a29f" stroke="#b1a29f" stroke-width="1.51"/><path d="M600,366L697,385L769,273Z" fill="#fed888" stroke="#fed888" stroke-width="1.51"/><path d="M541,238L600,366L769,273Z" fill="#ffcb7b" stroke="#ffcb7b" stroke-width="1.51"/><path d="M711,1014L604,1116L749,1147Z" fill="#bcb8ab" stroke="#bcb8ab" stroke-width="1.51"/><path d="M608,816L625,938L767,855Z" fill="#dcd7b8" stroke="#dcd7b8" stroke-width="1.51"/><path d="M615,-259L546,-18L701,-22Z" fill="#f18851" stroke="#f18851" stroke-width="1.51"/><path d="M242,-237L416,-190L615,-259Z" fill="#da643f" stroke="#da643f" stroke-width="1.51"/><path d="M600,366L576,565L697,385Z" fill="#ffdc8f" stroke="#ffdc8f" stroke-width="1.51"/><path d="M701,-22L613,101L738,84Z" fill="#fca766" stroke="#fca766" stroke-width="1.51"/><path d="M539,706L608,816L704,695Z" fill="#f0dcb9" stroke="#f0dcb9" stroke-width="1.51"/><path d="M576,565L539,706L704,695Z" fill="#f8dfb0" stroke="#f8dfb0" stroke-width="1.51"/><path d="M625,938L604,1116L711,1014Z" fill="#c6c0ac" stroke="#c6c0ac" stroke-width="1.51"/><path d="M546,-18L613,101L701,-22Z" fill="#fa9a5d" stroke="#fa9a5d" stroke-width="1.51"/><path d="M396,540L576,565L600,366Z" fill="#ffd78d" stroke="#ffd78d" stroke-width="1.51"/><path d="M382,384L396,540L600,366Z" fill="#ffca7f" stroke="#ffca7f" stroke-width="1.51"/><path d="M418,1253L594,1318L604,1116Z" fill="#b09091" stroke="#b09091" stroke-width="1.51"/><path d="M546,-18L485,43L613,101Z" fill="#fa9557" stroke="#fa9557" stroke-width="1.51"/><path d="M416,-190L546,-18L615,-259Z" fill="#e87847" stroke="#e87847" stroke-width="1.51"/><path d="M421,1036L604,1116L625,938Z" fill="#c7b5a2" stroke="#c7b5a2" stroke-width="1.51"/><path d="M608,816L480,813L625,938Z" fill="#e0ceaf" stroke="#e0ceaf" stroke-width="1.51"/><path d="M480,813L421,1036L625,938Z" fill="#d7bfa4" stroke="#d7bfa4" stroke-width="1.51"/><path d="M418,1253L323,1341L594,1318Z" fill="#ab7683" stroke="#ab7683" stroke-width="1.51"/><path d="M539,706L480,813L608,816Z" fill="#ebd1af" stroke="#ebd1af" stroke-width="1.51"/><path d="M485,43L541,238L613,101Z" fill="#fca660" stroke="#fca660" stroke-width="1.51"/><path d="M382,1092L418,1253L604,1116Z" fill="#b99790" stroke="#b99790" stroke-width="1.51"/><path d="M416,-190L450,-18L546,-18Z" fill="#f07b46" stroke="#f07b46" stroke-width="1.51"/><path d="M421,1036L382,1092L604,1116Z" fill="#c2a497" stroke="#c2a497" stroke-width="1.51"/><path d="M541,238L382,384L600,366Z" fill="#fec374" stroke="#fec374" stroke-width="1.51"/><path d="M388,274L382,384L541,238Z" fill="#fdb66a" stroke="#fdb66a" stroke-width="1.51"/><path d="M396,540L539,706L576,565Z" fill="#fcd69d" stroke="#fcd69d" stroke-width="1.51"/><path d="M441,738L480,813L539,706Z" fill="#f0ceab" stroke="#f0ceab" stroke-width="1.51"/><path d="M396,540L441,738L539,706Z" fill="#f9cfa3" stroke="#f9cfa3" stroke-width="1.51"/><path d="M485,43L388,274L541,238Z" fill="#fda95e" stroke="#fda95e" stroke-width="1.51"/><path d="M450,-18L485,43L546,-18Z" fill="#f68a4f" stroke="#f68a4f" stroke-width="1.51"/><path d="M312,55L320,245L388,274Z" fill="#fb9856" stroke="#fb9856" stroke-width="1.51"/><path d="M319,595L333,682L396,540Z" fill="#fdc492" stroke="#fdc492" stroke-width="1.51"/><path d="M396,540L333,682L441,738Z" fill="#fac79c" stroke="#fac79c" stroke-width="1.51"/><path d="M234,831L276,944L480,813Z" fill="#e1b29b" stroke="#e1b29b" stroke-width="1.51"/><path d="M276,944L421,1036L480,813Z" fill="#d7b19b" stroke="#d7b19b" stroke-width="1.51"/><path d="M450,-18L312,55L485,43Z" fill="#f7834c" stroke="#f7834c" stroke-width="1.51"/><path d="M312,55L388,274L485,43Z" fill="#fa9353" stroke="#fa9353" stroke-width="1.51"/><path d="M382,1092L333,1127L418,1253Z" fill="#b88b8a" stroke="#b88b8a" stroke-width="1.51"/><path d="M441,738L234,831L480,813Z" fill="#eabea2" stroke="#eabea2" stroke-width="1.51"/><path d="M333,682L234,831L441,738Z" fill="#f0bba0" stroke="#f0bba0" stroke-width="1.51"/><path d="M416,-190L259,-63L450,-18Z" fill="#ec6b3f" stroke="#ec6b3f" stroke-width="1.51"/><path d="M259,-63L312,55L450,-18Z" fill="#f27344" stroke="#f27344" stroke-width="1.51"/><path d="M382,384L264,407L396,540Z" fill="#ffbd79" stroke="#ffbd79" stroke-width="1.51"/><path d="M242,-237L259,-63L416,-190Z" fill="#e15838" stroke="#e15838" stroke-width="1.51"/><path d="M276,944L382,1092L421,1036Z" fill="#caa193" stroke="#caa193" stroke-width="1.51"/><path d="M333,1127L323,1341L418,1253Z" fill="#b07982" stroke="#b07982" stroke-width="1.51"/><path d="M168,1239L323,1341L333,1127Z" fill="#b06f7d" stroke="#b06f7d" stroke-width="1.51"/><path d="M320,245L264,407L382,384Z" fill="#fdae69" stroke="#fdae69" stroke-width="1.51"/><path d="M276,944L333,1127L382,1092Z" fill="#c6988f" stroke="#c6988f" stroke-width="1.51"/><path d="M320,245L382,384L388,274Z" fill="#fdad66" stroke="#fdad66" stroke-width="1.51"/><path d="M264,407L319,595L396,540Z" fill="#ffc181" stroke="#ffc181" stroke-width="1.51"/><path d="M121,962L126,1140L276,944Z" fill="#c88c87" stroke="#c88c87" stroke-width="1.51"/><path d="M264,407L118,588L319,595Z" fill="#ffb77d" stroke="#ffb77d" stroke-width="1.51"/><path d="M312,55L160,141L320,245Z" fill="#f8854d" stroke="#f8854d" stroke-width="1.51"/><path d="M160,141L165,230L320,245Z" fill="#f88b50" stroke="#f88b50" stroke-width="1.51"/><path d="M165,230L264,407L320,245Z" fill="#fb9e5e" stroke="#fb9e5e" stroke-width="1.51"/><path d="M168,1239L12,1303L323,1341Z" fill="#a75771" stroke="#a75771" stroke-width="1.51"/><path d="M319,595L161,726L333,682Z" fill="#f9b897" stroke="#f9b897" stroke-width="1.51"/><path d="M161,726L234,831L333,682Z" fill="#f1af99" stroke="#f1af99" stroke-width="1.51"/><path d="M276,944L126,1140L333,1127Z" fill="#c48b88" stroke="#c48b88" stroke-width="1.51"/><path d="M126,1140L168,1239L333,1127Z" fill="#b5757e" stroke="#b5757e" stroke-width="1.51"/><path d="M118,588L161,726L319,595Z" fill="#f9b18d" stroke="#f9b18d" stroke-width="1.51"/><path d="M259,-63L160,141L312,55Z" fill="#f46e43" stroke="#f46e43" stroke-width="1.51"/><path d="M90,-20L160,141L259,-63Z" fill="#ee613c" stroke="#ee613c" stroke-width="1.51"/><path d="M242,-237L104,-252L259,-63Z" fill="#da4632" stroke="#da4632" stroke-width="1.51"/><path d="M104,-252L90,-20L259,-63Z" fill="#e14830" stroke="#e14830" stroke-width="1.51"/><path d="M165,230L95,403L264,407Z" fill="#f89d60" stroke="#f89d60" stroke-width="1.51"/><path d="M95,403L118,588L264,407Z" fill="#faa96f" stroke="#faa96f" stroke-width="1.51"/><path d="M234,831L121,962L276,944Z" fill="#d99e8f" stroke="#d99e8f" stroke-width="1.51"/><path d="M83,811L121,962L234,831Z" fill="#dc9d8e" stroke="#dc9d8e" stroke-width="1.51"/><path d="M161,726L83,811L234,831Z" fill="#e7a492" stroke="#e7a492" stroke-width="1.51"/><path d="M-162,-171L-22,-177L104,-252Z" fill="#c72527" stroke="#c72527" stroke-width="1.51"/><path d="M-19,-104L90,-20L104,-252Z" fill="#da382a" stroke="#da382a" stroke-width="1.51"/><path d="M-22,-177L-19,-104L104,-252Z" fill="#cf2d28" stroke="#cf2d28" stroke-width="1.51"/><path d="M95,403L4,501L118,588Z" fill="#f7a36e" stroke="#f7a36e" stroke-width="1.51"/><path d="M121,962L-17,1016L126,1140Z" fill="#c07f7e" stroke="#c07f7e" stroke-width="1.51"/><path d="M90,-20L-21,49L160,141Z" fill="#eb5d3a" stroke="#eb5d3a" stroke-width="1.51"/><path d="M118,588L21,793L161,726Z" fill="#f0a490" stroke="#f0a490" stroke-width="1.51"/><path d="M160,141L-68,287L165,230Z" fill="#f1804a" stroke="#f1804a" stroke-width="1.51"/><path d="M-68,287L95,403L165,230Z" fill="#f28c53" stroke="#f28c53" stroke-width="1.51"/><path d="M126,1140L12,1303L168,1239Z" fill="#aa5f72" stroke="#aa5f72" stroke-width="1.51"/><path d="M-21,49L-68,287L160,141Z" fill="#ec6e40" stroke="#ec6e40" stroke-width="1.51"/><path d="M-60,634L21,793L118,588Z" fill="#ee9d87" stroke="#ee9d87" stroke-width="1.51"/><path d="M21,793L83,811L161,726Z" fill="#e69e8d" stroke="#e69e8d" stroke-width="1.51"/><path d="M-68,287L-30,412L95,403Z" fill="#f08f58" stroke="#f08f58" stroke-width="1.51"/><path d="M83,811L21,793L121,962Z" fill="#db9789" stroke="#db9789" stroke-width="1.51"/><path d="M21,793L-17,1016L121,962Z" fill="#d08b83" stroke="#d08b83" stroke-width="1.51"/><path d="M-58,1110L12,1303L126,1140Z" fill="#ab6170" stroke="#ab6170" stroke-width="1.51"/><path d="M-17,1016L-58,1110L126,1140Z" fill="#b87177" stroke="#b87177" stroke-width="1.51"/><path d="M4,501L-60,634L118,588Z" fill="#f4a176" stroke="#f4a176" stroke-width="1.51"/><path d="M-30,412L4,501L95,403Z" fill="#f39963" stroke="#f39963" stroke-width="1.51"/><path d="M-126,855L-17,1016L21,793Z" fill="#ce8982" stroke="#ce8982" stroke-width="1.51"/><path d="M-19,-104L-21,49L90,-20Z" fill="#e14730" stroke="#e14730" stroke-width="1.51"/><path d="M-172,664L-126,855L-60,634Z" fill="#dc9189" stroke="#dc9189" stroke-width="1.51"/><path d="M-130,72L-68,287L-21,49Z" fill="#e2623c" stroke="#e2623c" stroke-width="1.51"/><path d="M-126,-36L-21,49L-19,-104Z" fill="#d93f2e" stroke="#d93f2e" stroke-width="1.51"/><path d="M-126,855L-110,1002L-17,1016Z" fill="#bf7d7d" stroke="#bf7d7d" stroke-width="1.51"/><path d="M-58,1110L-179,1192L12,1303Z" fill="#a0566c" stroke="#a0566c" stroke-width="1.51"/><path d="M-179,1192L-186,1305L12,1303Z" fill="#954567" stroke="#954567" stroke-width="1.51"/><path d="M-60,634L-126,855L21,793Z" fill="#dd9287" stroke="#dd9287" stroke-width="1.51"/><path d="M-202,595L-60,634L4,501Z" fill="#e99874" stroke="#e99874" stroke-width="1.51"/><path d="M-30,412L-204,412L4,501Z" fill="#ea9161" stroke="#ea9161" stroke-width="1.51"/><path d="M-204,412L-202,595L4,501Z" fill="#e59369" stroke="#e59369" stroke-width="1.51"/><path d="M-130,72L-206,267L-68,287Z" fill="#de6d43" stroke="#de6d43" stroke-width="1.51"/><path d="M-126,-36L-130,72L-21,49Z" fill="#db4833" stroke="#db4833" stroke-width="1.51"/><path d="M-22,-177L-162,-171L-19,-104Z" fill="#cb2727" stroke="#cb2727" stroke-width="1.51"/><path d="M-110,1002L-58,1110L-17,1016Z" fill="#b67378" stroke="#b67378" stroke-width="1.51"/><path d="M-162,-171L-126,-36L-19,-104Z" fill="#cd2c29" stroke="#cd2c29" stroke-width="1.51"/><path d="M-68,287L-204,412L-30,412Z" fill="#e58958" stroke="#e58958" stroke-width="1.51"/><path d="M-206,267L-204,412L-68,287Z" fill="#de7d51" stroke="#de7d51" stroke-width="1.51"/><path d="M-202,595L-172,664L-60,634Z" fill="#e0937d" stroke="#e0937d" stroke-width="1.51"/><path d="M-110,1002L-179,1192L-58,1110Z" fill="#a96673" stroke="#a96673" stroke-width="1.51"/><path d="M-126,855L-179,1192L-110,1002Z" fill="#b17379" stroke="#b17379" stroke-width="1.51"/><path d="M-202,595L-179,1192L-172,664Z" fill="#c88684" stroke="#c88684" stroke-width="1.51"/><path d="M-162,-171L-206,267L-130,72Z" fill="#d54936" stroke="#d54936" stroke-width="1.51"/><path d="M-172,664L-179,1192L-126,855Z" fill="#bf8080" stroke="#bf8080" stroke-width="1.51"/><path d="M-162,-171L-130,72L-126,-36Z" fill="#cf362d" stroke="#cf362d" stroke-width="1.51"/><path d="M-202,595L-186,1305L-179,1192Z" fill="#aa6d77" stroke="#aa6d77" stroke-width="1.51"/></svg>