<?xml version="1.0" standalone="no"?>
<!DOCTYPE svg PUBLIC "-//W3C//DTD SVG 1.1//EN" "http://www.w3.org/Graphics/SVG/1.1/DTD/svg11.dtd" >
<svg xmlns="http://www.w3.org/2000/svg" xmlns:xlink="http://www.w3.org/1999/xlink" version="1.1">
<metadata></metadata>
<defs>
<font id="andreanormal" horiz-adv-x="1228" >
<font-face units-per-em="2048" ascent="1638" descent="-410" />
<missing-glyph horiz-adv-x="614" />
<glyph horiz-adv-x="0" />
<glyph horiz-adv-x="682" />
<glyph unicode=" "  horiz-adv-x="614" />
<glyph unicode="&#x09;" horiz-adv-x="614" />
<glyph unicode="&#xa0;" horiz-adv-x="614" />
<glyph unicode="!" horiz-adv-x="397" d="M41 563q0 -88 35 -149q46 -80 133 -86q52 -4 86 23.5t39 78.5q3 0 2 70l-2 71h-4q-13 204 -27 392q-6 63 -22 137q-25 104 -113 104q-77 0 -102 -96q-19 -78 -19 -125q-2 -62 -3 -132t-1.5 -155.5t-1.5 -132.5zM49 76q0 -29 20.5 -53.5t55.5 -36.5q19 -6 76 -17 q71 6 112 35q43 29 43 76t-43 76q-79 57 -186 28q-33 -10 -54.5 -41t-23.5 -67z" />
<glyph unicode="&#x22;" />
<glyph unicode="#" horiz-adv-x="899" d="M41 457q-1 -9 4.5 -16t13.5 -7q113 -13 131 -108q0 -2 3 -6t4 -5q31 -42 84 -39q55 3 71 58l6 33q8 27 31 24q17 -3 21 -22q2 -12 4 -33t4 -33q2 -8 6.5 -34t9.5 -40q13 -36 44.5 -52t70.5 -7q30 4 42.5 26t10.5 66v10q-2 31 -3 44t1 31.5t3 24.5t9.5 15t15 10.5t25 4.5 t33 3.5t45.5 0.5q8 0 26 -0.5t28.5 -0.5t25.5 2t27 7q17 7 20 24q4 15 -10 29q-35 30 -100 37q-99 13 -140 31q-7 3 -10 11t0 15q1 4 7 8t9 2q36 -3 80 -12q5 1 19 2t20 2q28 8 31 27q6 23 -16 37q-34 21 -93 32q-92 18 -104 109q-3 34 -29 117q-14 50 -61 53q-22 0 -40 -18 t-24 -48q-1 -5 -6 -75q-6 -56 -8 -64q-2 -7 -23 -18q-13 0 -18 10q-11 23 -14 41q-16 105 -19 119q-4 39 -16 61q-15 31 -53 31q-38 -3 -54 -35q-4 -8 -7.5 -16.5t-6 -19t-4 -17t-3 -19.5t-2 -17.5t-2 -19.5t-1.5 -18q-5 -42 -20 -69t-52 -41q-20 -8 -19.5 -24.5t19.5 -25.5 q8 -4 26 -7.5t30 -10t18 -21.5q19 -38 4.5 -69t-57.5 -45q-46 -17 -52 -21q-11 -6 -16 -24zM356 561q0 28 23 31q21 0 29 -29v-10q-1 -3 -2.5 -10.5t-2.5 -10.5q-7 -17 -24 -14q-15 5 -17 12q-6 12 -6 31z" />
<glyph unicode="$" horiz-adv-x="679" d="M41.5 842q-0.5 59 50.5 114q25 25 39 33q86 48 100 139q2 16 14 26.5t31 10.5q24 0 41 -24q5 -2 9 -11l6 -14q-6 -44 13.5 -82.5t57.5 -38.5q19 -19 43 -34q19 -12 14 -32.5t-28 -23.5q-29 -5 -40.5 -17.5t-8.5 -39.5q7 -62 29 -105t73 -75q142 -91 154 -265 q6 -136 -104 -204q-20 -15 -56 -33q-46 -22 -49 -82q-4 -67 -12 -100q-7 -34 -41 -43t-62 14q-34 27 -39 63q-8 40 -8 62q0 69 -63 100q-79 42 -117 117q-25 55 -18 96q11 56 53 66q45 13 74 -37q6 -9 13 -29.5t17.5 -39t30.5 -34.5q5 30 6.5 58t-1.5 62.5t-4 49.5t-7.5 59 t-7.5 50q-2 13 -10 24.5t-14.5 17.5t-20.5 17q-11 8 -33 22.5t-39 26.5t-31 25q-54 52 -54.5 111zM104 884q-3 -28 2.5 -56t24.5 -48t45 -20h10q12 -4 19 -4q17 0 26 18q-16 27 -20 86.5t-18 102.5q-3 5 -9 0.5t-12 -13.5q-2 2 -6 2q-26 0 -42.5 -20t-19.5 -48zM439 358.5 q2 -44.5 26 -67.5q10 -10 22 -10q7 0 15 4h10q25 0 35 39q18 12 21 51t-10 78t-36 51q-16 26 -39 26q-6 0 -14 -4q-16 16 -24 15q-2 0 -1 -4q5 -26 -1 -80t-4 -98.5z" />
<glyph unicode="%" horiz-adv-x="1077" d="M42.5 756.5q6.5 -54.5 47.5 -92.5q69 -69 166 -72q11 -1 28.5 3t27 4.5t26.5 -7.5q13 -21 -4 -55q-10 -20 -35.5 -72t-39 -79t-35.5 -69t-42.5 -77t-42.5 -68q-41 -67 -51 -88q-10 -23 -3 -48t28 -40q42 -31 88.5 -31.5t83.5 31.5q34 31 63 78q123 201 168 315 q42 106 127 254q88 147 143 250q46 85 93 192q24 60 -19 91q-41 25 -94 -2q-23 -12 -44.5 -33t-31.5 -35t-31 -45q-135 -214 -176 -279l-10.5 -17.5t-12 -18.5t-14.5 -13t-22 -8q-2 3 -15.5 33t-21.5 45q-49 83 -158 112q-110 27 -163 -57q-30 -47 -23.5 -101.5zM176 766 q10 42 49 39q24 0 40 -21.5t11 -48.5q-10 -42 -49 -39q-25 3 -41 25t-10 45zM598 209q39 -58 118.5 -89.5t147.5 -17.5q61 12 113.5 65t58.5 109q6 55 -29.5 109.5t-95.5 83.5q-65 32 -151 35q-108 -3 -160 -107q-56 -109 -2 -188zM731 332q1 25 17.5 41.5t35.5 11.5 q35 -4 54 -29t16 -61q-2 -22 -18 -39t-35 -16q-31 3 -51 29.5t-19 62.5z" />
<glyph unicode="&#x26;" horiz-adv-x="999" d="M55 592q-35 -140 16 -279.5t169 -222.5q157 -107 329 -121q199 -15 334 125q51 52 54.5 105t-37.5 116q-28 41 -61 44.5t-64 -33.5q-14 -17 -44 -60t-49 -63q-79 -88 -192 -53q-136 41 -196.5 159t-12.5 271q20 63 58 85t104 11q87 -15 137 -6q67 7 82 59q16 46 -51 84 q-8 4 -43.5 19t-52.5 26q-25 17 -32 56t7 71q27 58 104 49q67 -3 70 -65q0 -26 2 -31q7 -24 30.5 -31t43.5 8q49 34 55 80t-33 90q-87 97 -211 91q-140 0 -209 -57.5t-88 -190.5q-12 -84 -71 -127q-121 -89 -148 -209z" />
<glyph unicode="'" horiz-adv-x="282" d="M55 1133q-38 -57 19 -111q26 -26 18 -59q-1 -10 6.5 -16.5t18.5 -4.5q55 10 91 49.5t34 89.5q-2 31 -19.5 54t-46.5 32q-32 12 -66.5 2.5t-54.5 -36.5z" />
<glyph unicode="(" horiz-adv-x="559" d="M41 561q-6 -235 123 -411q119 -164 276 -207q38 -9 61.5 15.5t12.5 61.5q-12 34 -31 66q-10 14 -31 41t-30 41q-150 224 -127 428q19 182 63 287q25 57 66 194q14 44 -18 66q-30 21 -70 0q-91 -45 -143 -123q-152 -238 -152 -459z" />
<glyph unicode=")" horiz-adv-x="550" d="M45 1108q22 -51 66 -119q98 -158 133 -315q48 -237 -64 -434q-39 -70 -67 -136q-33 -78 16 -122q25 -23 63.5 -23t75.5 23q33 22 37 26q95 107 148.5 218.5t56.5 244.5q-15 193 -84 324q-31 59 -76 121.5t-81 104.5t-95 107q-21 24 -61 41q-29 16 -56 -8q-26 -21 -12 -53 z" />
<glyph unicode="*" />
<glyph unicode="+" horiz-adv-x="694" d="M42 515q0 -13 9 -19q25 -20 62 -27q44 -4 66 -28.5t28 -69.5q10 -75 35 -129q15 -37 51 -56.5t72 -13.5q35 6 56.5 38t20.5 77q-1 20 -6.5 65t-5.5 68q-3 62 55 74q11 3 66.5 8.5t81.5 21.5q4 3 10.5 12.5t9.5 12.5q-2 3 -4.5 10t-5 11t-6.5 5q-78 31 -111 33 q-65 4 -98.5 38.5t-42.5 98.5q-5 45 -29 97q-20 49 -82 49q-52 -3 -77 -55q-26 -59 -17 -115q23 -127 -104 -162q-12 -3 -25 -20q-9 -11 -9 -24z" />
<glyph unicode="," horiz-adv-x="274" d="M55 119q-39 -51 17 -107q26 -23 18 -55q-1 -10 6.5 -16t18.5 -4q52 9 86 48t32 87q-3 63 -63 84q-30 11 -63.5 0.5t-51.5 -37.5z" />
<glyph unicode="-" horiz-adv-x="692" d="M41 559q-1 -17 9 -29.5t26 -17.5q128 -42 289 -39q13 0 59 0.5t67 1.5t56 7t63 18q44 17 41 59q-3 29 -35 47q-62 34 -165 27l-324 -25q-30 -4 -45 -8q-38 -10 -41 -41z" />
<glyph unicode="." horiz-adv-x="278" d="M40 86.5q-1 -29.5 21 -49.5q32 -31 78 -29.5t78 33.5q21 21 21 63q-2 2 -6 9t-9 13.5t-10 10.5q-34 26 -75.5 25t-74.5 -27q-22 -19 -23 -48.5z" />
<glyph unicode="/" horiz-adv-x="878" d="M45 39q-7 23 4 47q6 14 49 86q27 40 55.5 91t45 83.5t48.5 97.5t44 88l6 13q27 23 33 55q0 2 1 4.5t1 3.5q4 4 7.5 8.5t7 10t5.5 8.5q43 72 47 78q17 17 21 32l18 31q66 101 174 275q27 42 50 68.5t55 43.5q58 26 94 0q19 -12 24.5 -35t-6.5 -53q-50 -117 -92 -190 q-57 -107 -139 -246q-80 -134 -127 -252q-41 -107 -166 -311q-27 -49 -61 -76q-38 -32 -84 -32t-86 30q-22 18 -29 41z" />
<glyph unicode="0" horiz-adv-x="1073" d="M68 455q69 -314 376 -426q354 -131 510 207q38 86 60 221q5 27 7.5 57t4.5 80.5t4 81.5v5q1 5 1.5 13t0.5 17.5t-0.5 21.5t-1.5 23q-20 216 -105.5 381.5t-258.5 275.5q-148 96 -301 0q-109 -71 -183 -203q-200 -352 -114 -755zM436 489q5 85 27 320q12 133 115 299 q20 32 54 39t66 -14q123 -74 154 -222q8 -35 45 -268q-1 -10 -9 -72t-10.5 -79t-12 -66.5t-18 -75.5t-23.5 -63.5t-33 -69.5q-34 -56 -70 -84.5t-92 -21.5q-104 11 -148 131q-52 141 -45 247z" />
<glyph unicode="1" horiz-adv-x="649" d="M41 1066.5q3 -35.5 45 -58.5q56 -36 73.5 -80.5t2.5 -108.5q-8 -43 -20 -123.5t-15 -97.5q-45 -265 -57 -352q-16 -115 63 -180q63 -50 134.5 -64t131.5 6.5t103.5 74.5t54.5 132q4 33 13.5 102t14.5 107t11.5 100t9 107t2 101t-5.5 106v223q0 11 -6 65q-19 147 -55 217 q-40 74 -100.5 88.5t-121.5 -40.5q-117 -109 -249 -254q-32 -35 -29 -70.5z" />
<glyph unicode="2" horiz-adv-x="1005" d="M55 272q28 113 99 228q60 94 180 265.5t141 203.5q13 19 51.5 67.5t57.5 77.5q2 3 12 19.5t13.5 23.5t8.5 20t3 22.5t-9 17.5q-16 18 -32.5 18.5t-27.5 -8.5t-26 -24.5t-24 -20.5q-13 -8 -36 -28.5t-36 -27.5q-57 -31 -104 13t-19 104q57 123 183 184t251 27t183.5 -128 t29.5 -218q-34 -154 -137 -311l-207 -326q-41 -63 -80 -137q-21 -42 -32 -68t-14 -47.5t3.5 -31.5t26.5 -17t47.5 -8t73.5 0q9 0 54 1.5t62.5 0t48.5 -9.5t54 -25q12 -8 22 -25t9 -30q-2 -14 -14.5 -31t-22.5 -18q-13 -2 -90 -16t-106 -18t-92 -12t-117 -10t-113 0 q-33 -2 -68 2q-134 14 -188 91.5t-19 209.5z" />
<glyph unicode="3" horiz-adv-x="999" d="M53 189.5q24 -74.5 92 -128.5q120 -93 293 -86q146 -6 259 59t208 187q81 103 39 238q-50 167 -170 262q-64 53 -12 117q6 8 31.5 39.5t37.5 50.5q66 113 44 244t-119 208q-41 33 -99 52t-123 20.5t-132.5 -27.5t-118.5 -88q-4 -5 -19.5 -22t-21 -24t-16 -23t-12.5 -27.5 t-1 -28t8 -32.5q12 -26 29.5 -39t39.5 -13.5t42 4t45 15.5q2 0 9.5 3t12.5 3q28 1 41 -14.5t13 -42.5q1 -37 -11 -69t-41 -77t-36 -59q-35 -69 -25.5 -107.5t74.5 -85.5q13 -10 67 -45t80 -59q49 -43 63 -108.5t-14 -120.5q-76 -145 -215 -142q-58 0 -84 34.5t-43 100.5 q-4 16 -20 39q-19 28 -55.5 37t-65.5 -6q-57 -29 -74 -82q-24 -82 0 -156.5z" />
<glyph unicode="4" horiz-adv-x="1110" d="M59 735q-38 -99 2 -165t146 -81q20 -6 121 -4t121 2q91 0 88 -90q-1 -20 -5.5 -64.5t-6.5 -70t0.5 -62.5t11.5 -69q26 -96 96.5 -144.5t175.5 -41.5q88 5 136.5 55t58.5 152q14 132 57 630q8 59 8 133.5t-18 131.5q-33 111 -131 131q-133 23 -193 -74 q-17 -27 -32.5 -59.5t-33.5 -74.5t-28 -63q-11 -25 -17.5 -38t-21 -30.5t-31.5 -25.5q-39 -19 -69 -6q-11 8 -21.5 27.5t-7.5 29.5q25 100 72 207q22 50 66 139.5t59 122.5q22 48 -11 92q-36 50 -108 39q-53 -10 -92 -42t-80 -85q-174 -224 -312 -602z" />
<glyph unicode="5" horiz-adv-x="1202" d="M43 389q-6 -104 63 -188q121 -149 312 -164q395 -24 653 289q89 105 90 226.5t-78 233.5q-98 145 -290 201q-26 7 -78 16.5t-78 16.5q-55 16 -55 88q4 76 61 84q26 4 54.5 6.5t68 4.5t55.5 3q94 8 131 31q28 19 31 57t-22 60q-58 45 -125 51q-38 3 -109.5 6t-93.5 4v-6 q-149 0 -178 -2q-71 -3 -118.5 -39t-64.5 -102q-38 -146 -65 -332q-7 -46 18 -83t72 -58q61 -27 156 -17q98 19 155 17q49 0 82.5 -30.5t42.5 -80.5q30 -156 -74 -246q-66 -57 -147 -100q-31 -15 -52 -22.5t-43 -8.5t-37 9t-28 33.5t-22 62.5q-3 10 -17 43q-53 95 -145 79 q-54 -12 -87 -50.5t-38 -92.5z" />
<glyph unicode="6" horiz-adv-x="1052" d="M41 543q3 -16 15 -75.5t22 -104.5t22 -87q35 -112 152 -188q82 -54 179.5 -69.5t189.5 8t172.5 73.5t137.5 131.5t75 178.5q34 168 -101 284q-78 64 -241 119q-80 28 -102 69t7 113q31 73 93 174q37 59 104 50q14 -2 45.5 -11t48.5 -10q27 -3 49 8t31 35q17 46 -22 92 q-57 63 -150 76q-299 47 -481 -184q-110 -140 -168 -307.5t-78 -374.5zM498 481q5 62 44.5 94.5t106.5 28.5q72 -3 115 -46.5t37 -106.5q-8 -75 -57.5 -124t-116.5 -46q-66 3 -100.5 57t-28.5 143z" />
<glyph unicode="7" horiz-adv-x="905" d="M42.5 1410q-8.5 -33 8.5 -58q40 -60 119 -80q42 -11 120.5 -27t94.5 -20q43 -11 59 -42t-4 -69q-11 -23 -36 -66.5t-35 -62.5q-40 -77 -90 -122.5t-127 -53.5q-14 0 -46 -18q-31 -23 -40 -49.5t14 -53.5q35 -32 52.5 -67t17.5 -74.5t-6.5 -72t-22.5 -79.5 q-32 -97 -43 -190q-13 -98 37 -161.5t149 -74.5q75 -9 134 19t94 92q60 103 122 266q19 51 30 76t34 61t56 56t79 30q42 8 44.5 41.5t-36.5 67.5q-44 37 -55.5 80t4.5 94q59 224 78 307q31 128 -1.5 176.5t-164.5 73.5q-61 11 -129 21t-154.5 22t-128.5 18q-18 0 -60.5 4.5 t-73 2t-58.5 -18.5q-27 -15 -35.5 -48z" />
<glyph unicode="8" horiz-adv-x="966" d="M59 1151q25 -95 88 -164q9 -10 50 -53t61 -68q51 -62 50 -99.5t-54 -102.5q-16 -20 -57 -66.5t-68 -82.5t-45 -75q-74 -146 -21 -270t209 -170q20 -6 43.5 -10t52 -7t44.5 -6q277 -8 465 267q78 116 30 270q-40 132 -108 205q-55 60 -66.5 119.5t21.5 134.5 q57 128 -11 319q-35 102 -117 156.5t-190 46.5q-142 -8 -282 -98q-61 -38 -86.5 -105.5t-8.5 -140.5zM299 1200q-2 36 28 60t62 12q108 -38 105 -156q-1 -38 -33.5 -56t-65.5 -1q-94 56 -96 141zM305 307q18 64 57 125q37 64 89 64q25 0 40 -33t13 -84q0 -89 -27 -133 q-19 -28 -55.5 -39t-67.5 4q-64 33 -49 96z" />
<glyph unicode="9" horiz-adv-x="927" d="M44 1140.5q-15 -94.5 30.5 -178.5t142.5 -133q15 -8 33 -15.5t31.5 -12.5t36.5 -12.5t32.5 -10.5t37 -10.5t34.5 -9.5q94 -27 100 -119q6 -83 10 -244q1 -24 1 -89t2 -111t6 -89q9 -77 55.5 -120.5t118.5 -46.5q71 -3 114.5 39.5t53.5 127.5q7 38 4 72q-1 34 -3.5 112 t-4.5 121.5t-6.5 108t-10.5 117.5q-14 117 -19 175.5t-1.5 154.5t24.5 174q3 13 6 35.5t5 29.5q-2 45 -9 81.5t-23 71t-40.5 57t-64 35t-91.5 9.5q-27 -1 -108.5 1.5t-108.5 -1.5q-175 -12 -299 -145q-74 -80 -89 -174.5zM420 1094q-6 60 49 98q27 17 37 -16q0 -66 -39 -105 q-3 -3 -10.5 -5t-10.5 -1q-26 21 -26 29z" />
<glyph unicode=":" horiz-adv-x="303" d="M40 444.5q-2 -19.5 9 -36.5q25 -35 71 -44.5t81 13.5q40 24 37 72q-5 39 -45 55q-6 3 -33 12q-66 3 -105 -39q-13 -13 -15 -32.5zM52.5 684.5q-7.5 -41.5 25.5 -72.5q23 -23 53 -30q67 -20 109 28q35 42 12 90q-23 49 -102 56q-5 -2 -22 -6t-26 -7q-42 -17 -49.5 -58.5z " />
<glyph unicode=";" horiz-adv-x="276" d="M49 649q-20 -34 4 -65q22 -25 59 -35t66 0q25 9 40 30.5t15 47.5q-6 19 -10 24q-28 46 -87 45t-87 -47zM58.5 257q2.5 -14 13.5 -17q49 -13 99 15t62 75q11 41 -24 69q-27 21 -72 21q-10 0 -28 -6q-31 -9 -40 -31t9 -51q11 -21 8.5 -31t-20.5 -22q-10 -8 -7.5 -22z" />
<glyph unicode="&#x3c;" horiz-adv-x="659" d="M63 426q129 -171 259 -244q72 -39 118 -35q17 0 36 10t26 23q14 26 -10 66q-15 21 -35 41q-39 35 -58 53.5t-33 40.5t-14 35.5t9 35t25.5 43t44.5 56.5q12 14 18 22q122 158 151 201q33 51 10.5 90t-84.5 41q-72 3 -135 -41q-58 -39 -120 -95t-101 -97t-104 -113 q-55 -62 -3 -133z" />
<glyph unicode="=" horiz-adv-x="686" d="M43 598q-9 -24 18 -47q17 -17 31 -19q257 -44 432 29q59 24 56 66q-3 45 -66 49q-43 2 -137 2q-21 -2 -81 -7t-93 -9q-43 -5 -142 -35q-7 -2 -18 -29zM49 420q-6 -40 37 -55q67 -27 104 -31q35 -3 99.5 -6t85.5 -4v2q107 0 129 2q60 3 106 20q11 3 21.5 16t11.5 25 q4 18 -6.5 32.5t-30.5 22.5q-14 7 -16 7q-241 47 -420 34q-15 -1 -72 -16q-44 -14 -49 -49z" />
<glyph unicode="&#x3e;" horiz-adv-x="667" d="M57 203q-34 -63 3.5 -120.5t109.5 -59.5q112 0 182 102q142 211 250 426q3 8 25 76q-3 6 -8.5 18t-10.5 21t-10 14q-40 32 -110.5 91t-129.5 107.5t-112 90.5q-48 38 -131 10q-38 -15 -49 -48t16 -63q22 -23 48 -47t60 -54.5t50 -45.5q61 -56 65.5 -85.5t-39.5 -96.5 q-105 -154 -209 -336z" />
<glyph unicode="?" horiz-adv-x="608" d="M43 969q8 -53 44.5 -82t88.5 -25q55 3 72 58q15 62 18 71q11 30 41 27q27 -3 31 -33q26 -131 -47 -225q-9 -12 -25 -32t-29 -36.5t-24 -32.5q-68 -92 -68 -200q0 -128 84 -183q37 -23 71 -14t56 47q22 42 19 84q-8 128 92 240q54 60 82 139q37 95 1 197t-124 153 q-90 50 -190 56q-89 6 -147 -57.5t-46 -151.5zM229 39q15 -35 54.5 -55.5t78.5 -14.5q32 4 55 29.5t21 54.5l-6 25q-25 54 -93 60.5t-103 -42.5q-20 -23 -7 -57z" />
<glyph unicode="@" horiz-adv-x="1284" d="M42.5 489.5q11.5 -190.5 166.5 -360.5q93 -93 246 -123q252 -41 389 -41q39 0 82 21q15 0 28 13t13 28q0 41 -62 41q-9 9 -19 14t-16 6h-6q-54 0 -141 10.5t-125 10.5q-70 17 -116.5 38.5t-88.5 63.5q-57 90 -86.5 164t-35.5 154.5t24 163t98 173.5q69 103 185 103h143 q160 -39 246 -82q7 -7 28.5 -26.5t29 -28.5t16 -27.5t8.5 -40.5q30 -123 0 -246q-9 -28 -28 -56.5t-32.5 -43t-42.5 -43.5q-31 -15 -51 -15t-51 15q-62 92 -62 184q21 43 21 123q12 32 2 49t-43 33q-80 59 -164 51t-164 -72q-44 -29 -60.5 -92t-0.5 -112q31 -46 67 -64 t97 -18q57 0 92.5 -25.5t70.5 -77.5q0 -10 10.5 -20.5t10.5 -20.5q143 -143 348 -41q61 49 104.5 121.5t59.5 155t6.5 164t-58.5 155.5t-132 121q-121 51 -215.5 77t-194.5 26h-102q-129 0 -267 -103q-20 -21 -50.5 -62t-51.5 -61q-137 -186 -125.5 -376.5zM537 600v62 q16 33 44.5 57t57.5 24l20 -20q0 -19 -5 -33t-18 -36t-18 -33q0 -16 -16 -28.5t-45 -12.5q0 9 -5 14t-10 6h-5z" />
<glyph unicode="A" d="M78 272q0 42 6 129v43v64q2 52 8 111t10 100.5t15.5 108t16.5 98t20.5 106.5t20 96t23 105t21.5 98q15 68 49.5 110.5t80.5 56.5q42 13 84 14h9q46 -2 95 -17q53 -18 85 -55.5t54 -96.5q66 -183 195.5 -516t179.5 -467q19 -52 41 -92q11 -35 30 -71q7 -46 33 -72 q14 -48 27 -80q0 -3 -1 -8t-1 -8q-2 -4 -11 -13q-6 -6 -13.5 -11.5t-13 -8.5t-15.5 -7.5t-15 -6.5q-72 18 -151 81q-78 56 -150 193q-40 88 -47 106q-21 58 -63 80q-37 20 -92 19h-15q-88 -6 -107 -80q-60 -207 -141 -315q-6 -8 -18 -25t-21.5 -29.5t-19.5 -23.5 q-38 -41 -82 -41q-11 1 -22 3q-57 12 -77 79q-28 81 -28 243zM526 834q-2 -16 -3 -33q0 -45 18 -91q24 -62 65 -61q38 -1 46 61q2 16 2 33q0 45 -18 91q-24 62 -65 61q-37 1 -45 -61z" />
<glyph unicode="B" horiz-adv-x="1085" d="M57 1382q-2 -19 -2 -40q0 -71 19 -160q23 -123 37 -262t25.5 -299.5t19.5 -239.5q0 -34 -0.5 -80t-0.5 -75.5t1 -53.5q2 -104 42 -148.5t140 -48.5h235q145 6 257 82q111 75 163 201q36 87 36 183q0 42 -7 87q-21 136 -74.5 231t-163.5 148q-50 23 -50 76q0 13 3 29 q30 128 35 153q5 29 5 58q0 111 -75 221q-41 66 -112 93q-39 15 -79 15q-33 0 -67 -10q-71 -22 -112 -53q-23 -17 -39.5 -26.5t-37.5 -16t-44 -3.5t-49 15q-20 9 -37 9q-19 1 -35 -11q-28 -22 -33 -74zM300 1262q9 24 75 69q38 30 92 58q16 9 30 -3.5t15 -42.5 q-9 -124 -43 -192q-5 -9 -18.5 -43t-27.5 -54t-36 -34q-31 12 -43.5 34.5t-18 60t-10.5 50.5q-17 54 -18 81q1 10 3 16zM444 544q18 45 76 72q16 8 30 23.5t29.5 36.5t24.5 31q28 30 55 30h6q30 -4 50 -45q50 -88 57 -223q-3 -118 -102 -244q-42 -45 -113 -45q-69 0 -78 58 q-6 30 -16 97.5t-19 104.5q-9 30 -9 56t9 48z" />
<glyph unicode="C" horiz-adv-x="921" d="M54 566q2 -85 7 -212q1 -23 2 -35q5 -69 50 -157q75 -144 220 -188q54 -16 107 -16q91 0 181 48q51 25 84 51q125 112 212.5 255.5t157.5 324.5q8 20 1.5 40t-25.5 32q-26 17 -49 17q-24 0 -44 -19q-37 -37 -69 -93q-23 -40 -63 -118.5t-60 -114.5q-79 -138 -199 -217 q-23 -15 -48.5 -9t-37.5 29q-39 70 -45 158q-1 14 -3.5 80.5t-3 88t-1.5 77.5v50v38q1 32 3.5 77t6.5 85q28 268 111 438q15 2 23.5 -1.5t16 -13t9.5 -10.5q31 -28 58 -28q4 1 8 1q30 4 49 44q10 22 10 45q0 39 -31 78q-54 70 -146 86q-23 4 -45 4q-65 0 -122 -35 q-61 -37 -131 -125q-100 -131 -154 -344q-24 -96 -33 -211q-8 -99 -8 -175q1 -13 1 -25z" />
<glyph unicode="D" horiz-adv-x="1126" d="M61 1444q4 -55 23 -238q2 -11 9 -64.5t8.5 -65t8.5 -64.5t8 -64.5t7 -64.5t6 -65t5 -65q4 -41 4 -57v-8q0 -4 -1 -13q0 -17 2 -53q2 -27 1.5 -43t-1.5 -22v-19q0 -58 5 -120q6 -74 16 -164.5t14 -138.5q8 -95 65 -143q48 -41 126 -41q14 0 30 1q304 24 437 232 q238 362 249 719q0 44 -2 67q-6 201 -127 385q-80 129 -206 167q-47 14 -95 14q-78 0 -157 -39q-12 -6 -36.5 -22.5t-45 -26.5t-39.5 -11q-26 -2 -41.5 16.5t-30 47.5t-29.5 41q-3 2 -10.5 9.5t-13.5 10.5q-42 28 -82 28q-25 0 -49 -11q-58 -27 -58 -105v-10zM436 1090 q-4 22 -4 42q0 106 100 179q23 14 48.5 6t35.5 -35q33 -79 37 -231q1 -16 1 -31q0 -255 -138 -506q-13 217 -80 576z" />
<glyph unicode="E" horiz-adv-x="1126" d="M57 522q-8 -48 -8 -93q0 -186 141 -333q114 -114 256 -114h7q7 0 39.5 2.5t42.5 3t39.5 3t43 4.5t39.5 5.5t43 7.5t40 9.5t43 12.5t40 15q134 59 215 164q141 187 217 330q30 72 35 92q4 12 4 22q0 26 -24 43q-14 14 -34 14t-46 -14q-59 -36 -105 -137 q-22 -46 -74 -126.5t-61 -96.5q-89 -148 -295 -193q-36 -10 -70 -10q-55 1 -101 27q-74 42 -113 139q-19 46 -23 93q-1 15 -1 29q0 33 6 67q10 49 23 87t36 91q50 116 176 131q81 9 104 10q47 9 76 32t29 52q-1 33 -21.5 55t-56.5 43q-96 39 -119 55q-33 20 -46 54 q-7 18 -7 36q0 16 6 33q22 66 98 76q8 1 15 1q67 0 92 -58q3 -7 8.5 -27.5t11.5 -30.5q22 -36 56 -40q3 0 7 -1q31 0 56 29q39 34 45 81q1 9 1 17q0 37 -21 72q-39 58 -107 96q-95 55 -211 55q-12 0 -24 -1q-18 1 -34 1q-87 0 -157 -26q-96 -35 -143 -119q-32 -57 -32 -120 q0 -30 7 -62q15 -55 41 -109q20 -34 17 -60.5t-33 -51.5q-155 -130 -189 -367z" />
<glyph unicode="F" horiz-adv-x="1024" d="M129 768h8q0 -63 -1 -179.5t-1 -212t2 -179.5q1 -65 31 -117t77 -79t107 -31q8 -1 16 -1q52 0 105 25q78 38 84 110q6 43 6 132q0 34 -0.5 56t0.5 32v9q1 24 -3 79q-4 67 -6 87.5t-7.5 87t-7.5 87.5q-1 12 -1 22q0 47 16 65q18 22 81 30q103 14 145 31q14 6 27 14 q23 12 23 40.5t-25 41.5q-64 40 -154 43q-34 1 -57.5 4.5t-40 11.5t-26 14t-17 22.5t-10 26.5t-8 34.5t-9.5 39.5q-4 12 -14 64q-4 25 -4 42q1 21 7 29q10 12 50 12q9 0 19 -1l440 -13q98 0 143 23q56 22 64 69q1 5 1 10q0 51 -59 81q-40 22 -59 22q-16 3 -49 9t-48.5 8.5 t-48 7t-48.5 3t-50 -2.5q-58 -9 -116 -11h-25q-50 0 -110 6q-76 8 -107.5 11.5t-126.5 17.5q-37 6 -67 6q-61 0 -93 -24q-46 -35 -53 -144v-100v-471z" />
<glyph unicode="G" d="M61 651q11 -175 13 -190q38 -256 260 -383q111 -64 256 -64q43 0 90 6q201 25 324 142q162 157 162 369q0 31 -3 63q-9 95 -100 129q-90 32 -196 32q-20 0 -40 -1q-38 -2 -92 -21q-55 -18 -61 -67v-6q0 -42 43 -74q13 -9 29.5 -16t28 -10.5t32 -8.5t29.5 -8 q58 -16 58 -70q0 -6 -1 -12q-23 -162 -172 -236q-30 -15 -60 -15q-16 0 -31 4q-45 12 -79 54q-78 93 -88 234q-3 80 -3 173q0 56 1 116q3 114 51 247q59 165 203 236q62 31 113 31q38 0 69 -17q55 -16 78 -18q9 -1 21.5 5.5t17.5 14.5q12 24 2 45q-14 37 -44 57t-77 35 q-76 21 -155 21q-42 0 -85 -6q-123 -17 -240 -84.5t-188 -167.5q-166 -235 -166 -529v-10z" />
<glyph unicode="H" d="M74 188q-1 -9 -1 -17q0 -26 7 -52q20 -88 90 -123q34 -17 70 -17q39 0 82 19q128 55 155 217q5 33 9.5 99t7.5 94q9 58 58 90q37 24 80 25q15 0 30 -3q18 -3 31.5 -16.5t13.5 -32.5q0 -38 -11 -102q-16 -84 -16 -159q0 -36 4 -69q14 -109 68 -176q41 -51 91 -51 q37 0 79 29q129 95 182 290q51 201 51 367q0 48 -4 92q1 20 1 41q0 218 -67 541q-18 91 -55 145q-45 65 -113 65h-12q-76 -6 -117 -85q-34 -61 -34 -150q-2 -38 -3 -114t-3 -113q-5 -99 -29 -225q-11 -74 -103 -74q-44 0 -66.5 17.5t-29.5 62.5q-7 32 -16 92.5t-12 79.5 q-12 54 -38 174t-40 184q-21 89 -66 142q-50 63 -123 63q-14 0 -30 -2q-86 -16 -101 -129q-3 -44 -3 -86q0 -81 11 -158q22 -150 22 -299q0 -155 -24 -309q-7 -55 -11.5 -115t-8.5 -138t-6 -114z" />
<glyph unicode="I" horiz-adv-x="655" d="M46 51q10 -36 52 -47q47 -10 138 -25.5t122 -21.5q193 61 211 68q39 15 45 49q1 5 0 9q0 27 -28 46q-52 35 -69 82.5t-19 120.5q-3 306 -31 567q-4 47 -11.5 100t-17 116t-14.5 99q-2 11 -2 20q0 38 27 54q5 3 18 9.5t19 10.5t12 13.5t6 21.5q0 10 -3.5 18.5t-7 13.5 t-12.5 11t-12.5 8.5t-16 8t-14.5 6.5q-115 59 -149 74q-29 14 -60 14q-60 0 -127 -51q-20 -14 -20 -35q0 -11 6 -25q20 -57 28 -126q6 -52 5 -97q-1 -15 -1 -30q-1 -26 -1 -55q0 -34 2 -72q1 -70 1 -210t2.5 -250t10.5 -210q1 -16 1 -30q0 -114 -68 -185q-24 -26 -24 -53 q0 -8 2 -17z" />
<glyph unicode="J" horiz-adv-x="1126" d="M86.5 1199q1.5 -28 19.5 -40q42 -33 80 -35q29 -2 76 -3.5t57 -2.5q52 3 62 6q17 2 31 2.5t24.5 -2t18 -5t13.5 -9.5t9.5 -12t7 -16t5 -18t4.5 -22q41 -172 96 -469q6 -33 6 -68q0 -84 -35 -183q-21 -65 -38 -96t-43.5 -40.5t-58.5 4.5t-87 52q-67 48 -123 48 q-7 0 -14 -1q-37 -4 -57 -33q-16 -22 -16 -47q0 -8 1 -16q6 -37 45 -93q38 -58 100 -95t130 -49q40 -7 80 -7q31 0 62 4q73 9 134.5 36.5t109.5 75.5t66 109q57 177 59 277v20q0 207 -59 377q-57 170 -90 237q-25 57 -25 93q0 21 8 34q22 39 121 54q13 3 43.5 5.5t46.5 6.5 q78 21 111 39q45 23 45 68q0 38 -37 67q-44 35 -141 43q-27 2 -55 2q-201 0 -410 -90q-251 -107 -289 -125q-26 -10 -78 -43q-17 -12 -15.5 -40z" />
<glyph unicode="K" d="M98 1260q1 -62 1.5 -176.5t1.5 -209.5t3 -178q6 -247 23 -460q6 -78 68 -135.5t139 -59.5h9q77 1 131 49q58 52 67 137q2 18 2 105v239q9 -2 17 -5t14.5 -8.5t10 -9t10.5 -11.5t9 -11q83 -106 113 -137q175 -178 246 -334q43 -96 172 -180q21 -13 40 -13q16 0 30 8 q33 18 36 62q1 15 1 30q0 59 -19 116q-55 174 -185 301q-211 211 -313 317q-37 37 -37 63q0 27 41 62q42 37 124 103.5t116 95.5q71 61 121 108q43 43 49 107q1 5 1 10q0 31 -22 52q-18 18 -43 18q-8 0 -18 -2q-89 -18 -158 -78q-141 -113 -301 -244q-7 -5 -26.5 -22 t-30.5 -25q-13 -9 -28 -5t-21 19q-31 70 -52 140q-58 169 -108 243q-52 78 -105 101q-23 10 -43 10t-38 -9q-36 -19 -42 -65q-6 -39 -6 -118z" />
<glyph unicode="L" horiz-adv-x="819" d="M59 207q-1 -12 -1 -24q0 -121 112 -191q128 -70 275 -70h12h10q90 0 192 49q56 24 84 62q23 29 23 53q0 7 -2 14q-10 35 -57 39q-106 4 -141 4h-11h-27q-26 0 -42 1q-24 2 -46.5 11t-29 28.5t-4.5 53.5t14 85q34 125 93.5 356.5t76.5 296.5q78 293 96 424q1 8 1 15 q0 58 -50 85q-30 19 -61 19q-33 0 -66 -23q-39 -25 -72 -94q-79 -150 -135 -330q-11 -36 -190 -631q-40 -125 -54 -233z" />
<glyph unicode="M" d="M-72 133q3 31 21 139q95 493 114 836q4 66 33 217q13 80 92 92q13 2 25 2q61 0 100 -51q26 -35 62 -108q59 -111 108.5 -191t110.5 -149q31 -36 52.5 -37t49.5 32l125 160q72 96 82 185q5 37 23 90q28 95 125 98h12q45 0 79 -20q40 -23 58 -70q44 -108 51 -291 q2 -39 3 -236q-4 -239 -17 -358q-10 -88 -10 -266q0 -6 -1.5 -26.5t-0.5 -30.5q-3 -28 0 -56q-7 -26 -21 -67q-38 -30 -104 -37q-81 30 -133.5 101t-59.5 169q-5 60 -7 135q-1 50 -1 94v41q0 30 0.5 64t-0.5 72q0 94 -2 141q0 21 -18.5 27.5t-38.5 -5.5q-30 -20 -64 -67 q-45 -59 -91 -71q-13 -3 -27 -3q-37 0 -85 23q-27 14 -131 84q-26 18 -43 9t-18 -42q-3 -58 -10.5 -128.5t-14.5 -115.5t-20.5 -132t-18.5 -120q-10 -80 -28 -137q-23 -75 -65 -105q-39 -27 -106 -26h-14q-69 0 -118 33q-59 35 -59 89q0 6 1 13z" />
<glyph unicode="N" d="M53 1233q9 -120 12.5 -253t5 -306t3.5 -254q0 -69 16 -187q8 -40 31 -88q50 -86 143 -86h12q89 0 134 95q33 59 36 149q0 79 3 156q0 7 -1 23t-1 26t7 19t21 10q10 1 18 -2t14 -12t9.5 -15.5t8.5 -19.5t7 -17q36 -65 46 -80q129 -220 180 -313q36 -60 94 -87 q31 -14 63 -14q29 0 59 11q64 24 105 104q42 88 62 176q26 118 32 260q4 84 4 149q1 45 -1 81q-4 88 -17 260q-1 33 -10.5 74.5t-17 63t-25.5 73.5q-35 107 -129 170q-51 35 -95 35q-15 0 -30 -4q-56 -16 -88 -95q-29 -81 -29 -156q0 -30 4 -59q31 -250 35 -293 q9 -106 12 -202q0 -3 0.5 -18t0 -21t-4 -17t-10.5 -20q-7 0 -12.5 1t-10.5 4.5t-8.5 5.5t-7.5 8.5t-5.5 9t-5.5 10.5l-5 10q-38 56 -111.5 170t-111.5 170q-111 164 -138 295q-15 75 -73 133q-48 43 -101 43q-23 0 -47 -8q-71 -23 -82 -121v-47z" />
<glyph unicode="O" horiz-adv-x="1003" d="M96 319q30 -118 88 -167q150 -125 316 -125q66 0 135 20q99 27 151 115q82 140 123 264q34 103 34 215q0 22 -1 43q-4 120 -10 178q-11 99 -33 162q-10 31 -37.5 83t-34.5 67q-15 30 -22 51q-26 75 -63.5 103.5t-114.5 33.5h-13q-178 0 -311 -154q-127 -150 -186 -383 q-43 -168 -43 -312q0 -103 22 -194zM389 457q3 260 94 485q16 43 66 121q25 37 48 37h2q24 -2 52 -45q30 -47 46.5 -107.5t20.5 -105.5t7 -117q1 -9 0 -19t-4 -27t-4 -30q1 -14 1 -28q0 -154 -71 -299q-32 -66 -59 -93q-32 -33 -70 -33q-12 0 -24 2q-52 12 -72 70 q-33 97 -33 189z" />
<glyph unicode="P" d="M102 1335q9 -42 11 -57q40 -274 90 -598q39 -236 39 -420v-28q0 -69 12 -136q15 -81 60.5 -120t125.5 -44q10 -1 19 -1q67 1 105 39q42 41 42 114v10q-1 17 -6 52t-6 53q-5 41 -5 76q0 15 1 28q0 51 53 64l45 6q201 35 329 188t128 361q-6 28 -9.5 81.5t-11.5 100.5 t-30 86q-35 68 -89 125t-128 99q-73 43 -161 56q-36 5 -74 5q-55 0 -116 -11q-101 -22 -144 -22h-4q-57 1 -110 28q-25 14 -52 14h-10q-32 -3 -58 -17q-26 -13 -40 -49q-8 -22 -9 -50q0 -16 3 -33zM455 1126q-2 12 -2 22q0 55 53 79q6 4 26 12q52 22 97 22q37 0 69 -15 q71 -34 97 -134q6 -22 9.5 -53.5t4.5 -36.5q-6 -229 -168 -336q-31 -23 -57 -14.5t-33 45.5q-14 51 -96 409z" />
<glyph unicode="Q" d="M43 705q19 -279 184 -494q40 -58 131 -102q106 -54 207 -54q59 0 117 19q53 18 97 18q27 0 51 -7q61 -19 112 -93q41 -56 119 -66q14 -2 26 -2q58 0 84 43q9 16 9 34q0 32 -29 69q-73 93 -133 161q-23 28 -23 59q0 22 11 44q4 7 15.5 28t18.5 31q126 189 146 461 q2 28 2 55q0 152 -64 263q-74 129 -247 227q-60 37 -128 37q-36 0 -75 -11q-45 -10 -82 -10q-152 0 -297 -131q-123 -107 -180 -250t-72 -329zM381 668q3 255 94 422q46 84 115 139q38 29 79 29q31 0 64 -17q148 -77 195 -225q16 -56 18 -94q4 -49 4 -97q0 -172 -53 -327 l-14 -25q-9 -15 -27.5 -19.5t-32.5 7.5q-15 14 -45 43t-45 43q-41 38 -76 61q-24 15 -44 15q-18 0 -33 -11q-23 -16 -23 -41q0 -15 8 -34q29 -67 64 -121q9 -16 30.5 -47t30.5 -47q19 -32 8 -60t-45 -37q-24 -8 -46 -8q-58 0 -103 55q-96 119 -119 291q-2 24 -2.5 60.5 t-1.5 44.5z" />
<glyph unicode="R" d="M76 1235q3 -46 12 -148q8 -103 12 -179q3 -52 3 -100q0 -24 -1 -48q-1 -21 -1 -46q0 -98 16 -256q20 -196 20 -282q0 -15 6 -41t7 -29q14 -47 59 -75q67 -38 130 -38q23 0 46 5q112 22 112 122q0 11 -1 23q-5 43 -17 119t-16 103q-8 74 -8 110q0 8 7.5 19t14.5 12 q8 4 20 2.5t17 -6.5q53 -61 70 -88q13 -19 55.5 -85.5t69.5 -99.5q92 -115 199 -174q91 -50 204 -50q19 0 39 1q45 4 68 12q56 20 61 68v6q0 41 -39 66q-62 34 -88 41q-112 23 -195 145q-108 157 -184 229q-13 13 -23 22.5t-16.5 19.5t-12 16t-5.5 15t-1.5 12.5t4.5 13.5 t8 13.5t13.5 16t16.5 17t22 20.5q32 32 72 86q88 114 100 256q2 19 2 38q0 87 -46 154q-56 81 -165 109q-43 11 -125 12q-70 0 -202 -51q-42 -16 -52.5 -12.5t-35.5 39.5l-18 27t-23 30q-33 30 -77 35q-7 1 -14 1q-36 0 -66 -22q-36 -26 -46 -81q-3 -20 -8 -125zM389 1006 q-2 17 -2 33q1 21 5 41q8 34 32 60t47 43.5t61 39.5q4 2 15.5 9.5t17 10.5t16.5 7.5t18.5 5t17 -1t18.5 -7.5q16 -11 21 -27t4 -25.5t-8.5 -33.5t-8.5 -28q-44 -142 -192 -248q-14 -12 -31.5 -4.5t-20.5 26.5q-2 17 -5 50t-5 49z" />
<glyph unicode="S" horiz-adv-x="921" d="M66 336q0 15 4 35q4 38 26 61.5t54 26.5h10q26 0 52 -14q30 -17 46 -46q19 -39 23 -114q10 -87 14 -101q14 -57 53 -84q16 -14 33 -14q16 0 33 12q18 18 28 33q66 106 66 229v21q-6 135 -90 242q-43 56 -197 233q-111 132 -121 276q-1 14 -1 28q0 130 83 261 q82 130 230 133q96 0 143 -10q139 -28 197 -178q10 -28 10 -56q0 -34 -16 -72q-28 -66 -87 -95q-26 -12 -50 -0.5t-29 37.5q-4 21 -7 58t-4 44q-7 40 -20 70q-12 27 -44 31.5t-54 -17.5q-43 -40 -43 -104v-17q0 -149 100 -264q36 -43 106.5 -130t106.5 -130 q14 -17 38.5 -53.5t37.5 -53.5q74 -104 73 -253q0 -38 -4 -80q-12 -108 -96 -177q-140 -119 -369 -161q-22 -4 -43 -4q-64 0 -126 37q-84 50 -126 139q-40 84 -40 221z" />
<glyph unicode="T" horiz-adv-x="1024" d="M41 1319q3 -26 19 -43.5t30.5 -24t42.5 -16.5q20 -6 186 -43q37 -8 49 -19t15 -43q15 -368 16 -440q1 -36 2 -127t2.5 -140t6.5 -123.5t14 -135.5q16 -91 41 -125q33 -47 85 -67q31 -12 64 -12q21 0 43 5q51 12 79 52q27 39 26 101q0 1 -6 181q-4 124 -7.5 192t-8.5 171 t-11 192.5t-14 175.5q-2 35 -2.5 54.5t0.5 40.5t6.5 32t13 23t23.5 19.5t35 15t49 16.5q90 28 129 90q19 28 19 56q0 9 -2 19q-8 38 -48 64q-61 37 -162 37l-106 -20q-234 -53 -335 -64q-68 -8 -130 -8q-38 0 -58 -4q-106 -24 -106 -76v-6z" />
<glyph unicode="U" d="M86 498q46 -244 219 -389.5t418 -145.5q159 2 256.5 72.5t144.5 220.5q20 61 27 152q2 30 2 186q0 154 -2 184q-9 186 -92 340q-46 84 -133 90q-7 1 -14 1q-50 1 -78 -33q-22 -26 -22 -61q0 -16 5 -34q13 -39 21 -57q36 -86 51 -187q14 -92 14 -168q-1 -7 -1 -15 q-2 -82 -11 -193q-13 -134 -94 -223q-32 -36 -67 -36q-28 0 -58 23q-121 95 -158 240q-37 148 -37 244q0 311 41 505q17 75 17 136q0 26 -3 49q-7 55 -47 85q-31 23 -73 23q-11 0 -23 -2q-59 -6 -92 -51q-55 -67 -74 -117q-3 -7 -20 -50.5t-22 -56t-18.5 -49t-20 -56.5 t-15 -50t-14.5 -57q-44 -183 -44 -338q0 -96 17 -182z" />
<glyph unicode="V" horiz-adv-x="1126" d="M61 1114q183 -468 242 -795q4 -18 9 -38.5t12 -44.5t10 -37q31 -121 164 -179q47 -20 90.5 -20t83.5 20q80 40 106 140q2 7 7 32.5t8 37t9 31t13 34.5q43 87 84.5 197.5t60.5 172.5t62 215t53 187q12 41 29 152q-4 96 -6 112q-8 66 -47 72q-17 3 -32.5 -5.5t-22.5 -16.5 t-21 -27q-39 -51 -70 -156q-20 -64 -41.5 -137.5t-47 -161t-40.5 -137.5q-1 -3 -8.5 -28.5t-10 -32t-9.5 -27.5t-12 -31.5t-13 -26t-16 -28.5q-9 -11 -21 -11.5t-20 11.5q-24 46 -37 84q-60 175 -109 260q-171 293 -223 379q-24 41 -59 71q-36 39 -99 45q-8 1 -16 1 q-49 0 -79 -28q-34 -31 -34 -88q0 -70 51 -198z" />
<glyph unicode="W" d="M-20 1110q11 -83 45 -188q44 -126 75 -308q13 -72 36.5 -211t35.5 -204q11 -59 38.5 -88t84.5 -39q7 -2 15.5 -3t18.5 -1.5t15 -1.5h10q74 0 111 42q26 30 26 71q0 20 -6 44q-2 2 -2 10q-5 19 -5 37q0 65 65 125q18 16 33 16q20 0 34 -30q12 -25 33 -73t31 -70 q33 -71 114 -74h12q87 0 124 82q17 36 40 76.5t38.5 64.5t49 73.5t44.5 65.5q145 216 168 506q-3 119 -58 213q-35 62 -88 80q-27 13 -51 13q-17 0 -35 -8q-40 -16 -59 -66q-23 -59 -23 -118v-13v-13q0 -97 -28 -250q-23 -165 -111 -319q-10 -18 -28 -19.5t-31 13.5 q-9 8 -18.5 19t-20.5 24t-17 20q-46 46 -94 51q-12 2 -22 2q-35 0 -60 -18q-19 -14 -22.5 -34t2.5 -42q0 -2 1 -6t1 -6q-4 -38 -35 -43q-19 -2 -33 31q-28 108 -33 141q-5 28 -11.5 55.5t-17 56.5t-18.5 51t-23 53t-23.5 48.5t-27.5 51.5t-26.5 47.5t-29 50.5t-27.5 47 q-35 57 -97 69q-17 4 -32 4q-36 0 -60 -21q-29 -24 -29 -68q0 -9 1 -19z" />
<glyph unicode="X" d="M63 1186q-11 -17 -11 -36q0 -28 24 -60q53 -73 133 -189q129 -184 174 -254q18 -30 16 -47.5t-26 -44.5q-114 -133 -211 -244q-59 -65 -74 -133q-3 -13 -3 -25q1 -30 19 -53q26 -32 72 -34q56 0 96 30q37 23 80 66q24 21 70 66t70 67q25 24 38.5 23.5t34.5 -25.5 q27 -36 37 -51q86 -120 221 -195q114 -65 258 -82q36 2 56 8.5t32 26.5q12 23 12 43q0 29 -24 53q-59 63 -104 94q-125 85 -187 224q-13 36 -43 94q-18 30 -18 60q0 44 39 89q157 177 299 353q36 46 36 84q-1 14 -5 28q-18 48 -97 68q-17 3 -35 3q-26 0 -53 -7 q-79 -25 -127 -84l-160 -184q-32 -37 -45 -48q-21 -21 -47 -2l-43 45q-101 107 -196 205q-86 86 -217 105q-9 1 -17 1q-50 0 -74 -38z" />
<glyph unicode="Y" horiz-adv-x="1024" d="M84 1112q-5 -49 -5 -91q0 -89 25 -142q7 -14 13 -23q78 -106 129 -147q99 -78 218 -78q38 0 79 8q11 2 25.5 12t24.5 16.5t25.5 8.5t26.5 -12q13 -13 16 -31t-0.5 -46.5t-3.5 -37.5q0 -219 -2 -328q0 -61 2 -92q8 -38 23 -61q26 -35 78 -48q28 -8 54 -8q23 0 46 6 q75 20 86 119q4 29 4 92v224q2 52 2 104q0 249 -43 520q-12 78 -33 113q-43 74 -116 74q-78 -3 -101 -88l-55 -191q-30 -121 -98 -197q-23 -26 -51.5 -20t-40.5 39q-5 9 -7.5 18.5t-4 23t-1.5 18v24v20.5q3 157 3 261q0 53 -1 92q-1 52 -25 81t-71 41q-23 6 -43 6 q-63 0 -108 -57q-53 -68 -70 -223z" />
<glyph unicode="Z" d="M86 195q-9 -33 -9 -61q0 -113 142 -152q44 -11 88 -11l88 11q21 5 41.5 9t44 7t40.5 5t44.5 3.5t40.5 2t44.5 1t40.5 0.5h45h42h25q147 0 278 33q35 11 74 33q20 12 20 39.5t-22 40.5q-27 18 -57 30q-71 24 -145 24q-46 0 -93 -9q-75 -13 -161 -13q-53 0 -111 5 q-45 3 -45 49v6q4 69 53 184q44 109 134 327t134 326q4 11 15.5 44t18 47.5t19.5 38.5t29.5 41t38.5 30q25 18 19 48t-35 46q-54 22 -62 23q-44 5 -145 17t-154 18q-320 -35 -323 -35q-22 -3 -70 -37q-15 -9 -12 -33.5t18 -36.5q22 -16 52.5 -23.5t45 -8t56.5 -0.5h13 q68 0 96 -10q30 -10 26 -44.5t-51 -107.5q-2 -5 -7.5 -14.5t-7.5 -14.5q-248 -485 -356 -878z" />
<glyph unicode="[" horiz-adv-x="555" d="M41 51q3 -101 102 -129q169 -45 363 72q10 8 7 25.5t-15 23.5q-20 12 -42 16.5t-57.5 5t-44.5 1.5q-57 6 -74 24.5t-22 77.5q-2 25 -2 72v485q0 29 -1 88t-1 88q0 73 49 98q15 8 37 27q14 12 10.5 33.5t-20.5 25.5q-34 12 -71.5 12t-72 -12.5t-58 -45.5t-26.5 -83 q-4 -64 -20 -202q-1 -11 -8.5 -69t-9 -75.5t-7 -67.5t-7.5 -77t-5 -69.5t-3.5 -80t-0.5 -75.5v-189z" />
<glyph unicode="\" horiz-adv-x="876" d="M43.5 1123q-5.5 -24 5.5 -54q66 -142 92 -190q23 -41 140 -246q76 -125 127 -252q43 -111 165 -311q24 -44 64 -76q37 -32 82.5 -31.5t85.5 31.5q22 15 28.5 39t-4.5 49q-18 38 -49 84q-27 40 -55.5 91t-44.5 83t-48.5 99t-43.5 89q-4 8 -4 11q-26 23 -33 57q-4 4 -4 6 q-14 18 -21 29q-9 16 -45 78q-12 9 -22 30q-17 28 -19 31q-38 59 -174 274q-19 29 -30.5 45t-31.5 36t-42 32q-54 28 -94 2q-19 -12 -24.5 -36z" />
<glyph unicode="]" horiz-adv-x="505" d="M42.5 1058q-4.5 -17 4.5 -26q38 -29 49 -31q55 -11 72.5 -46t19.5 -97q1 -45 2 -213t5 -276t14 -213q3 -49 -41 -72q-10 -5 -37 -23q-30 -19 -27 -47q5 -37 48 -51q105 -28 112 -31q110 -40 162.5 5.5t34.5 156.5q-17 106 -24 310.5t-9 228.5q-13 185 -41 348 q-12 70 -40 92.5t-99 22.5q-20 0 -60 -4q-10 0 -39.5 3t-50 0.5t-39.5 -12.5q-12 -8 -16.5 -25z" />
<glyph unicode="^" />
<glyph unicode="_" horiz-adv-x="899" d="M41 -203q3 -43 51 -61q72 -33 164 -23q89 6 168 13q31 0 80 -0.5t84.5 -0.5t66.5 1q85 4 125 12q78 19 78 86q0 57 -55 80q-81 33 -121 37q-242 15 -559 -62q-10 -1 -39 -16q-46 -26 -43 -66z" />
<glyph unicode="a" horiz-adv-x="716" d="M66 178q9 -140 147 -166q27 -5 49 -5q29 0 49 9q31 15 55 15q8 0 16 -2q30 -7 64 -41q60 -61 136 -64h8q72 0 137 51q104 79 147 242q7 25 -18 37q-21 9 -41 -8q-13 -10 -22 -25l-35 -55q-31 -54 -68 -103q-27 -39 -56 -39q-8 0 -16 3q-30 10 -34 65q-2 20 -2 66 q0 8 10 262q-14 99 -25 145q-15 67 -71 99q-35 20 -74 20q-24 0 -51 -8q-61 -16 -105 -60q-139 -150 -184 -284q-17 -57 -17 -119q0 -17 1 -35zM250 158q0 52 4 65q38 132 145 264q23 -11 19 -30q-11 -94 -27 -197q-13 -83 -72 -133q-20 -13 -40 -10q-29 3 -29 41z" />
<glyph unicode="b" horiz-adv-x="737" d="M10 1069q0 -57 13 -209q1 -11 8 -73t9 -84t6 -69q6 -48 6 -85v-25q0 -25 -1 -49q0 -62 4 -176q2 -97 39 -240q20 -67 66 -100q29 -20 52 -20q19 0 32 14q9 9 18.5 15t16.5 9.5t19 4.5t17.5 2t20 -1t18.5 -3t21 -4.5t20 -4.5q30 -6 58 -6q59 1 113 29q78 42 116 131 q26 62 26 130q0 42 -10 87q-11 54 -48 102q-37 50 -103 76q-38 15 -78 14q-31 0 -63 -8q-12 -3 -52 -18q-25 -7 -35.5 1t-13.5 36v12v14q0 56 -7 121q-8 73 -17 125.5t-25 136t-23 127.5q-11 71 -75 219q-2 5 -11 19q-20 36 -53 36q-5 0 -10 -1q-37 -6 -47 -43 q-12 -39 -14 -66q-3 -28 -13 -176zM305 252h2q0 1 0.5 39t-0.5 39v7q1 56 61 91q43 24 79 24q19 0 36 -6q39 -12 49 -55q8 -41 8 -79q0 -93 -48 -162q-26 -36 -72 -46q-13 -3 -25 -3q-32 0 -59 18q-24 15 -27 45q-1 15 -2 44t-2 44z" />
<glyph unicode="c" horiz-adv-x="696" d="M57 182q-1 -9 -1 -17q0 -95 96 -145q52 -26 119 -26h14q10 -1 21 -1q78 0 163 52q210 126 322 252q25 35 30 45q7 13 -3 29.5t-27 19.5h-8q-32 0 -54 -22q-29 -27 -86 -84q-105 -105 -246 -168q-53 -21 -73 -21q-27 0 -42 15t-12 41q32 170 68 245q46 101 106 166 q16 17 28 17q16 0 24 -31q1 -3 3 -10.5t3 -11t4 -8t8 -6.5t12 -3q5 -1 10 -1q29 0 44 32q14 28 14 53q-2 34 -23.5 59.5t-56.5 34.5q-21 5 -42 4q-53 0 -107 -28q-287 -157 -308 -482z" />
<glyph unicode="d" horiz-adv-x="819" d="M37 317q3 -174 162 -249q64 -26 123 -29q58 -4 88 -4q53 0 59 -51q7 -71 51 -95q32 -18 70 -18q25 0 53 8q55 13 77 45q19 29 19 80v14q-1 21 -4 59.5t-5 70t-3 59.5q0 348 39 667q12 118 14 177q1 11 1 22q0 33 -7 66q-16 54 -72 63q-7 1 -14 1q-34 0 -63 -32 q-38 -40 -60 -124q-10 -43 -28.5 -129.5t-28.5 -129.5q-3 -15 -7 -47.5t-9.5 -56.5t-16.5 -41q-13 -21 -37 -26.5t-55.5 -5.5t-48.5 -7q-7 -4 -25 -8v2q-77 -21 -108 -35q-164 -74 -164 -246zM272 309q44 124 158 146q27 7 41 -35q-12 -177 -14 -201q-2 -28 -41 -43 q-26 -9 -48 -9q-40 0 -67 28q-36 34 -36 76q0 18 7 38z" />
<glyph unicode="e" horiz-adv-x="614" d="M27 248q0 -109 73 -177.5t187 -68.5h9q66 0 132 39q61 37 174.5 149t173.5 185q12 17 15 41q3 10 -8.5 23.5t-22.5 15.5q-35 0 -51 -19q-14 -12 -201 -200q-87 -87 -156 -121q-20 -9 -37 -9q-31 0 -51 31q-30 48 -30 99q0 19 4 38q4 27 26 33q7 2 21.5 5t21.5 5 q170 46 256 226q15 34 15 63q0 12 -2 22q-8 37 -48 74q-53 54 -127 60q-9 1 -18 0q-63 0 -117 -39q-239 -180 -239 -468v-7zM264 446q23 96 98 168q18 18 39 13q17 -4 21 -35q2 -10 2 -33v-6q0 -99 -94 -154q-29 -16 -54 0q-23 13 -12 47z" />
<glyph unicode="f" horiz-adv-x="716" d="M82 244q3 -103 47 -193q61 -128 213 -160q19 -3 37 -3q85 0 135 77q86 134 86 257v14q-4 139 -18 196q-2 8 -2 14q0 29 34 31q5 1 11 1t12.5 -0.5t9.5 -0.5q183 7 238 223q2 8 2 23q-3 40 -37 51q-30 7 -49 -16q-13 -15 -29 -47q-33 -74 -37 -82q-41 -72 -95 -72 q-39 0 -85 39q-15 11 -23 22q-12 14 -24 30t-20.5 29t-20.5 33t-17.5 30t-18.5 34t-17 31q-5 10 -6.5 22t-1.5 20.5t2 23.5t2 22q3 31 8 93t8 93h-8q0 18 0.5 50t0.5 57.5t-1 48.5q0 50 -27 106q-19 37 -51 37h-6q-40 0 -55 -39q-14 -32 -25 -84q-6 -32 -58 -317t-87 -432 q-27 -117 -27 -238v-24zM295 219q1 7 6 60t6.5 67t6.5 57.5t9.5 66t12 56t16.5 62.5q0 2 17 35q77 -100 100 -209q17 -72 17 -143q0 -81 -23 -160q-6 -20 -27 -62q-15 -26 -42.5 -28.5t-49.5 22.5q-19 29 -22 37q-27 78 -27 127v12z" />
<glyph unicode="g" horiz-adv-x="757" d="M66 180q12 -103 98 -157q59 -35 133 -35q26 0 53 4q11 2 30.5 9t27.5 9q13 3 23 -5.5t13 -22.5q0 -38 -14 -58q-15 -26 -53 -74q-6 -8 -24.5 -32.5t-27.5 -37t-22 -33.5t-22 -40q-32 -83 -35 -94q-3 -19 -3 -36q0 -74 60 -118q39 -29 81 -29q38 0 79 25q55 33 82 99 q64 175 94 423q13 67 57 101q119 79 213 117q33 11 82 36q34 19 19 41q-15 24 -45 13q-12 -4 -29.5 -12t-26.5 -11q-94 -40 -258 -117q2 21 3.5 46t2.5 32q4 81 4 142t-4 102q-9 120 -122 154q-68 25 -129 25q-20 0 -39 -3q-109 -10 -162 -74q-142 -163 -142 -337 q0 -26 3 -52zM272 213v11q0 120 99 259q3 8 9 15t16.5 16t15.5 14q25 19 48 23.5t34 -8.5q6 -8 7 -17.5t-1 -16t-6 -16t-5 -14.5q-27 -112 -45 -229q-7 -91 -67 -141q-28 -25 -52 -25q-6 0 -12 2q-29 11 -37 55q0 49 -4 72zM332 -414q6 14 17.5 42.5t17.5 41.5q11 25 20 29 q7 2 16 -2t9 -31q0 -56 -27 -143q-8 -21 -27 -15q-4 2 -11.5 9.5t-10.5 9.5q-15 27 -4 59z" />
<glyph unicode="h" horiz-adv-x="757" d="M61 98q-1 -10 -1 -19q0 -38 24 -59q34 -32 80 -32q12 0 26 2q62 12 86 65q41 115 46 146q21 114 149 229q36 36 73 36q5 0 9 -1q3 -16 2 -22.5t-7.5 -20.5t-8.5 -21q-53 -122 -62 -266v-6q0 -116 113 -162q27 -10 53 -10q68 0 125 68q12 15 23.5 32.5t19.5 31t17.5 35.5 t14.5 32.5t14.5 37t12 34t12 37t11.5 34.5v10q0 23 -16 33q-21 3 -37 -4q-11 -5 -18.5 -14.5t-10 -16t-8.5 -22.5q-5 -11 -30.5 -68.5t-43.5 -87.5q-4 -5 -13.5 -24t-19.5 -29.5t-26 -14.5q-13 9 -17 22t-2.5 23t6 26t5.5 22q12 77 38 188q6 26 6 52q0 43 -16 89 q-14 37 -44 54q-21 12 -48 12q-11 0 -23 -2q-31 -3 -104 -41q-29 -16 -70 -49q-10 -4 -19 2.5t-9 17.5q0 46 2 66q13 74 13 188q0 29 -1 60q-11 165 -53 266q-22 59 -58 90q-23 19 -49.5 13.5t-38.5 -32.5q-14 -47 -14 -65q-3 -30 -20 -283q-21 -276 -43 -389 q-19 -106 -50 -293z" />
<glyph unicode="i" horiz-adv-x="409" d="M25 221q5 -103 8 -123q6 -41 32 -70t66 -40q45 -12 84 -12q79 0 135 49q38 33 70.5 76.5t69 104t55.5 87.5q3 3 1 13t-7 16q-13 19 -39 4q-34 -17 -70 -84q-3 -5 -34 -50.5t-48 -68.5q-32 -43 -78 -57q-17 -6 -32.5 1.5t-18.5 24.5q-2 14 -2 29q0 37 12 82q52 196 93 307 q27 83 40 149q4 29 -12.5 51.5t-46.5 30.5q-20 4 -38 4q-72 0 -109 -71q-131 -243 -131 -444v-9zM217 934q-8 -17 -8 -34q0 -25 18 -48q29 -37 79 -44q10 -1 20 -1q38 0 69 22q29 23 29 58q-2 31 -28.5 58t-65.5 36q-13 3 -26 3q-22 0 -42 -8q-32 -13 -45 -42z" />
<glyph unicode="j" horiz-adv-x="409" d="M-186 -340q-9 -30 -9 -58q0 -54 33 -98q49 -65 134 -65h8q111 3 178 76q62 71 82 151q50 205 57 246q17 82 31 213q9 72 75 102q22 10 132 66q15 7 45 17.5t45 17.5q20 9 21.5 29t-15.5 32q-26 19 -54 19q-15 0 -30 -5q-13 -3 -62 -28q-10 -5 -112 -60q-14 -6 -24 -6 q-26 0 -32 35q-24 104 -47 148q-21 54 -65 86q-29 22 -55 22q-11 0 -21 -4q-35 -13 -45 -64q-4 -16 -4 -37q0 -26 6 -59q9 -56 9 -177q0 -40 -1 -87q-6 -73 -51 -133q-5 -6 -22.5 -26t-26.5 -33q-128 -144 -180 -320zM-127 -383q11 62 63.5 148.5t116.5 142.5 q-26 -169 -53 -242q-20 -58 -90 -108q-9 -6 -18.5 -1.5t-12.5 13.5q-9 25 -6 47zM12 813q9 -49 50 -82q39 -31 83 -31h5q27 3 47.5 27t23.5 57q0 57 -61 90q-31 16 -63 16h-10q-37 -3 -60 -24q-21 -21 -15 -53z" />
<glyph unicode="k" horiz-adv-x="614" d="M39 186q-1 -16 -1 -35q0 -70 15 -169q9 -71 58.5 -116t119.5 -48h7q38 0 62 22q26 24 26 66q1 18 -1 38.5t-5.5 47.5t-4.5 39q-7 66 -7 124q0 98 20 169q9 0 13.5 -3.5t6.5 -10.5t4 -9q101 -162 283 -221q26 -8 52 -8q33 0 67 12q60 22 92 72q15 22 15.5 49t-13.5 47 t-40 26t-54 -6q-9 -5 -26.5 -16.5t-20.5 -13.5q-39 -25 -71 -26q-2 0 -4 1q-34 2 -69 35q-50 47 -76 100q-11 20 -27 46t-22 35.5t-11 26.5t-1 26t16.5 27t32 35.5t53.5 45.5q82 65 111 96q21 22 21 46q0 8 -3 16q-10 32 -49 47q-15 5 -30 5q-34 0 -64 -28 q-22 -18 -59 -53.5t-49 -46.5q-15 -13 -31.5 -9t-24.5 23q-15 52 -15 112q0 18 1 36v17q0 83 -27 163q-18 51 -49 76q-23 20 -52 18t-48 -27q-28 -40 -37 -71q-25 -98 -29 -146q-43 -489 -55 -682z" />
<glyph unicode="l" horiz-adv-x="512" d="M39 254v-12q1 -66 39 -154q42 -96 106 -113q6 -1 12 -1q93 0 343 280q50 57 50 94q0 25 -16 17q-8 -4 -16 -15q-23 -31 -89 -91q-67 -59 -134 -105q-49 -33 -69 -33q-8 0 -11 4q-5 6 -8 17.5t-4.5 28t-2.5 34t-0.5 41.5t1.5 43t2.5 46.5t3 44t3.5 43.5t3 38q6 103 18 209 q172 277 172 497v17q-2 43 -40 54q-12 3 -23 4q-25 0 -47 -17q-38 -25 -70 -72.5t-48 -87t-34 -96.5q-118 -369 -141 -715zM274 711q18 140 35 235q24 128 45 191q3 6 8.5 18.5t8.5 18.5q10 20 16 20q8 0 8 -37v-5q-1 -50 -12 -124q-17 -117 -109 -317z" />
<glyph unicode="m" horiz-adv-x="1024" d="M33 164q1 -44 36 -72q26 -21 57 -20q10 0 21 2q80 19 93 84q4 17 8 37t8.5 44t7.5 37q34 137 103 256q14 19 24 9q10 -3 6 -17q-3 -23 -9.5 -87t-10.5 -96t-13.5 -82t-21.5 -91q-9 -30 -9 -54q1 -23 9 -40q18 -35 74 -62q32 -12 58 -12q20 0 36 7q37 17 51 69 q39 146 47 229q8 94 76 189l7 10.5t7.5 10.5t10 7t14.5 -2q13 -9 8 -47q-10 -113 -12 -123q-2 -16 -9.5 -65.5t-11.5 -82.5t-6 -65v-13q0 -44 24 -76q28 -37 83 -56q24 -9 44 -9q15 0 27 5q30 11 68 57l10 12q11 12 15 19l155 254q13 36 15 49q3 18 -11.5 35.5t-36.5 23.5 q-9 2 -17 2q-29 0 -44 -28q-4 -9 -13 -36t-16 -42q-20 -61 -57 -78q-7 12 -10 25t-3.5 22t0.5 24.5t1 22.5q-3 82 -25 172q-18 71 -51 111q-38 51 -98 54h-7q-56 0 -98 -48q-4 -5 -10.5 -19t-15 -21.5t-23.5 -8.5q-35 73 -47 90q-34 50 -76 57q-7 1 -13 1q-36 0 -75 -31 q-11 -9 -29 -28.5t-22 -23.5q-9 -9 -25 -29.5t-24 -29.5q-20 11 -34.5 38.5t-21.5 33.5q-33 35 -69 35q-10 0 -21 -3q-18 -5 -28.5 -16.5t-13 -22.5t-5.5 -32v-11q-13 -226 -57 -405q-7 -28 -4 -49z" />
<glyph unicode="n" horiz-adv-x="716" d="M30 554q-1 -21 -1 -43q0 -51 8 -101q12 -71 31.5 -135t50.5 -136q29 -77 123 -100q21 -4 38 -4q43 0 66 26q13 15 14.5 32.5t-2.5 31t-14 33.5q-27 60 -27 102v6q3 81 31.5 158t79.5 168q2 4 8 4q8 7 20 4t15 -12q1 -5 3.5 -23t2.5 -26q1 -15 1 -59v-38v-26 q0 -21 -1.5 -55.5t-4 -63.5t-7.5 -57q-6 -30 -6 -61t6 -62q8 -36 43.5 -62.5t77.5 -27.5h2q40 0 76 26q36 32 68 77t48 76.5t45 92.5v18q0 33 -24 41q-28 12 -43 -14q-20 -38 -31 -76q-23 -67 -59 -94q-2 5 -4.5 10t-4.5 8t-2 5q4 21 5.5 44.5t1.5 39t-3 46t-4 39.5t-6 46 t-6 41q-11 103 -92 190q-39 39 -76 43q-3 0 -7 1q-34 0 -73 -32q-9 -7 -32 -25t-35.5 -28t-29 -28t-26.5 -37q-11 -19 -26 -9q-10 5 -10 15q-17 111 -25 153q-3 35 -29 64q-23 28 -54 26.5t-48 -32.5q-16 -28 -25 -56q-22 -71 -27 -144z" />
<glyph unicode="o" horiz-adv-x="614" d="M39 344q-4 -23 -4 -45q1 -58 29 -107q40 -67 111 -99q62 -28 133 -28q11 0 22 1q66 2 125 43.5t92 123.5q2 7 6.5 20t8 24.5t5.5 21.5q6 54 31.5 79t81.5 25q41 2 79 23.5t62 58.5q18 24 18 50q1 7 -1 15q-6 34 -39 54q-25 17 -53 8t-50 -39q-7 -10 -17 -31.5t-13 -27.5 q-13 -20 -38 -22.5t-40 12.5q-23 29 -47 63q-40 61 -90 74q-92 23 -166 64q-19 12 -39 12q-33 0 -68 -33q-48 -48 -78 -113q-39 -77 -61 -227zM250 260q0 112 39 213q22 59 108 90q23 10 46.5 -3.5t29.5 -39.5q3 -8 4.5 -17t2 -18.5t1.5 -13.5q-1 -88 -50 -159t-120 -91 q-14 -4 -25 -5q-34 1 -36 44z" />
<glyph unicode="p" horiz-adv-x="757" d="M30 -152v-29.5v-37.5q1 -41 1 -49q12 -155 164 -185q17 -4 32 -4q31 0 53 15q33 23 37 75q5 26 5 123q4 80 4 236q3 28 14.5 38t36.5 7q33 -3 49 -1.5t47 7t49 6.5q97 14 144 109q46 111 57 213q1 9 1 19q0 97 -58 183q-28 38 -65.5 64.5t-82.5 38.5q-20 6 -41 6 q-27 0 -55 -9q-52 -16 -100 -63l-31 -31t-22.5 -16t-17.5 -4.5t-15 11t-15 23t-18 38.5q-21 54 -49 74q-23 19 -47 19q-8 0 -15 -2q-32 -9 -41 -44q-8 -27 -8 -80q9 -197 12 -248q-3 -60 -4 -153t-4 -165t-12 -134q-4 -25 -5 -50zM317 391q37 85 107 146q19 19 35 8 q9 -10 16 -29q2 -6 2 -19t2 -16q-5 -118 -65 -264q-4 -9 -15 -19.5t-14 -15.5q-12 -12 -32 -9.5t-27 17.5q-25 62 -25 117q0 44 16 84z" />
<glyph unicode="q" horiz-adv-x="614" d="M41 283q60 -157 199 -168q40 -5 43 -6q43 -6 43 -47v-5q0 -17 -9 -73q-8 -75 -8 -166q0 -49 2 -103q6 -127 127 -184q36 -17 73 -17q32 0 65 12q72 27 96 95q55 148 67 313q2 17 -8 41q-10 31 -39 31q-21 -3 -28 -29q-8 -26 -11 -63q-1 -6 -9.5 -57.5t-14.5 -79.5 q-10 -54 -60 -111q-17 -21 -39 -18q-18 3 -18 33q-2 21 -2 43t2 45q4 35 19.5 209.5t27.5 269.5q5 39 12.5 116.5t12.5 116.5v129q0 36 -2 54q-12 51 -66 61q-9 2 -17 2q-36 0 -50 -41q-13 -37 -37 -46q-14 -6 -34 -6q-14 0 -32 3q-18 2 -35 2q-127 0 -219 -109 q-68 -74 -68 -159q0 -43 17 -88zM215 236q28 144 115 249q14 18 20 23q15 11 31 8q7 0 10.5 -8t1.5 -16q-40 -210 -49 -252q-6 -30 -31 -49t-55 -19q-20 2 -33.5 21.5t-9.5 42.5z" />
<glyph unicode="r" horiz-adv-x="573" d="M41 137q18 -80 70.5 -114.5t152.5 -47.5q40 2 88.5 24t89.5 58q58 50 109 110.5t115 147.5q7 11 10 19q14 32 -8 49q-26 20 -52 -2q-23 -20 -59 -66q-118 -143 -141 -170q-31 -36 -66 -61q-2 -2 -10.5 -8t-12 -8t-11.5 -7t-13 -6.5t-12.5 -4t-13 -2.5t-12.5 1.5t-13 5.5 q-10 6 -15.5 15t-8 15.5t0 19t4 17t7.5 19t6 15.5q70 196 131 305q24 34 37 67q8 20 8 37q0 26 -19 45q-25 22 -51 22q-15 0 -30 -7q-12 -5 -24 -13t-27 -18.5t-23 -15.5q-2 -1 -11.5 -7.5t-13 -8.5t-11.5 -4.5t-15 -2.5q-24 4 -19 20q1 8 8 20.5t9 18.5q7 21 7 37 q0 45 -50 62q-29 9 -55 -7t-36 -51q-8 -27 -8 -50q0 -64 58 -105q28 -21 30.5 -32.5t-10.5 -39.5q-35 -73 -78 -172q-17 -41 -17 -79q0 -20 5 -40z" />
<glyph unicode="s" horiz-adv-x="614" d="M16 439q12 -86 109 -158q1 -1 5.5 -7t8.5 -8q18 -10 50 -30t44 -27q29 -16 45 -25.5t26.5 -21.5t11 -20.5t-7 -23t-20.5 -29t-38 -38.5q-36 -33 -60 -63q-35 -47 -35 -96q0 -52 40 -105q57 -75 160 -75q9 0 18 1h37q96 9 150 69q37 41 36 105q0 31 -8 66 q-3 13 -12.5 37.5t-12.5 34.5q-12 39 -3 55.5t52 28.5q18 5 66 11l22 5h-10h-23h7q21 1 35 2q44 4 61 10q27 8 27 33q0 18 -25 31q-31 17 -73 17q-11 0 -23 -1q-20 -2 -28.5 -3t-12 -2t-5 -2.5t-11 -5t-27.5 -7.5q-42 -10 -69 -13t-48 3t-32 12.5t-35 24.5t-43 30 q-17 10 -43 33q-64 47 -71 85q-1 6 -1 12q0 37 35 95q20 33 57 62q2 2 28.5 23t41.5 32q38 30 38 67v5q-3 40 -61 73q-38 20 -71 20q-7 0 -13 -1q-161 -23 -235 -139q-56 -81 -56 -155q0 -14 2 -27zM266 -115q0 15 4 25q15 38 39 59t43 15q17 -9 21 -23v-9q1 -31 -17 -59 q-20 -32 -51 -43q-14 -5 -26.5 6t-12.5 29z" />
<glyph unicode="t" horiz-adv-x="614" d="M-182 946q0 -32 37 -51q15 -9 34.5 -15.5t32.5 -9.5t37.5 -7.5t34.5 -6.5q24 -4 45.5 -2t44.5 -2.5t37 -20.5q13 -15 15.5 -34t-2 -34t-11 -36.5t-8.5 -34.5l-68 -407q0 -109 47 -193q36 -63 90 -97q53 -34 106 -34l2 1q54 0 109 24q289 141 381 471q2 9 2 17 q0 26 -22 42q-13 7 -26 7q-18 0 -38 -13q-40 -34 -100 -123q-70 -107 -131 -184q-50 -64 -98 -88q-13 -5 -26.5 3t-12.5 21q0 31 6 66q72 342 102 467q4 16 9.5 41t8 35t8.5 25.5t13 21.5t18.5 14t28.5 10.5t40.5 4t56.5 1.5q35 0 51 4q36 9 63 23q50 19 53 70q0 42 -49 75 q-42 25 -80 25h-8h-19q-78 0 -100 22q-24 24 -24 99v12q0 11 -4 27q-9 43 -41 66q-28 20 -66 20h-10q-60 -3 -100 -56q-44 -66 -64 -116q-33 -74 -114 -74q-23 1 -44 1q-42 0 -75 -5q-38 -3 -131 -25q-38 -11 -41 -47z" />
<glyph unicode="u" horiz-adv-x="716" d="M33 141v-7q0 -171 151 -183h6q34 0 91 22q16 7 33.5 18t27.5 17.5t31.5 23.5t27.5 21q27 19 50 2q24 -20 36 -26q48 -28 87 -28h8q42 3 88 44q16 13 34 30t29.5 29t32 34.5t29.5 31.5q15 16 26 47q10 23 -14 37q-16 12 -31 4q-15 -5 -35 -25q-40 -46 -59 -65 q-15 -15 -29 -4q-8 8 -8 20q4 22 29 129q13 63 13 114q0 15 -1 30q-3 45 -39 61q-11 4 -22 4l-50 -20q-74 -61 -100 -144q-20 -59 -31 -106q-17 -76 -61 -115q-7 -6 -17 -17.5t-17 -19t-18.5 -15.5t-21 -6.5t-24.5 7.5q-11 7 -15.5 16t-3 21t3.5 21t7.5 23.5t7.5 20.5 q46 172 71 256q19 67 19 102v7q-1 47 -37 70q-21 13 -44 13q-17 0 -36 -7q-36 -15 -59 -47q-57 -81 -66 -103q-53 -111 -94 -282q-2 -13 -3.5 -32.5t-2.5 -23.5z" />
<glyph unicode="v" horiz-adv-x="655" d="M6 580q4 -22 12 -39q12 -26 22.5 -58.5t16 -53t15.5 -62t14 -56.5q23 -101 41 -161q8 -41 35 -87q29 -65 108 -65q67 3 95 70q13 26 42.5 74t36.5 61l14 24.5t14.5 25t13.5 20.5t14 17t13.5 10t15 3t15.5 -7.5t17.5 -17t18.5 -30.5q13 -23 42 -28t59 3.5t60 24.5 q75 43 138 153q5 9 -5 29q-6 9 -17.5 11t-18.5 -3q-24 -10 -54 -32q-8 -7 -27 -28.5t-32 -31.5q-31 -27 -56 -19.5t-36 46.5q-3 14 -6 39.5t-4 33.5q-12 72 -25 113q-11 35 -39 42t-57 -19q-39 -36 -45 -80q-1 -11 -2 -32.5t-2 -31.5q-18 -124 -109 -215q-5 3 -9 6.5t-7 8.5 t-4 8.5t-3.5 10.5t-3.5 9q-8 26 -23.5 79.5t-23.5 80.5q-39 121 -137 192q-27 21 -67 27q-27 3 -45.5 -16.5t-14.5 -48.5z" />
<glyph unicode="w" horiz-adv-x="921" d="M31 315q0 -121 10 -182q14 -97 104 -168q47 -36 105 -36h12q64 4 111 51q28 28 57 65q20 28 48 28q13 0 28 -7q37 -18 70 -18q61 0 108 61l8 6q24 22 35.5 23t38.5 -19q78 -57 143 -80q34 -11 65 -11q10 0 21 1q30 4 35 28q8 21 -14 43t-39 27q-66 24 -92 115 q-37 122 -37 198q0 45 -4 135q-3 80 -45 136q-15 26 -43 28.5t-47 -20.5q-68 -91 -82 -162q-8 -39 -8 -81q0 -66 20 -138q7 -26 7 -50q0 -22 -6 -42q-13 -42 -48 -84q-11 -13 -26 -11.5t-23 15.5q-17 37 -23 84q-3 22 -10 69.5t-10 73.5q-8 48 -33 66q-17 14 -38.5 8.5 t-25.5 -25.5q-6 -40 -6 -64v-11q2 -18 2 -35q0 -112 -71 -232q-3 -5 -11 -21.5t-13.5 -24.5t-16 -14.5t-23.5 -4.5q-12 2 -20 9t-10.5 16.5t-3.5 21t-0.5 22.5t-0.5 21q-3 61 -8 183t-8 184q-1 8 -1.5 31t-2.5 36q-7 37 -21 64q-18 36 -57 36h-6q-34 -3 -51 -41 q-19 -55 -23 -71q-20 -97 -20 -204v-28z" />
<glyph unicode="x" horiz-adv-x="819" d="M-4 88.5q9 -21.5 31 -27.5q20 -6 39 -6q34 0 65 21q12 8 32.5 25t24.5 20l142 121q23 17 39.5 14t31.5 -27q24 -34 39 -63q86 -152 272 -152h7h13q88 0 216 84q3 2 6.5 5.5t8 8.5t6.5 7q14 19 14 37q0 12 -6 24q-15 30 -49 33q-5 1 -11 1q-26 0 -63 -15q-14 -5 -39 -17.5 t-39 -17.5q-26 -10 -47 -10q-11 0 -23 4q-28 10 -47 47q-20 45 -65 172q-2 9 -2 17q0 23 18 42l99 84q2 2 10.5 9t11 9t9.5 8.5t9.5 10t8 9.5t9 10.5t7 11t6.5 12.5q6 15 -2.5 30.5t-25.5 16.5q-36 0 -64 -14q-84 -41 -113 -60q-46 -28 -68 -33.5t-36.5 2.5t-47.5 41 l-3.5 3.5l-3.5 3.5l-4 4q-102 96 -246 127q-24 4 -43 4t-33 -4q-25 -12 -29 -29q-4 -9 1 -19.5t16 -15.5q17 -8 33.5 -20.5t28 -22t26.5 -28t22 -27.5t23.5 -31.5t21.5 -29.5q2 -5 11 -19q17 -21 25 -31t12 -23.5t4.5 -17.5t-10 -17.5t-17.5 -19.5t-31 -26 q-38 -30 -186 -164q-21 -21 -41 -51q-13 -19 -4 -40.5z" />
<glyph unicode="y" horiz-adv-x="614" d="M31 231q3 -95 102 -147q60 -27 103 -27q69 0 108 6q31 1 42.5 -11.5t6.5 -43.5q-12 -37 -33 -61l-61 -70q-81 -93 -123 -225q-8 -25 -8 -48q0 -35 18 -65q29 -50 78 -71q31 -13 67 -13q20 0 42 4q59 9 91 39.5t42 91.5q32 145 32 249q0 14 -1 28q0 23 2 64.5t2 62.5 q3 72 53 119q12 10 52.5 47t64.5 55q4 3 14 11t15.5 13t12.5 14.5t11 20.5q5 11 -4 25t-25 14q-17 0 -33 -8q-19 -15 -49 -41q-10 -8 -32 -30.5t-35 -32.5q-12 -12 -21 -6q-6 9 -6 20q0 34 6 64q1 14 2 40.5t2 40.5q0 53 -4 78q-7 47 -28 74q-15 21 -34 21q-18 0 -38 -17 q-32 -32 -41 -78q-2 -15 -4.5 -39t-5 -42.5t-6.5 -34.5q-5 -53 -33 -86.5t-78 -67.5q-25 -15 -52 -2.5t-34 43.5q-2 23 -2 65q0 55 31 158q29 73 39 105q7 32 -11 52.5t-53 20.5q-38 -3 -72 -30q-35 -27 -53 -68q-59 -140 -59 -269v-12zM279 -410q-7 29 2 48q31 118 110 176 q-4 -23 -14.5 -86t-18.5 -97q-4 -38 -26 -53q-11 -15 -29 -8q-20 0 -24 20z" />
<glyph unicode="z" horiz-adv-x="552" d="M-66 -402q4 -52 46 -92q54 -59 136 -66q10 -1 19 -1q70 0 125 45q166 143 217 326q21 70 21 139q0 50 -11 98q-3 10 -3 19q0 36 40 61q4 3 15.5 8t15.5 8q25 13 76.5 35t75.5 35q23 12 34 25q7 13 -2 22q-21 19 -43 8q-85 -19 -131 -53q-12 -7 -39 -25.5t-43 -27.5 q-20 -12 -31 -10.5t-30 18.5q-8 5 -17 13t-19 17.5t-15 14.5q-18 20 -18.5 30.5t14.5 30.5q4 4 38.5 41t49.5 58q25 40 25 78q0 27 -12 53q-29 64 -110 74q-22 3 -44 3t-42 -3q-91 -14 -159 -86q-17 -13 -7 -33q6 -23 33 -23q8 0 23.5 2.5t19.5 3.5l22 8q22 7 34 1 q2 -8 -0.5 -14t-10 -12.5t-8.5 -8.5q-57 -62 -133 -119q-28 -24 -28 -49v-6q4 -28 40 -51q31 -22 84 -25q40 -3 82 -31q39 -29 39 -56q0 -25 -31 -56l-22 -17q-20 -16 -38.5 -32.5t-39.5 -38t-33 -34t-37 -41t-31.5 -36t-36 -42.5t-32.5 -38q-29 -29 -41 -47 q-27 -43 -27 -87q-1 -7 0 -14zM109 -369q-1 9 -1 19q0 55 42 123q51 100 137 170q20 -7 12 -27q-35 -156 -154 -291q-4 -4 -6 -8q-16 -8 -22 -2q-8 8 -8 16z" />
<glyph unicode="{" horiz-adv-x="571" d="M45 516q-17 -39 33 -65q32 -16 37 -17q95 -21 88 -133q-1 -14 -15 -131q-3 -55 25 -105t74 -79.5t102 -39.5t109 15q29 15 32 41q6 31 -22 45q-40 25 -74 37q-55 20 -55 84v53q-2 81 -18 143t-60 113q-17 17 -20 35q-2 8 -10.5 48.5t-11 53t-9.5 46.5t-10 52.5t-7 47 t-6.5 53t-3.5 49.5q-2 48 24 78.5t72 30.5q27 0 54 6q15 3 24.5 13t8.5 24q0 22 -19 33q-41 30 -97.5 35.5t-108.5 -12t-91 -63.5t-45 -112q-11 -130 4 -219q0 -2 3 -15.5t3.5 -16.5l2.5 -15t2 -16.5t1 -15.5t0 -16.5t-1.5 -15.5t-2.5 -17t-5 -15.5t-7 -16.5z" />
<glyph unicode="|" />
<glyph unicode="}" horiz-adv-x="548" d="M43 6q-5 -37 37 -55q114 -51 206 7.5t95 184.5q2 71 -2 217q-2 60 18 99t76 59q39 15 34.5 53.5t-46.5 57.5q-17 7 -51 15.5t-45 12.5q-37 12 -49.5 30t-10.5 56q1 10 5 36t7 50l-1 45q-2 44 -7 72q-15 78 -82 119.5t-149 24.5q-18 -7 -29 -29q-4 -10 1 -21t16 -14 q49 -19 74 -52.5t26 -73t-6 -87.5q-8 -41 -10 -57q-24 -121 38 -193q45 -53 35 -149q-12 -130 -16 -201q-1 -10 -1.5 -40t-4.5 -49.5t-15 -37.5q-11 -17 -28 -24t-41 -10t-35 -7q-36 -11 -39 -39z" />
<glyph unicode="~" />
<glyph unicode="&#xa1;" />
<glyph unicode="&#xa2;" />
<glyph unicode="&#xa3;" />
<glyph unicode="&#xa4;" />
<glyph unicode="&#xa5;" />
<glyph unicode="&#xa6;" />
<glyph unicode="&#xa7;" />
<glyph unicode="&#xa9;" />
<glyph unicode="&#xab;" />
<glyph unicode="&#xac;" />
<glyph unicode="&#xad;" horiz-adv-x="692" d="M41 559q-1 -17 9 -29.5t26 -17.5q128 -42 289 -39q13 0 59 0.5t67 1.5t56 7t63 18q44 17 41 59q-3 29 -35 47q-62 34 -165 27l-324 -25q-30 -4 -45 -8q-38 -10 -41 -41z" />
<glyph unicode="&#xae;" />
<glyph unicode="&#xb0;" />
<glyph unicode="&#xb1;" />
<glyph unicode="&#xb6;" />
<glyph unicode="&#xb7;" horiz-adv-x="376" d="M41.5 543.5q-1.5 -44.5 30.5 -74.5q50 -47 118 -45.5t115 51.5q31 27 31 94q-2 3 -6.5 10.5t-8.5 13.5t-10 13t-12 12q-52 39 -113.5 38t-109.5 -40q-33 -28 -34.5 -72.5z" />
<glyph unicode="&#xbb;" />
<glyph unicode="&#xbf;" />
<glyph unicode="&#xd7;" horiz-adv-x="675" d="M47 788q-12 -21 6 -49q47 -63 72 -100q40 -56 90 -133q10 -16 8.5 -25.5t-12.5 -23.5q-40 -47 -113 -127q-30 -37 -37 -70q-6 -25 7 -42t38 -17q30 0 52 16q28 20 41 35l73 70q12 12 20 11.5t19 -14.5q17 -23 19 -26q33 -43 104 -103t107 -65q36 3 47 18q5 10 -1.5 26.5 t-4.5 25.5l-113 188q-11 6 -16.5 26.5t-6.5 22.5q-22 42 11 80q31 33 157 184q27 34 17.5 60t-51.5 35q-18 5 -45 -3q-40 -12 -68 -43q-29 -35 -84 -98q-3 -4 -23 -24q-12 -9 -24 0l-23 22q-87 93 -104 109q-45 45 -115 55q-29 3 -47 -21z" />
<glyph unicode="&#xf7;" />
<glyph unicode="&#x2000;" horiz-adv-x="785" />
<glyph unicode="&#x2001;" horiz-adv-x="1570" />
<glyph unicode="&#x2002;" horiz-adv-x="785" />
<glyph unicode="&#x2003;" horiz-adv-x="1570" />
<glyph unicode="&#x2004;" horiz-adv-x="523" />
<glyph unicode="&#x2005;" horiz-adv-x="392" />
<glyph unicode="&#x2006;" horiz-adv-x="261" />
<glyph unicode="&#x2007;" horiz-adv-x="261" />
<glyph unicode="&#x2008;" horiz-adv-x="196" />
<glyph unicode="&#x2009;" horiz-adv-x="314" />
<glyph unicode="&#x200a;" horiz-adv-x="87" />
<glyph unicode="&#x2010;" horiz-adv-x="692" d="M41 559q-1 -17 9 -29.5t26 -17.5q128 -42 289 -39q13 0 59 0.5t67 1.5t56 7t63 18q44 17 41 59q-3 29 -35 47q-62 34 -165 27l-324 -25q-30 -4 -45 -8q-38 -10 -41 -41z" />
<glyph unicode="&#x2011;" horiz-adv-x="692" d="M41 559q-1 -17 9 -29.5t26 -17.5q128 -42 289 -39q13 0 59 0.5t67 1.5t56 7t63 18q44 17 41 59q-3 29 -35 47q-62 34 -165 27l-324 -25q-30 -4 -45 -8q-38 -10 -41 -41z" />
<glyph unicode="&#x2012;" horiz-adv-x="692" d="M41 559q-1 -17 9 -29.5t26 -17.5q128 -42 289 -39q13 0 59 0.5t67 1.5t56 7t63 18q44 17 41 59q-3 29 -35 47q-62 34 -165 27l-324 -25q-30 -4 -45 -8q-38 -10 -41 -41z" />
<glyph unicode="&#x2013;" horiz-adv-x="1099" d="M41 555q-1 -18 15 -31t42 -18q212 -44 484 -41q21 0 98.5 0.5t112 1.5t92.5 7t104 18q34 8 53.5 24.5t16.5 38.5q-3 30 -58 51q-98 35 -276 27q-90 -5 -270.5 -13.5t-270.5 -13.5q-21 0 -75 -8q-62 -11 -68 -43z" />
<glyph unicode="&#x2014;" horiz-adv-x="1507" d="M41 555q-1 -18 22.5 -32t59.5 -19q290 -46 676 -43q68 0 144.5 0.5t144 1.5t142.5 7.5t140 18.5q47 8 73.5 25t22.5 41q-2 30 -80 55q-137 35 -387 27q-127 -5 -379 -13.5t-378 -13.5q-12 0 -105 -10q-88 -11 -96 -45z" />
<glyph unicode="&#x2018;" horiz-adv-x="274" d="M41 1235q-6 -62 49 -92q29 -16 63.5 -11t55.5 29q47 44 0 109q-21 24 -10 57q6 21 -21 25q-54 -1 -93 -35t-44 -82z" />
<glyph unicode="&#x2019;" horiz-adv-x="276" d="M57 1319q-39 -51 17 -107q26 -23 18 -55q-1 -10 6.5 -16t18.5 -4q52 9 86.5 48t32.5 87q-3 62 -64 84q-30 11 -63.5 0.5t-51.5 -37.5z" />
<glyph unicode="&#x201a;" d="M55 119q-39 -51 17 -107q26 -23 18 -55q-1 -10 6.5 -16t18.5 -4q52 9 86 48t32 87q-3 63 -63 84q-30 11 -63.5 0.5t-51.5 -37.5z" />
<glyph unicode="&#x201c;" />
<glyph unicode="&#x201d;" />
<glyph unicode="&#x201e;" d="M55 119q18 27 51.5 37.5t63.5 -0.5q60 -21 63 -84q2 -48 -32 -87t-86 -48q-11 -2 -18.5 4t-6.5 16q8 32 -18 55q-56 56 -17 107z" />
<glyph unicode="&#x2022;" horiz-adv-x="573" d="M41 527.5q-2 -75.5 51 -126.5q82 -76 195.5 -72.5t193.5 83.5q51 51 51 159q-3 5 -13.5 23t-22 33t-25.5 26q-86 65 -189.5 63t-183.5 -67q-55 -46 -57 -121.5z" />
<glyph unicode="&#x2026;" horiz-adv-x="892" d="M40 86.5q-1 -29.5 21 -49.5q32 -31 78 -29.5t78 33.5q21 21 21 63q-2 2 -6 9t-9 13.5t-10 10.5q-34 26 -75.5 25t-74.5 -27q-22 -19 -23 -48.5zM348 86.5q-1 -29.5 21 -49.5q32 -31 77.5 -29.5t77.5 33.5q21 21 21 63q-2 2 -6 9t-9 13.5t-10 10.5q-34 26 -75 25t-74 -27 q-22 -19 -23 -48.5zM655 86.5q-1 -29.5 21 -49.5q32 -31 77.5 -29.5t77.5 33.5q21 21 21 63q-2 2 -6 9t-9 13.5t-10 10.5q-34 26 -75 25t-74 -27q-22 -19 -23 -48.5z" />
<glyph unicode="&#x202f;" horiz-adv-x="314" />
<glyph unicode="&#x2039;" />
<glyph unicode="&#x203a;" />
<glyph unicode="&#x205f;" horiz-adv-x="392" />
<glyph unicode="&#x20ac;" />
<glyph unicode="&#x2122;" horiz-adv-x="2252" d="M41 1319q3 -26 19 -43.5t30.5 -24t42.5 -16.5q20 -6 186 -43q37 -8 49 -19t15 -43q15 -368 16 -440q1 -36 2 -127t2.5 -140t6.5 -123.5t14 -135.5q16 -91 41 -125q34 -47 85.5 -67t106.5 -7q51 12 78.5 52t26.5 106q-2 52 -6.5 176t-7.5 192t-8 171t-11 192.5t-14 175.5 q-2 35 -2.5 54.5t0 40.5t6.5 32t13.5 23t23.5 19.5t35 15t49 16.5q90 28 129 90q25 37 16.5 75.5t-47.5 63.5q-61 37 -162 37l-106 -20q-234 -53 -335 -64q-68 -8 -130 -8q-38 0 -58 -4q-112 -25 -106 -82zM952 133q3 31 21 139q95 493 114 836q4 66 33 217q13 80 92 92 t125 -49q26 -35 62 -108q59 -111 108.5 -191t110.5 -149q31 -36 52.5 -37t49.5 32l125 160q72 96 82 185q5 37 23 90q28 95 125 98q52 3 91.5 -20t57.5 -70q44 -108 51 -291q2 -39 2 -236q-4 -239 -16 -358q-10 -88 -10 -266q0 -6 -1.5 -26.5t-0.5 -30.5q-3 -28 0 -56 q-7 -27 -21 -67q-38 -30 -104 -37q-81 30 -133.5 101t-59.5 169q-5 60 -7 135t-1 135.5t0 135.5q0 94 -2 141q0 21 -18.5 27.5t-38.5 -5.5q-30 -20 -64 -67q-45 -59 -91 -71t-112 20q-27 14 -131 84q-26 18 -43 9t-18 -42q-3 -58 -10.5 -128.5t-14.5 -115.5t-20.5 -132 t-18.5 -120q-10 -80 -28 -137q-23 -75 -65.5 -104.5t-119.5 -26.5q-69 0 -118 33q-66 39 -58 102z" />
<glyph unicode="&#x25fc;" horiz-adv-x="727" d="M0 0v727h727v-727h-727z" />
</font>
</defs>
</svg>
