<svg xmlns="http://www.w3.org/2000/svg" width="1920" height="1080"><path d="M771,1313L594,1318L1145,1345Z" fill="#8d8da7" stroke="#8d8da7" stroke-width="1.51"/><path d="M594,1318L323,1341L1145,1345Z" fill="#8e8196" stroke="#8e8196" stroke-width="1.51"/><path d="M1322,-230L1490,-172L1683,-167Z" fill="#9d6e79" stroke="#9d6e79" stroke-width="1.51"/><path d="M1322,-230L1683,-167L1806,-196Z" fill="#8f6373" stroke="#8f6373" stroke-width="1.51"/><path d="M1322,-230L1806,-196L1896,-199Z" fill="#845b70" stroke="#845b70" stroke-width="1.51"/><path d="M1943,1241L1743,1259L2052,1275Z" fill="#1d5c9f" stroke="#1d5c9f" stroke-width="1.51"/><path d="M1743,1259L1530,1329L2052,1275Z" fill="#26649e" stroke="#26649e" stroke-width="1.51"/><path d="M1976,116L2054,277L2067,77Z" fill="#946c7e" stroke="#946c7e" stroke-width="1.51"/><path d="M2029,839L1990,934L2090,996Z" fill="#4d7ead" stroke="#4d7ead" stroke-width="1.51"/><path d="M2062,1111L2052,1275L2090,996Z" fill="#225e99" stroke="#225e99" stroke-width="1.51"/><path d="M2067,77L2054,277L2103,360Z" fill="#937586" stroke="#937586" stroke-width="1.51"/><path d="M2067,77L2103,360L2109,-97Z" fill="#8b5c6e" stroke="#8b5c6e" stroke-width="1.51"/><path d="M1985,830L2029,839L2139,736Z" fill="#678ab3" stroke="#678ab3" stroke-width="1.51"/><path d="M1915,738L1985,830L2139,736Z" fill="#7191bb" stroke="#7191bb" stroke-width="1.51"/><path d="M2062,524L1915,738L2139,736Z" fill="#7f95bb" stroke="#7f95bb" stroke-width="1.51"/><path d="M2090,996L2052,1275L2139,736Z" fill="#356c9e" stroke="#356c9e" stroke-width="1.51"/><path d="M2029,839L2090,996L2139,736Z" fill="#5980aa" stroke="#5980aa" stroke-width="1.51"/><path d="M2103,360L2062,524L2139,736Z" fill="#8994b4" stroke="#8994b4" stroke-width="1.51"/><path d="M2109,-97L2103,360L2139,736Z" fill="#8f7e92" stroke="#8f7e92" stroke-width="1.51"/><path d="M1641,1275L1530,1329L1743,1259Z" fill="#3671a5" stroke="#3671a5" stroke-width="1.51"/><path d="M1943,1241L2052,1275L2062,1111Z" fill="#1a599a" stroke="#1a599a" stroke-width="1.51"/><path d="M1921,367L2062,524L2103,360Z" fill="#9493ae" stroke="#9493ae" stroke-width="1.51"/><path d="M2101,-170L1893,-112L2109,-97Z" fill="#7e3c59" stroke="#7e3c59" stroke-width="1.51"/><path d="M1893,-112L2067,77L2109,-97Z" fill="#874a63" stroke="#874a63" stroke-width="1.51"/><path d="M1921,367L1907,491L2062,524Z" fill="#999fc0" stroke="#999fc0" stroke-width="1.51"/><path d="M1893,-112L1976,116L2067,77Z" fill="#915b72" stroke="#915b72" stroke-width="1.51"/><path d="M2054,277L1921,367L2103,360Z" fill="#978aa1" stroke="#978aa1" stroke-width="1.51"/><path d="M1896,-199L1893,-112L2101,-170Z" fill="#7d4261" stroke="#7d4261" stroke-width="1.51"/><path d="M1976,116L1926,228L2054,277Z" fill="#9c7c8e" stroke="#9c7c8e" stroke-width="1.51"/><path d="M1835,651L1915,738L2062,524Z" fill="#8ba4cd" stroke="#8ba4cd" stroke-width="1.51"/><path d="M1907,491L1835,651L2062,524Z" fill="#96a9cf" stroke="#96a9cf" stroke-width="1.51"/><path d="M1990,934L2062,1111L2090,996Z" fill="#3470a4" stroke="#3470a4" stroke-width="1.51"/><path d="M1990,934L1883,1118L2062,1111Z" fill="#2f72ac" stroke="#2f72ac" stroke-width="1.51"/><path d="M1883,1118L1943,1241L2062,1111Z" fill="#2467a8" stroke="#2467a8" stroke-width="1.51"/><path d="M1926,228L1921,367L2054,277Z" fill="#9d8ba2" stroke="#9d8ba2" stroke-width="1.51"/><path d="M1820,594L1835,651L1907,491Z" fill="#97b0d4" stroke="#97b0d4" stroke-width="1.51"/><path d="M1985,830L1990,934L2029,839Z" fill="#5d8ab8" stroke="#5d8ab8" stroke-width="1.51"/><path d="M1893,-112L1751,124L1976,116Z" fill="#9c697e" stroke="#9c697e" stroke-width="1.51"/><path d="M1802,1005L1883,1118L1990,934Z" fill="#3b81bb" stroke="#3b81bb" stroke-width="1.51"/><path d="M1985,830L1818,817L1990,934Z" fill="#6393c4" stroke="#6393c4" stroke-width="1.51"/><path d="M1818,817L1802,1005L1990,934Z" fill="#5892c4" stroke="#5892c4" stroke-width="1.51"/><path d="M1915,738L1818,817L1985,830Z" fill="#729cca" stroke="#729cca" stroke-width="1.51"/><path d="M1743,-78L1751,124L1893,-112Z" fill="#9b677b" stroke="#9b677b" stroke-width="1.51"/><path d="M1751,124L1926,228L1976,116Z" fill="#a17e91" stroke="#a17e91" stroke-width="1.51"/><path d="M1802,390L1907,491L1921,367Z" fill="#a1a6c2" stroke="#a1a6c2" stroke-width="1.51"/><path d="M1828,277L1921,367L1926,228Z" fill="#a393ab" stroke="#a393ab" stroke-width="1.51"/><path d="M1883,1118L1829,1111L1943,1241Z" fill="#2a6fb1" stroke="#2a6fb1" stroke-width="1.51"/><path d="M1829,1111L1743,1259L1943,1241Z" fill="#286daf" stroke="#286daf" stroke-width="1.51"/><path d="M1802,1005L1829,1111L1883,1118Z" fill="#367eb9" stroke="#367eb9" stroke-width="1.51"/><path d="M1751,124L1828,277L1926,228Z" fill="#a78d9d" stroke="#a78d9d" stroke-width="1.51"/><path d="M1828,277L1802,390L1921,367Z" fill="#a4a0b8" stroke="#a4a0b8" stroke-width="1.51"/><path d="M1835,651L1818,817L1915,738Z" fill="#81a7d0" stroke="#81a7d0" stroke-width="1.51"/><path d="M1806,-196L1893,-112L1896,-199Z" fill="#824c6a" stroke="#824c6a" stroke-width="1.51"/><path d="M1802,390L1820,594L1907,491Z" fill="#9fafce" stroke="#9fafce" stroke-width="1.51"/><path d="M1806,-196L1743,-78L1893,-112Z" fill="#90556d" stroke="#90556d" stroke-width="1.51"/><path d="M12,1303L-186,1305L323,1341Z" fill="#7c3b55" stroke="#7c3b55" stroke-width="1.51"/><path d="M104,-252L242,-237L615,-259Z" fill="#ab443f" stroke="#ab443f" stroke-width="1.51"/><path d="M1642,836L1802,1005L1818,817Z" fill="#66a2cc" stroke="#66a2cc" stroke-width="1.51"/><path d="M1802,390L1609,577L1820,594Z" fill="#a3bcd7" stroke="#a3bcd7" stroke-width="1.51"/><path d="M1624,1174L1743,1259L1829,1111Z" fill="#337ab7" stroke="#337ab7" stroke-width="1.51"/><path d="M1820,594L1648,691L1835,651Z" fill="#93b5d7" stroke="#93b5d7" stroke-width="1.51"/><path d="M1648,691L1818,817L1835,651Z" fill="#89b1d5" stroke="#89b1d5" stroke-width="1.51"/><path d="M1582,409L1609,577L1802,390Z" fill="#abbfd2" stroke="#abbfd2" stroke-width="1.51"/><path d="M1642,836L1601,937L1802,1005Z" fill="#61a3cc" stroke="#61a3cc" stroke-width="1.51"/><path d="M1648,691L1642,836L1818,817Z" fill="#80b2d5" stroke="#80b2d5" stroke-width="1.51"/><path d="M1596,245L1802,390L1828,277Z" fill="#aba5b4" stroke="#aba5b4" stroke-width="1.51"/><path d="M1751,124L1596,245L1828,277Z" fill="#ac99a3" stroke="#ac99a3" stroke-width="1.51"/><path d="M1802,1005L1624,1174L1829,1111Z" fill="#3983bb" stroke="#3983bb" stroke-width="1.51"/><path d="M1683,-167L1743,-78L1806,-196Z" fill="#8f5a70" stroke="#8f5a70" stroke-width="1.51"/><path d="M1609,577L1648,691L1820,594Z" fill="#9bbedb" stroke="#9bbedb" stroke-width="1.51"/><path d="M1596,245L1582,409L1802,390Z" fill="#b0b4c1" stroke="#b0b4c1" stroke-width="1.51"/><path d="M1601,937L1624,1174L1802,1005Z" fill="#4493c3" stroke="#4493c3" stroke-width="1.51"/><path d="M1601,937L1535,1109L1624,1174Z" fill="#5297c6" stroke="#5297c6" stroke-width="1.51"/><path d="M1624,1174L1641,1275L1743,1259Z" fill="#3377af" stroke="#3377af" stroke-width="1.51"/><path d="M1585,-78L1621,133L1743,-78Z" fill="#a67882" stroke="#a67882" stroke-width="1.51"/><path d="M1743,-78L1621,133L1751,124Z" fill="#a67d89" stroke="#a67d89" stroke-width="1.51"/><path d="M1621,133L1596,245L1751,124Z" fill="#b0979e" stroke="#b0979e" stroke-width="1.51"/><path d="M1683,-167L1585,-78L1743,-78Z" fill="#9c6675" stroke="#9c6675" stroke-width="1.51"/><path d="M1346,1286L1145,1345L1530,1329Z" fill="#6484ac" stroke="#6484ac" stroke-width="1.51"/><path d="M1534,359L1582,409L1596,245Z" fill="#bcbcc4" stroke="#bcbcc4" stroke-width="1.51"/><path d="M1582,409L1540,512L1609,577Z" fill="#b5cbdd" stroke="#b5cbdd" stroke-width="1.51"/><path d="M1490,-172L1585,-78L1683,-167Z" fill="#a06a78" stroke="#a06a78" stroke-width="1.51"/><path d="M1585,-78L1480,134L1621,133Z" fill="#b68c90" stroke="#b68c90" stroke-width="1.51"/><path d="M1624,1174L1530,1329L1641,1275Z" fill="#407aae" stroke="#407aae" stroke-width="1.51"/><path d="M1504,879L1601,937L1642,836Z" fill="#7ab4d5" stroke="#7ab4d5" stroke-width="1.51"/><path d="M1473,679L1504,879L1642,836Z" fill="#92c1dd" stroke="#92c1dd" stroke-width="1.51"/><path d="M1473,679L1642,836L1648,691Z" fill="#98c2dd" stroke="#98c2dd" stroke-width="1.51"/><path d="M1609,577L1473,679L1648,691Z" fill="#a6c9e1" stroke="#a6c9e1" stroke-width="1.51"/><path d="M1454,-101L1480,134L1585,-78Z" fill="#b78589" stroke="#b78589" stroke-width="1.51"/><path d="M1442,954L1535,1109L1601,937Z" fill="#68a8cf" stroke="#68a8cf" stroke-width="1.51"/><path d="M1480,134L1596,245L1621,133Z" fill="#bba1a3" stroke="#bba1a3" stroke-width="1.51"/><path d="M1535,1109L1530,1329L1624,1174Z" fill="#4c87bd" stroke="#4c87bd" stroke-width="1.51"/><path d="M1540,512L1473,679L1609,577Z" fill="#b3d1e4" stroke="#b3d1e4" stroke-width="1.51"/><path d="M1454,257L1534,359L1596,245Z" fill="#c2b8bb" stroke="#c2b8bb" stroke-width="1.51"/><path d="M1480,134L1454,257L1596,245Z" fill="#c4afad" stroke="#c4afad" stroke-width="1.51"/><path d="M1504,879L1442,954L1601,937Z" fill="#7cb5d5" stroke="#7cb5d5" stroke-width="1.51"/><path d="M1380,1114L1346,1286L1530,1329Z" fill="#618dbc" stroke="#618dbc" stroke-width="1.51"/><path d="M1380,1114L1530,1329L1535,1109Z" fill="#5c92c4" stroke="#5c92c4" stroke-width="1.51"/><path d="M1534,359L1540,512L1582,409Z" fill="#bbc8d4" stroke="#bbc8d4" stroke-width="1.51"/><path d="M1490,-172L1454,-101L1585,-78Z" fill="#ae747c" stroke="#ae747c" stroke-width="1.51"/><path d="M1454,-101L1325,-28L1480,134Z" fill="#c3908f" stroke="#c3908f" stroke-width="1.51"/><path d="M1442,954L1380,1114L1535,1109Z" fill="#6aa7cf" stroke="#6aa7cf" stroke-width="1.51"/><path d="M1357,635L1473,679L1540,512Z" fill="#bbd8e8" stroke="#bbd8e8" stroke-width="1.51"/><path d="M1312,570L1357,635L1540,512Z" fill="#c7deec" stroke="#c7deec" stroke-width="1.51"/><path d="M1534,359L1352,338L1540,512Z" fill="#c6ced5" stroke="#c6ced5" stroke-width="1.51"/><path d="M1352,338L1312,570L1540,512Z" fill="#cedbe2" stroke="#cedbe2" stroke-width="1.51"/><path d="M1454,257L1374,292L1534,359Z" fill="#cbc3c2" stroke="#cbc3c2" stroke-width="1.51"/><path d="M1374,292L1352,338L1534,359Z" fill="#d0caca" stroke="#d0caca" stroke-width="1.51"/><path d="M1473,679L1287,882L1504,879Z" fill="#a0cbe2" stroke="#a0cbe2" stroke-width="1.51"/><path d="M1007,-244L1217,-200L1322,-230Z" fill="#b67e83" stroke="#b67e83" stroke-width="1.51"/><path d="M1357,635L1287,882L1473,679Z" fill="#b6d7e8" stroke="#b6d7e8" stroke-width="1.51"/><path d="M1325,-28L1347,142L1480,134Z" fill="#cca09c" stroke="#cca09c" stroke-width="1.51"/><path d="M1287,882L1442,954L1504,879Z" fill="#8fc1dc" stroke="#8fc1dc" stroke-width="1.51"/><path d="M1347,142L1454,257L1480,134Z" fill="#cdb1aa" stroke="#cdb1aa" stroke-width="1.51"/><path d="M1322,-230L1454,-101L1490,-172Z" fill="#ac767e" stroke="#ac767e" stroke-width="1.51"/><path d="M1287,882L1340,963L1442,954Z" fill="#91c1dc" stroke="#91c1dc" stroke-width="1.51"/><path d="M1340,963L1380,1114L1442,954Z" fill="#7bb3d5" stroke="#7bb3d5" stroke-width="1.51"/><path d="M1322,-230L1325,-28L1454,-101Z" fill="#be7f81" stroke="#be7f81" stroke-width="1.51"/><path d="M1347,142L1374,292L1454,257Z" fill="#d3bcb6" stroke="#d3bcb6" stroke-width="1.51"/><path d="M1322,-230L1217,-200L1325,-28Z" fill="#be8083" stroke="#be8083" stroke-width="1.51"/><path d="M1325,-28L1216,36L1347,142Z" fill="#d49f99" stroke="#d49f99" stroke-width="1.51"/><path d="M1136,337L1239,563L1352,338Z" fill="#e3e0e0" stroke="#e3e0e0" stroke-width="1.51"/><path d="M1239,563L1312,570L1352,338Z" fill="#d9e3e8" stroke="#d9e3e8" stroke-width="1.51"/><path d="M1188,675L1287,882L1357,635Z" fill="#c3ddeb" stroke="#c3ddeb" stroke-width="1.51"/><path d="M1347,142L1231,282L1374,292Z" fill="#dbc2ba" stroke="#dbc2ba" stroke-width="1.51"/><path d="M1340,963L1147,1030L1380,1114Z" fill="#84b5d6" stroke="#84b5d6" stroke-width="1.51"/><path d="M1147,1030L1206,1177L1380,1114Z" fill="#85aed3" stroke="#85aed3" stroke-width="1.51"/><path d="M1206,1177L1346,1286L1380,1114Z" fill="#759dcb" stroke="#759dcb" stroke-width="1.51"/><path d="M1231,282L1136,337L1352,338Z" fill="#e4d5ce" stroke="#e4d5ce" stroke-width="1.51"/><path d="M1231,282L1352,338L1374,292Z" fill="#dbcdc8" stroke="#dbcdc8" stroke-width="1.51"/><path d="M1312,570L1188,675L1357,635Z" fill="#cfe3ef" stroke="#cfe3ef" stroke-width="1.51"/><path d="M1239,563L1188,675L1312,570Z" fill="#d7e7f1" stroke="#d7e7f1" stroke-width="1.51"/><path d="M1217,-200L1144,-50L1325,-28Z" fill="#cf8b89" stroke="#cf8b89" stroke-width="1.51"/><path d="M1216,36L1231,282L1347,142Z" fill="#deb6ac" stroke="#deb6ac" stroke-width="1.51"/><path d="M1206,1177L1145,1345L1346,1286Z" fill="#7894bc" stroke="#7894bc" stroke-width="1.51"/><path d="M1188,675L1129,840L1287,882Z" fill="#c0dceb" stroke="#c0dceb" stroke-width="1.51"/><path d="M1287,882L1147,1030L1340,963Z" fill="#98c3de" stroke="#98c3de" stroke-width="1.51"/><path d="M1144,-50L1216,36L1325,-28Z" fill="#d69893" stroke="#d69893" stroke-width="1.51"/><path d="M1216,36L1057,80L1231,282Z" fill="#e6b6ab" stroke="#e6b6ab" stroke-width="1.51"/><path d="M1057,80L1074,273L1231,282Z" fill="#eec9ba" stroke="#eec9ba" stroke-width="1.51"/><path d="M1136,337L1049,524L1239,563Z" fill="#eaebeb" stroke="#eaebeb" stroke-width="1.51"/><path d="M1129,840L1147,1030L1287,882Z" fill="#aacee3" stroke="#aacee3" stroke-width="1.51"/><path d="M1062,1288L1145,1345L1206,1177Z" fill="#8198be" stroke="#8198be" stroke-width="1.51"/><path d="M1147,1030L1081,1109L1206,1177Z" fill="#90b2d6" stroke="#90b2d6" stroke-width="1.51"/><path d="M1055,638L1188,675L1239,563Z" fill="#deebf2" stroke="#deebf2" stroke-width="1.51"/><path d="M1049,524L1055,638L1239,563Z" fill="#e7eff5" stroke="#e7eff5" stroke-width="1.51"/><path d="M1062,1288L771,1313L1145,1345Z" fill="#8895b5" stroke="#8895b5" stroke-width="1.51"/><path d="M1074,273L1136,337L1231,282Z" fill="#edd6cc" stroke="#edd6cc" stroke-width="1.51"/><path d="M1129,840L1029,942L1147,1030Z" fill="#adcee3" stroke="#adcee3" stroke-width="1.51"/><path d="M1007,-244L1144,-50L1217,-200Z" fill="#c98786" stroke="#c98786" stroke-width="1.51"/><path d="M1144,-50L1057,80L1216,36Z" fill="#e0a399" stroke="#e0a399" stroke-width="1.51"/><path d="M1055,638L1129,840L1188,675Z" fill="#d5e7f1" stroke="#d5e7f1" stroke-width="1.51"/><path d="M1081,1109L1062,1288L1206,1177Z" fill="#8ca7d0" stroke="#8ca7d0" stroke-width="1.51"/><path d="M615,-259L770,-199L1007,-244Z" fill="#c17b76" stroke="#c17b76" stroke-width="1.51"/><path d="M1055,638L1026,822L1129,840Z" fill="#d0e4ef" stroke="#d0e4ef" stroke-width="1.51"/><path d="M984,443L1049,524L1136,337Z" fill="#f3ebe6" stroke="#f3ebe6" stroke-width="1.51"/><path d="M1007,-244L1052,-26L1144,-50Z" fill="#da8f8b" stroke="#da8f8b" stroke-width="1.51"/><path d="M1052,-26L1057,80L1144,-50Z" fill="#e2a197" stroke="#e2a197" stroke-width="1.51"/><path d="M1029,942L1081,1109L1147,1030Z" fill="#9cc0dc" stroke="#9cc0dc" stroke-width="1.51"/><path d="M1026,822L1029,942L1129,840Z" fill="#bedae9" stroke="#bedae9" stroke-width="1.51"/><path d="M1074,273L984,443L1136,337Z" fill="#f3e1d8" stroke="#f3e1d8" stroke-width="1.51"/><path d="M1007,-244L907,-91L1052,-26Z" fill="#de8f8a" stroke="#de8f8a" stroke-width="1.51"/><path d="M895,783L1026,822L1055,638Z" fill="#dae9f1" stroke="#dae9f1" stroke-width="1.51"/><path d="M848,1238L771,1313L1062,1288Z" fill="#9198b8" stroke="#9198b8" stroke-width="1.51"/><path d="M850,1143L848,1238L1062,1288Z" fill="#97a4c8" stroke="#97a4c8" stroke-width="1.51"/><path d="M916,289L984,443L1074,273Z" fill="#f8e1d6" stroke="#f8e1d6" stroke-width="1.51"/><path d="M1057,80L910,87L1074,273Z" fill="#f2bfaf" stroke="#f2bfaf" stroke-width="1.51"/><path d="M910,87L916,289L1074,273Z" fill="#f9cebd" stroke="#f9cebd" stroke-width="1.51"/><path d="M1029,942L879,975L1081,1109Z" fill="#a7c7df" stroke="#a7c7df" stroke-width="1.51"/><path d="M879,975L850,1143L1081,1109Z" fill="#a3bcd8" stroke="#a3bcd8" stroke-width="1.51"/><path d="M850,1143L1062,1288L1081,1109Z" fill="#97add3" stroke="#97add3" stroke-width="1.51"/><path d="M871,647L895,783L1055,638Z" fill="#e7eef2" stroke="#e7eef2" stroke-width="1.51"/><path d="M1049,524L905,528L1055,638Z" fill="#f1f4f6" stroke="#f1f4f6" stroke-width="1.51"/><path d="M1052,-26L910,87L1057,80Z" fill="#ebab9f" stroke="#ebab9f" stroke-width="1.51"/><path d="M916,289L885,364L984,443Z" fill="#fbe5da" stroke="#fbe5da" stroke-width="1.51"/><path d="M770,-199L830,-181L1007,-244Z" fill="#c8827e" stroke="#c8827e" stroke-width="1.51"/><path d="M905,528L871,647L1055,638Z" fill="#f0f3f4" stroke="#f0f3f4" stroke-width="1.51"/><path d="M907,-91L910,87L1052,-26Z" fill="#e9a397" stroke="#e9a397" stroke-width="1.51"/><path d="M984,443L905,528L1049,524Z" fill="#f7f3f0" stroke="#f7f3f0" stroke-width="1.51"/><path d="M895,783L879,975L1026,822Z" fill="#c9dde9" stroke="#c9dde9" stroke-width="1.51"/><path d="M1026,822L879,975L1029,942Z" fill="#bcd7e7" stroke="#bcd7e7" stroke-width="1.51"/><path d="M830,-181L907,-91L1007,-244Z" fill="#d28983" stroke="#d28983" stroke-width="1.51"/><path d="M885,364L905,528L984,443Z" fill="#faede5" stroke="#faede5" stroke-width="1.51"/><path d="M767,855L879,975L895,783Z" fill="#c9d7df" stroke="#c9d7df" stroke-width="1.51"/><path d="M885,364L783,514L905,528Z" fill="#faebe2" stroke="#faebe2" stroke-width="1.51"/><path d="M783,514L871,647L905,528Z" fill="#f6efeb" stroke="#f6efeb" stroke-width="1.51"/><path d="M701,-22L738,84L907,-91Z" fill="#e99987" stroke="#e99987" stroke-width="1.51"/><path d="M738,84L769,273L910,87Z" fill="#f5b8a2" stroke="#f5b8a2" stroke-width="1.51"/><path d="M907,-91L738,84L910,87Z" fill="#eca292" stroke="#eca292" stroke-width="1.51"/><path d="M910,87L769,273L916,289Z" fill="#fac9b4" stroke="#fac9b4" stroke-width="1.51"/><path d="M769,273L885,364L916,289Z" fill="#fbd8c6" stroke="#fbd8c6" stroke-width="1.51"/><path d="M711,1014L850,1143L879,975Z" fill="#a9bacf" stroke="#a9bacf" stroke-width="1.51"/><path d="M871,647L704,695L895,783Z" fill="#e6e6e6" stroke="#e6e6e6" stroke-width="1.51"/><path d="M830,-181L701,-22L907,-91Z" fill="#e18c7f" stroke="#e18c7f" stroke-width="1.51"/><path d="M697,385L783,514L885,364Z" fill="#fce3d5" stroke="#fce3d5" stroke-width="1.51"/><path d="M704,695L767,855L895,783Z" fill="#dbdddf" stroke="#dbdddf" stroke-width="1.51"/><path d="M711,1014L749,1147L850,1143Z" fill="#a6b0c6" stroke="#a6b0c6" stroke-width="1.51"/><path d="M769,273L697,385L885,364Z" fill="#fcd9c6" stroke="#fcd9c6" stroke-width="1.51"/><path d="M767,855L711,1014L879,975Z" fill="#bcc8d3" stroke="#bcc8d3" stroke-width="1.51"/><path d="M770,-199L701,-22L830,-181Z" fill="#da8378" stroke="#da8378" stroke-width="1.51"/><path d="M783,514L704,695L871,647Z" fill="#f1e9e4" stroke="#f1e9e4" stroke-width="1.51"/><path d="M749,1147L848,1238L850,1143Z" fill="#9fa6c5" stroke="#9fa6c5" stroke-width="1.51"/><path d="M749,1147L771,1313L848,1238Z" fill="#9a9cba" stroke="#9a9cba" stroke-width="1.51"/><path d="M704,695L608,816L767,855Z" fill="#dbd5d3" stroke="#dbd5d3" stroke-width="1.51"/><path d="M625,938L711,1014L767,855Z" fill="#c0c4ca" stroke="#c0c4ca" stroke-width="1.51"/><path d="M738,84L613,101L769,273Z" fill="#f5b398" stroke="#f5b398" stroke-width="1.51"/><path d="M613,101L541,238L769,273Z" fill="#f8b698" stroke="#f8b698" stroke-width="1.51"/><path d="M615,-259L701,-22L770,-199Z" fill="#d37b6f" stroke="#d37b6f" stroke-width="1.51"/><path d="M749,1147L594,1318L771,1313Z" fill="#9891aa" stroke="#9891aa" stroke-width="1.51"/><path d="M576,565L704,695L783,514Z" fill="#f5e2d9" stroke="#f5e2d9" stroke-width="1.51"/><path d="M697,385L576,565L783,514Z" fill="#fce0d2" stroke="#fce0d2" stroke-width="1.51"/><path d="M604,1116L594,1318L749,1147Z" fill="#a197b1" stroke="#a197b1" stroke-width="1.51"/><path d="M600,366L697,385L769,273Z" fill="#fcd2bb" stroke="#fcd2bb" stroke-width="1.51"/><path d="M541,238L600,366L769,273Z" fill="#fbc4a9" stroke="#fbc4a9" stroke-width="1.51"/><path d="M711,1014L604,1116L749,1147Z" fill="#a8aabd" stroke="#a8aabd" stroke-width="1.51"/><path d="M608,816L625,938L767,855Z" fill="#cdcacb" stroke="#cdcacb" stroke-width="1.51"/><path d="M615,-259L546,-18L701,-22Z" fill="#dd7b69" stroke="#dd7b69" stroke-width="1.51"/><path d="M242,-237L416,-190L615,-259Z" fill="#b7544a" stroke="#b7544a" stroke-width="1.51"/><path d="M600,366L576,565L697,385Z" fill="#fcd5c2" stroke="#fcd5c2" stroke-width="1.51"/><path d="M701,-22L613,101L738,84Z" fill="#ed9c84" stroke="#ed9c84" stroke-width="1.51"/><path d="M539,706L608,816L704,695Z" fill="#e3d1ca" stroke="#e3d1ca" stroke-width="1.51"/><path d="M576,565L539,706L704,695Z" fill="#eed6cc" stroke="#eed6cc" stroke-width="1.51"/><path d="M625,938L604,1116L711,1014Z" fill="#b0b0bc" stroke="#b0b0bc" stroke-width="1.51"/><path d="M546,-18L613,101L701,-22Z" fill="#e88f77" stroke="#e88f77" stroke-width="1.51"/><path d="M396,540L576,565L600,366Z" fill="#facfba" stroke="#facfba" stroke-width="1.51"/><path d="M382,384L396,540L600,366Z" fill="#f9c1a9" stroke="#f9c1a9" stroke-width="1.51"/><path d="M418,1253L594,1318L604,1116Z" fill="#9e859a" stroke="#9e859a" stroke-width="1.51"/><path d="M546,-18L485,43L613,101Z" fill="#e88a70" stroke="#e88a70" stroke-width="1.51"/><path d="M416,-190L546,-18L615,-259Z" fill="#ce6859" stroke="#ce6859" stroke-width="1.51"/><path d="M421,1036L604,1116L625,938Z" fill="#b0a5ae" stroke="#b0a5ae" stroke-width="1.51"/><path d="M608,816L480,813L625,938Z" fill="#d0c1be" stroke="#d0c1be" stroke-width="1.51"/><path d="M480,813L421,1036L625,938Z" fill="#c2b0af" stroke="#c2b0af" stroke-width="1.51"/><path d="M418,1253L323,1341L594,1318Z" fill="#926d7d" stroke="#926d7d" stroke-width="1.51"/><path d="M539,706L480,813L608,816Z" fill="#dcc5be" stroke="#dcc5be" stroke-width="1.51"/><path d="M485,43L541,238L613,101Z" fill="#ef9c7e" stroke="#ef9c7e" stroke-width="1.51"/><path d="M382,1092L418,1253L604,1116Z" fill="#a58a9a" stroke="#a58a9a" stroke-width="1.51"/><path d="M416,-190L450,-18L546,-18Z" fill="#d96d58" stroke="#d96d58" stroke-width="1.51"/><path d="M421,1036L382,1092L604,1116Z" fill="#ab949f" stroke="#ab949f" stroke-width="1.51"/><path d="M541,238L382,384L600,366Z" fill="#f9bb9f" stroke="#f9bb9f" stroke-width="1.51"/><path d="M388,274L382,384L541,238Z" fill="#f5ae8f" stroke="#f5ae8f" stroke-width="1.51"/><path d="M396,540L539,706L576,565Z" fill="#f3cdbe" stroke="#f3cdbe" stroke-width="1.51"/><path d="M441,738L480,813L539,706Z" fill="#e0c1b7" stroke="#e0c1b7" stroke-width="1.51"/><path d="M396,540L441,738L539,706Z" fill="#ecc5b6" stroke="#ecc5b6" stroke-width="1.51"/><path d="M485,43L388,274L541,238Z" fill="#f29f7d" stroke="#f29f7d" stroke-width="1.51"/><path d="M450,-18L485,43L546,-18Z" fill="#e27d64" stroke="#e27d64" stroke-width="1.51"/><path d="M312,55L320,245L388,274Z" fill="#ea8d6f" stroke="#ea8d6f" stroke-width="1.51"/><path d="M319,595L333,682L396,540Z" fill="#edb8aa" stroke="#edb8aa" stroke-width="1.51"/><path d="M396,540L333,682L441,738Z" fill="#eabcae" stroke="#eabcae" stroke-width="1.51"/><path d="M234,831L276,944L480,813Z" fill="#c9a29e" stroke="#c9a29e" stroke-width="1.51"/><path d="M276,944L421,1036L480,813Z" fill="#bfa0a1" stroke="#bfa0a1" stroke-width="1.51"/><path d="M450,-18L312,55L485,43Z" fill="#e0775e" stroke="#e0775e" stroke-width="1.51"/><path d="M312,55L388,274L485,43Z" fill="#e8886a" stroke="#e8886a" stroke-width="1.51"/><path d="M382,1092L333,1127L418,1253Z" fill="#a27d90" stroke="#a27d90" stroke-width="1.51"/><path d="M441,738L234,831L480,813Z" fill="#d6b0a8" stroke="#d6b0a8" stroke-width="1.51"/><path d="M333,682L234,831L441,738Z" fill="#dbada5" stroke="#dbada5" stroke-width="1.51"/><path d="M416,-190L259,-63L450,-18Z" fill="#d15c4c" stroke="#d15c4c" stroke-width="1.51"/><path d="M259,-63L312,55L450,-18Z" fill="#d76552" stroke="#d76552" stroke-width="1.51"/><path d="M382,384L264,407L396,540Z" fill="#f3b39e" stroke="#f3b39e" stroke-width="1.51"/><path d="M242,-237L259,-63L416,-190Z" fill="#bf4841" stroke="#bf4841" stroke-width="1.51"/><path d="M276,944L382,1092L421,1036Z" fill="#ad8e96" stroke="#ad8e96" stroke-width="1.51"/><path d="M333,1127L323,1341L418,1253Z" fill="#986d81" stroke="#986d81" stroke-width="1.51"/><path d="M168,1239L323,1341L333,1127Z" fill="#956379" stroke="#956379" stroke-width="1.51"/><path d="M320,245L264,407L382,384Z" fill="#f1a58b" stroke="#f1a58b" stroke-width="1.51"/><path d="M276,944L333,1127L382,1092Z" fill="#a98690" stroke="#a98690" stroke-width="1.51"/><path d="M320,245L382,384L388,274Z" fill="#f1a487" stroke="#f1a487" stroke-width="1.51"/><path d="M264,407L319,595L396,540Z" fill="#f3b6a5" stroke="#f3b6a5" stroke-width="1.51"/><path d="M121,962L126,1140L276,944Z" fill="#a67883" stroke="#a67883" stroke-width="1.51"/><path d="M264,407L118,588L319,595Z" fill="#eeaa9c" stroke="#eeaa9c" stroke-width="1.51"/><path d="M312,55L160,141L320,245Z" fill="#e1795f" stroke="#e1795f" stroke-width="1.51"/><path d="M160,141L165,230L320,245Z" fill="#e37f64" stroke="#e37f64" stroke-width="1.51"/><path d="M165,230L264,407L320,245Z" fill="#ea9279" stroke="#ea9279" stroke-width="1.51"/><path d="M168,1239L12,1303L323,1341Z" fill="#864c62" stroke="#864c62" stroke-width="1.51"/><path d="M319,595L161,726L333,682Z" fill="#e3aaa0" stroke="#e3aaa0" stroke-width="1.51"/><path d="M161,726L234,831L333,682Z" fill="#d8a19a" stroke="#d8a19a" stroke-width="1.51"/><path d="M276,944L126,1140L333,1127Z" fill="#a47886" stroke="#a47886" stroke-width="1.51"/><path d="M126,1140L168,1239L333,1127Z" fill="#99667c" stroke="#99667c" stroke-width="1.51"/><path d="M118,588L161,726L319,595Z" fill="#e2a299" stroke="#e2a299" stroke-width="1.51"/><path d="M259,-63L160,141L312,55Z" fill="#d7614d" stroke="#d7614d" stroke-width="1.51"/><path d="M90,-20L160,141L259,-63Z" fill="#cf5345" stroke="#cf5345" stroke-width="1.51"/><path d="M242,-237L104,-252L259,-63Z" fill="#b23636" stroke="#b23636" stroke-width="1.51"/><path d="M104,-252L90,-20L259,-63Z" fill="#bf3636" stroke="#bf3636" stroke-width="1.51"/><path d="M165,230L95,403L264,407Z" fill="#e8927d" stroke="#e8927d" stroke-width="1.51"/><path d="M95,403L118,588L264,407Z" fill="#e99c8d" stroke="#e99c8d" stroke-width="1.51"/><path d="M234,831L121,962L276,944Z" fill="#bb8c8e" stroke="#bb8c8e" stroke-width="1.51"/><path d="M83,811L121,962L234,831Z" fill="#bf8b8b" stroke="#bf8b8b" stroke-width="1.51"/><path d="M161,726L83,811L234,831Z" fill="#cc9490" stroke="#cc9490" stroke-width="1.51"/><path d="M-162,-171L-22,-177L104,-252Z" fill="#9b1028" stroke="#9b1028" stroke-width="1.51"/><path d="M-19,-104L90,-20L104,-252Z" fill="#b5242f" stroke="#b5242f" stroke-width="1.51"/><path d="M-22,-177L-19,-104L104,-252Z" fill="#a6182a" stroke="#a6182a" stroke-width="1.51"/><path d="M95,403L4,501L118,588Z" fill="#e4958a" stroke="#e4958a" stroke-width="1.51"/><path d="M121,962L-17,1016L126,1140Z" fill="#9e6a79" stroke="#9e6a79" stroke-width="1.51"/><path d="M90,-20L-21,49L160,141Z" fill="#cb4e43" stroke="#cb4e43" stroke-width="1.51"/><path d="M118,588L21,793L161,726Z" fill="#d69490" stroke="#d69490" stroke-width="1.51"/><path d="M160,141L-68,287L165,230Z" fill="#dc725d" stroke="#dc725d" stroke-width="1.51"/><path d="M-68,287L95,403L165,230Z" fill="#df7f6c" stroke="#df7f6c" stroke-width="1.51"/><path d="M126,1140L12,1303L168,1239Z" fill="#8d516c" stroke="#8d516c" stroke-width="1.51"/><path d="M-21,49L-68,287L160,141Z" fill="#d25e4e" stroke="#d25e4e" stroke-width="1.51"/><path d="M-60,634L21,793L118,588Z" fill="#d58d8a" stroke="#d58d8a" stroke-width="1.51"/><path d="M21,793L83,811L161,726Z" fill="#ca8c8b" stroke="#ca8c8b" stroke-width="1.51"/><path d="M-68,287L-30,412L95,403Z" fill="#de8173" stroke="#de8173" stroke-width="1.51"/><path d="M83,811L21,793L121,962Z" fill="#bd8486" stroke="#bd8486" stroke-width="1.51"/><path d="M21,793L-17,1016L121,962Z" fill="#af777f" stroke="#af777f" stroke-width="1.51"/><path d="M-58,1110L12,1303L126,1140Z" fill="#8e506d" stroke="#8e506d" stroke-width="1.51"/><path d="M-17,1016L-58,1110L126,1140Z" fill="#965d72" stroke="#965d72" stroke-width="1.51"/><path d="M4,501L-60,634L118,588Z" fill="#de918c" stroke="#de918c" stroke-width="1.51"/><path d="M-30,412L4,501L95,403Z" fill="#e08b7e" stroke="#e08b7e" stroke-width="1.51"/><path d="M-126,855L-17,1016L21,793Z" fill="#ac757d" stroke="#ac757d" stroke-width="1.51"/><path d="M-19,-104L-21,49L90,-20Z" fill="#be3535" stroke="#be3535" stroke-width="1.51"/><path d="M-172,664L-126,855L-60,634Z" fill="#b97f83" stroke="#b97f83" stroke-width="1.51"/><path d="M-130,72L-68,287L-21,49Z" fill="#c15247" stroke="#c15247" stroke-width="1.51"/><path d="M-126,-36L-21,49L-19,-104Z" fill="#b32e32" stroke="#b32e32" stroke-width="1.51"/><path d="M-126,855L-110,1002L-17,1016Z" fill="#986876" stroke="#986876" stroke-width="1.51"/><path d="M-58,1110L-179,1192L12,1303Z" fill="#7e4566" stroke="#7e4566" stroke-width="1.51"/><path d="M-179,1192L-186,1305L12,1303Z" fill="#6e3857" stroke="#6e3857" stroke-width="1.51"/><path d="M-60,634L-126,855L21,793Z" fill="#bd8083" stroke="#bd8083" stroke-width="1.51"/><path d="M-202,595L-60,634L4,501Z" fill="#cd8887" stroke="#cd8887" stroke-width="1.51"/><path d="M-30,412L-204,412L4,501Z" fill="#d1827a" stroke="#d1827a" stroke-width="1.51"/><path d="M-204,412L-202,595L4,501Z" fill="#c78480" stroke="#c78480" stroke-width="1.51"/><path d="M-130,72L-206,267L-68,287Z" fill="#be5e50" stroke="#be5e50" stroke-width="1.51"/><path d="M-126,-36L-130,72L-21,49Z" fill="#b33938" stroke="#b33938" stroke-width="1.51"/><path d="M-22,-177L-162,-171L-19,-104Z" fill="#a01229" stroke="#a01229" stroke-width="1.51"/><path d="M-110,1002L-58,1110L-17,1016Z" fill="#8e5e71" stroke="#8e5e71" stroke-width="1.51"/><path d="M-162,-171L-126,-36L-19,-104Z" fill="#a3182a" stroke="#a3182a" stroke-width="1.51"/><path d="M-68,287L-204,412L-30,412Z" fill="#cc7a70" stroke="#cc7a70" stroke-width="1.51"/><path d="M-206,267L-204,412L-68,287Z" fill="#bf6f65" stroke="#bf6f65" stroke-width="1.51"/><path d="M-202,595L-172,664L-60,634Z" fill="#bd8284" stroke="#bd8284" stroke-width="1.51"/><path d="M-110,1002L-179,1192L-58,1110Z" fill="#80526c" stroke="#80526c" stroke-width="1.51"/><path d="M-126,855L-179,1192L-110,1002Z" fill="#855c70" stroke="#855c70" stroke-width="1.51"/><path d="M-202,595L-179,1192L-172,664Z" fill="#9e727c" stroke="#9e727c" stroke-width="1.51"/><path d="M-162,-171L-206,267L-130,72Z" fill="#aa3b39" stroke="#aa3b39" stroke-width="1.51"/><path d="M-172,664L-179,1192L-126,855Z" fill="#956b77" stroke="#956b77" stroke-width="1.51"/><path d="M-162,-171L-130,72L-126,-36Z" fill="#a4262f" stroke="#a4262f" stroke-width="1.51"/><path d="M-202,595L-186,1305L-179,1192Z" fill="#79576e" stroke="#79576e" stroke-width="1.51"/></svg>